<svg width="69" height="48" viewBox="0 0 69 48" fill="none" xmlns="http://www.w3.org/2000/svg">
<rect y="0.5" width="69" height="47" rx="4" fill="#E6F1F1"/>
<path fill-rule="evenodd" clip-rule="evenodd" d="M31.6775 38.2958H36.8696C44.9745 38.2958 51.4331 31.9997 51.6863 24.2222V24.0988C51.5597 16.1978 44.9745 9.77826 36.8696 9.90171H31.0443C23.3193 10.1486 17.2407 16.5682 17.494 24.2222C17.494 31.8763 23.8259 38.1723 31.6775 38.2958ZM20.0267 24.0987C20.0267 17.6792 25.4722 12.3707 32.0574 12.3707C38.6426 12.3707 44.088 17.6792 44.088 24.0987C44.088 30.5182 38.6426 35.8267 32.0574 35.8267C25.4722 35.8267 20.0267 30.5182 20.0267 24.0987ZM33.957 31.9997V16.3212C38.3893 17.4323 41.1754 21.7531 40.0356 26.074C39.2758 29.0368 36.9963 31.259 33.957 31.9997ZM24.2058 22.1235C23.0661 26.4443 25.7255 30.8886 30.1578 31.9997V16.3212C27.2451 17.0619 24.9656 19.2841 24.2058 22.1235Z" fill="#0079BE"/>
</svg>
