<svg width="70" height="48" viewBox="0 0 70 48" fill="none" xmlns="http://www.w3.org/2000/svg">
<rect width="70" height="48" rx="4" fill="#E6F1F1"/>
<path fill-rule="evenodd" clip-rule="evenodd" d="M32.5808 31.056V25.1867H35.6539C36.9132 25.1867 37.9761 24.7707 38.8426 23.9504L39.0506 23.7425C40.6334 22.0441 40.5294 19.3983 38.8426 17.8269C37.9992 16.9951 36.8439 16.5445 35.6539 16.5676H30.7207V31.056H32.5808ZM32.581 23.4073V18.3468H35.7008C36.371 18.3468 37.0066 18.6009 37.4803 19.0631C38.4856 20.0336 38.5087 21.6511 37.5381 22.6563C37.0643 23.1531 36.3942 23.4304 35.7008 23.4073H32.581ZM47.7271 21.9169C46.9299 21.189 45.8439 20.8193 44.4691 20.8193C42.7014 20.8193 41.3728 21.4663 40.4948 22.7488L42.1353 23.7771C42.7361 22.899 43.5564 22.4599 44.5962 22.4599C45.2547 22.4599 45.8901 22.7026 46.3869 23.1416C46.8722 23.5576 47.1494 24.1583 47.1494 24.7938V25.2213C46.4331 24.8285 45.532 24.6205 44.4229 24.6205C43.1289 24.6205 42.0891 24.9209 41.3151 25.5332C40.541 26.1456 40.1482 26.9544 40.1482 27.9826C40.1251 28.9185 40.5294 29.8081 41.2457 30.4089C41.9736 31.0559 42.8978 31.3794 43.9839 31.3794C45.2663 31.3794 46.2829 30.8133 47.057 29.681H47.1379V31.0559H48.9171V24.944C48.9171 23.6615 48.5243 22.6448 47.7271 21.9169ZM42.6786 29.2305C42.2973 28.9532 42.0662 28.5026 42.0662 28.0173C42.0662 27.4743 42.3204 27.0237 42.8173 26.6655C43.3257 26.3074 43.9613 26.1225 44.7123 26.1225C45.7523 26.111 46.5611 26.342 47.1389 26.8042C47.1389 27.5898 46.8269 28.2715 46.2145 28.8492C45.6598 29.4038 44.9088 29.7157 44.123 29.7157C43.603 29.7273 43.0946 29.554 42.6786 29.2305ZM52.9145 35.4117L59.1302 21.1428H57.1083L54.2316 28.2599H54.1969L51.2509 21.1428H49.229L53.3073 30.4205L50.9967 35.4117H52.9145Z" fill="#3C4043"/>
<path d="M26.1591 23.9158C26.1591 23.3497 26.1128 22.7835 26.0204 22.2289H18.1758V25.4293H22.67C22.4851 26.4576 21.8844 27.3819 21.0063 27.9596V30.0393H23.6867C25.2579 28.5951 26.1591 26.4576 26.1591 23.9158Z" fill="#4285F4"/>
<path d="M18.1768 32.0497C20.4181 32.0497 22.3128 31.3102 23.6877 30.0393L21.0073 27.9596C20.2563 28.468 19.2974 28.7568 18.1768 28.7568C16.0048 28.7568 14.1678 27.2895 13.5093 25.3254H10.748V27.4744C12.1575 30.2819 15.0343 32.0497 18.1768 32.0497Z" fill="#34A853"/>
<path d="M13.5098 25.3254C13.1631 24.2971 13.1631 23.1764 13.5098 22.1366V19.9991H10.7481C9.55793 22.3445 9.55793 25.1174 10.7481 27.4628L13.5098 25.3254Z" fill="#FBBC04"/>
<path d="M18.1768 18.7051C19.3667 18.682 20.5105 19.1326 21.3655 19.9529L23.7454 17.5728C22.2319 16.1632 20.2448 15.3891 18.1768 15.4122C15.0343 15.4122 12.1575 17.1915 10.748 19.9991L13.5093 22.1481C14.1678 20.1724 16.0048 18.7051 18.1768 18.7051Z" fill="#EA4335"/>
</svg>
