<svg width="68" height="48" viewBox="0 0 68 48" fill="none" xmlns="http://www.w3.org/2000/svg">
<rect y="0.5" width="68" height="47" rx="4" fill="#E6F1F1"/>
<path d="M37.9571 23.4238C37.9571 30.6764 32.1075 36.5559 24.8916 36.5559C17.6758 36.5559 11.8262 30.6764 11.8262 23.4238C11.8262 16.1711 17.6758 10.2917 24.8916 10.2917C32.1075 10.2917 37.9571 16.1711 37.9571 23.4238Z" fill="#ED0006"/>
<path d="M54.9063 23.4238C54.9063 30.6764 49.0567 36.5559 41.8409 36.5559C34.625 36.5559 28.7754 30.6764 28.7754 23.4238C28.7754 16.1711 34.625 10.2917 41.8409 10.2917C49.0567 10.2917 54.9063 16.1711 54.9063 23.4238Z" fill="#0099DF"/>
<path fill-rule="evenodd" clip-rule="evenodd" d="M33.3659 13.4288C36.1751 15.8375 37.9564 19.4215 37.9564 23.4238C37.9564 27.426 36.1751 31.0101 33.3659 33.4187C30.5567 31.0101 28.7754 27.426 28.7754 23.4238C28.7754 19.4215 30.5567 15.8375 33.3659 13.4288Z" fill="#6C6BBD"/>
</svg>
