<svg width="68" height="48" viewBox="0 0 68 48" fill="none" xmlns="http://www.w3.org/2000/svg">
<rect width="68" height="48" rx="4" fill="#E6F1F1"/>
<path fill-rule="evenodd" clip-rule="evenodd" d="M18.769 16.6863C18.1973 17.3901 17.2825 17.9452 16.3677 17.8659C16.2534 16.9143 16.7012 15.9032 17.2253 15.2787C17.7971 14.5551 18.7976 14.0397 19.6076 14C19.7029 14.9913 19.3312 15.9627 18.769 16.6863ZM19.598 18.0542C18.7921 18.006 18.0567 18.3064 17.4628 18.549C17.0805 18.7051 16.7568 18.8373 16.5106 18.8373C16.2343 18.8373 15.8972 18.6981 15.5188 18.5417L15.5188 18.5417C15.0229 18.3368 14.456 18.1025 13.8616 18.1137C12.4989 18.1335 11.2316 18.9365 10.536 20.2152C9.10662 22.7726 10.1643 26.5593 11.546 28.6409C12.2226 29.6718 13.0325 30.8018 14.0998 30.7622C14.5693 30.7438 14.907 30.5947 15.2566 30.4404C15.659 30.2628 16.077 30.0782 16.7298 30.0782C17.3599 30.0782 17.7596 30.2579 18.1434 30.4305C18.5082 30.5945 18.8586 30.752 19.3788 30.7424C20.4842 30.7225 21.1798 29.7115 21.8563 28.6806C22.5864 27.5741 22.9073 26.4943 22.956 26.3304L22.9617 26.3114L22.9608 26.3108L22.9578 26.3091C22.9536 26.307 22.9462 26.3034 22.9357 26.2984L22.9356 26.2984C22.6915 26.1821 20.826 25.2937 20.8081 22.9114C20.7902 20.9118 22.2878 19.8987 22.5235 19.7392C22.5379 19.7295 22.5476 19.723 22.5519 19.7196C21.599 18.2525 20.1125 18.0939 19.598 18.0542ZM27.2498 30.6333V15.1796H32.8242C35.7019 15.1796 37.7125 17.2414 37.7125 20.2548C37.7125 23.2683 35.6638 25.3499 32.748 25.3499H29.5558V30.6333H27.2498ZM29.5556 17.2018H32.2141C34.2152 17.2018 35.3587 18.312 35.3587 20.2648C35.3587 22.2175 34.2152 23.3377 32.2046 23.3377H29.5556V17.2018ZM45.3263 28.7797C44.7164 29.989 43.3728 30.7523 41.9244 30.7523C39.7804 30.7523 38.2844 29.424 38.2844 27.4217C38.2844 25.4391 39.7328 24.2992 42.4104 24.1307L45.2881 23.9522V23.0998C45.2881 21.8409 44.4972 21.1569 43.087 21.1569C41.9244 21.1569 41.0763 21.7814 40.9048 22.733H38.8275C38.8942 20.7307 40.7047 19.2735 43.1537 19.2735C45.7932 19.2735 47.5084 20.7108 47.5084 22.9412V30.6333H45.3739V28.7797H45.3263ZM42.5436 28.9185C41.3144 28.9185 40.533 28.3039 40.533 27.3622C40.533 26.3908 41.2858 25.8257 42.7247 25.7365L45.288 25.568V26.4403C45.288 27.8876 44.1064 28.9185 42.5436 28.9185ZM54.5883 31.238C53.664 33.9442 52.6063 34.8363 50.3574 34.8363C50.1859 34.8363 49.6142 34.8165 49.4808 34.7768V32.9232C49.6237 32.943 49.9763 32.9628 50.1573 32.9628C51.1769 32.9628 51.7487 32.5167 52.1012 31.357L52.3109 30.673L48.404 19.4222H50.8148L53.5306 28.5517H53.5782L56.294 19.4222H58.6381L54.5883 31.238Z" fill="black"/>
</svg>
