<svg width="69" height="48" viewBox="0 0 69 48" fill="none" xmlns="http://www.w3.org/2000/svg">
<rect width="69" height="48" rx="4" fill="#E6F1F1"/>
<path fill-rule="evenodd" clip-rule="evenodd" d="M29.228 36.8965L29.6695 33.9983L28.6861 33.9746H23.9902L27.2537 12.5874C27.2639 12.5226 27.2967 12.4625 27.3447 12.4197C27.393 12.3769 27.4544 12.3535 27.5188 12.3535H35.4367C38.0656 12.3535 39.8796 12.9188 40.8266 14.0346C41.2706 14.5581 41.5534 15.1053 41.6903 15.7072C41.8338 16.339 41.8362 17.0937 41.6962 18.0143L41.6861 18.0812V18.6712L42.1301 18.9312C42.5039 19.1363 42.8011 19.3709 43.0291 19.6395C43.4088 20.0872 43.6545 20.6561 43.7583 21.3304C43.8656 22.024 43.8302 22.8495 43.6545 23.7841C43.4519 24.8589 43.1244 25.7951 42.682 26.5611C42.2753 27.2669 41.757 27.8524 41.1415 28.306C40.5539 28.7371 39.8559 29.0643 39.0667 29.2738C38.3018 29.4796 37.4297 29.5834 36.4733 29.5834H35.8571C35.4166 29.5834 34.9886 29.7474 34.6527 30.0414C34.3157 30.3415 34.093 30.7516 34.0246 31.2001L33.9781 31.4611L33.198 36.5695L33.1628 36.757C33.1533 36.8164 33.1373 36.8459 33.1136 36.866C33.0926 36.8843 33.0623 36.8965 33.0327 36.8965H29.228Z" fill="#28356A"/>
<path fill-rule="evenodd" clip-rule="evenodd" d="M42.5521 18.1494C42.5287 18.3055 42.5015 18.4651 42.4713 18.6291C41.4271 24.1704 37.8546 26.0847 33.2921 26.0847H30.969C30.411 26.0847 29.9407 26.5033 29.8539 27.0723L28.3276 37.0788C28.2711 37.4524 28.5496 37.789 28.9142 37.789H33.0346C33.5224 37.789 33.9369 37.4226 34.0137 36.9253L34.0542 36.709L34.83 31.6206L34.8799 31.3415C34.9558 30.8424 35.3712 30.4759 35.859 30.4759H36.4752C40.4671 30.4759 43.5923 28.8008 44.5057 23.9531C44.8871 21.9281 44.6896 20.2372 43.68 19.048C43.3745 18.6895 42.9955 18.3918 42.5521 18.1494Z" fill="#298FC2"/>
<path fill-rule="evenodd" clip-rule="evenodd" d="M41.4596 17.6992C41.3 17.6511 41.1354 17.6076 40.9666 17.5683C40.7968 17.5299 40.623 17.4959 40.4441 17.4661C39.8177 17.3615 39.1313 17.3119 38.3962 17.3119H32.1901C32.0371 17.3119 31.8919 17.3476 31.7621 17.4121C31.4758 17.5543 31.2632 17.8344 31.2117 18.1773L29.8913 26.8203L29.8535 27.0723C29.9403 26.5034 30.4106 26.0847 30.9686 26.0847H33.2917C37.8542 26.0847 41.4267 24.1695 42.4709 18.6291C42.5021 18.4652 42.5284 18.3056 42.5518 18.1494C42.2876 18.0045 42.0015 17.8806 41.6935 17.775C41.6173 17.7489 41.5388 17.7237 41.4596 17.6992Z" fill="#22284F"/>
<path fill-rule="evenodd" clip-rule="evenodd" d="M31.2113 18.1773C31.2628 17.8344 31.4754 17.5544 31.7617 17.4131C31.8925 17.3483 32.0367 17.3127 32.1897 17.3127H38.3958C39.1309 17.3127 39.8173 17.3625 40.4436 17.4671C40.6226 17.4967 40.7964 17.5309 40.9662 17.5693C41.135 17.6084 41.2996 17.6521 41.4592 17.7C41.5384 17.7245 41.6169 17.7499 41.6937 17.775C42.0018 17.8806 42.2882 18.0055 42.5523 18.1494C42.863 16.1017 42.5497 14.7075 41.4786 13.445C40.2975 12.0549 38.1662 11.46 35.4387 11.46H27.5205C26.9635 11.46 26.4882 11.8787 26.4021 12.4486L23.1041 34.0558C23.0391 34.4832 23.3581 34.8689 23.7752 34.8689H28.6635L31.2113 18.1773Z" fill="#28356A"/>
</svg>
