<svg width="69" height="48" viewBox="0 0 69 48" fill="none" xmlns="http://www.w3.org/2000/svg">
<rect y="0.5" width="69" height="47" rx="4" fill="#E6F1F1"/>
<path fill-rule="evenodd" clip-rule="evenodd" d="M21.5001 31.5557H17.3806L14.2915 19.6767C14.1449 19.1303 13.8336 18.6472 13.3756 18.4195C12.2328 17.8474 10.9734 17.392 9.59961 17.1623V16.705H16.2358C17.1517 16.705 17.8386 17.392 17.9531 18.1899L19.5559 26.7586L23.6733 16.705H27.6783L21.5001 31.5557ZM29.9681 31.5557H26.0775L29.2811 16.705H33.1717L29.9681 31.5557ZM38.205 20.8191C38.3195 20.0192 39.0064 19.5619 39.8078 19.5619C41.0672 19.4471 42.439 19.6767 43.5838 20.2469L44.2708 17.0495C43.1259 16.5921 41.8666 16.3625 40.7237 16.3625C36.9477 16.3625 34.2 18.4195 34.2 21.2745C34.2 23.4463 36.1463 24.5867 37.5201 25.2737C39.0064 25.9587 39.5788 26.4161 39.4644 27.1011C39.4644 28.1286 38.3195 28.586 37.1766 28.586C35.8028 28.586 34.429 28.2435 33.1717 27.6713L32.4847 30.8707C33.8586 31.4409 35.3449 31.6706 36.7187 31.6706C40.9527 31.7834 43.5838 29.7283 43.5838 26.6438C43.5838 22.7593 38.205 22.5316 38.205 20.8191ZM57.1996 31.5557L54.1105 16.705H50.7924C50.1055 16.705 49.4186 17.1623 49.1896 17.8474L43.4693 31.5557H47.4743L48.2737 29.3858H53.1946L53.6526 31.5557H57.1996ZM51.3649 20.7043L52.5077 26.3013H49.3041L51.3649 20.7043Z" fill="#172B85"/>
</svg>
