<svg width="49" height="49" viewBox="0 0 49 49" fill="none" xmlns="http://www.w3.org/2000/svg">
<rect x="0.666992" y="0.950195" width="48" height="48" rx="24" fill="#E6F1F1"/>
<path d="M24.667 36.9502C31.2944 36.9502 36.667 31.5776 36.667 24.9502C36.667 18.3228 31.2944 12.9502 24.667 12.9502C18.0396 12.9502 12.667 18.3228 12.667 24.9502C12.667 31.5776 18.0396 36.9502 24.667 36.9502Z" stroke="black" stroke-width="2" stroke-linecap="round" stroke-linejoin="round"/>
<path d="M29.667 19.9502H27.667C27.2726 19.9486 26.8817 20.025 26.517 20.1752C26.1523 20.3254 25.8209 20.5463 25.542 20.8252C25.2631 21.1041 25.0422 21.4355 24.892 21.8002C24.7418 22.1649 24.6654 22.5558 24.667 22.9502V36.9502" stroke="black" stroke-width="2" stroke-linecap="round" stroke-linejoin="round"/>
<path d="M20.667 26.9502H28.667" stroke="black" stroke-width="2" stroke-linecap="round" stroke-linejoin="round"/>
</svg>
