<svg width="150" height="150" viewBox="0 0 150 150" fill="none" xmlns="http://www.w3.org/2000/svg">
<rect width="150" height="150" fill="white"/>
<circle cx="75.4067" cy="75.4067" r="72.4067" fill="#FF6669"/>
<path d="M98.946 98.763C101.259 109.879 99.3225 115.41 97.4938 118.382C95.6651 121.326 84.2089 122.564 83.8055 118.602C83.429 114.639 80.7129 95.9839 79.1531 92.3794C77.5933 88.7749 75.2806 86.8763 74.2318 88.8024C73.183 90.7285 71.7845 93.6176 74.5007 109.879C77.2168 126.141 69.8483 125.343 69.8483 125.343C69.8483 125.343 57.8273 126.939 54.7885 117.749C53.2287 113.099 50.4588 39.467 52.0186 30.662C53.5783 21.8295 62.8562 23.1227 67.5086 23.1227C72.161 23.1227 74.4738 27.6078 72.9409 33.8263C71.3543 40.2649 71.7845 64.6712 75.6571 66.6524C79.5296 68.6335 79.3144 59.3332 82.0306 51.8215C84.7467 44.2822 90.179 45.8781 97.2786 45.9331C104.378 45.9882 102.603 55.2884 99.5645 60.709C96.929 65.4142 91.2009 72.6507 90.0446 75.4848C88.6462 80.0799 96.5794 87.6742 98.8922 98.763" fill="white"/>
</svg>
