<svg width="20" height="20" viewBox="0 0 20 20" fill="none" xmlns="http://www.w3.org/2000/svg">
<g id="Group 433">
<path id="Star 6" d="M11.0637 2.31699C10.6969 1.57374 9.63707 1.57374 9.27026 2.31699L7.60768 5.68573C7.46202 5.98087 7.18046 6.18544 6.85474 6.23277L3.13712 6.77297C2.3169 6.89216 1.98939 7.90013 2.5829 8.47866L5.273 11.1009C5.50869 11.3306 5.61624 11.6616 5.5606 11.986L4.92556 15.6886C4.78544 16.5055 5.64288 17.1285 6.3765 16.7428L9.70165 14.9946C9.99298 14.8415 10.341 14.8415 10.6323 14.9946L13.9575 16.7428C14.6911 17.1285 15.5485 16.5055 15.4084 15.6886L14.7734 11.986C14.7177 11.6616 14.8253 11.3306 15.061 11.1009L17.7511 8.47866C18.3446 7.90013 18.0171 6.89216 17.1969 6.77297L13.4792 6.23277C13.1535 6.18544 12.872 5.98087 12.7263 5.68573L11.0637 2.31699Z" fill="white" stroke="black"/>
</g>
</svg>
