<svg width="19" height="20" viewBox="0 0 19 20" fill="none" xmlns="http://www.w3.org/2000/svg">
<g id="Group 433">
<path id="Star 6" d="M10.3967 2.31699C10.0299 1.57374 8.97008 1.57374 8.60326 2.31699L6.94069 5.68573C6.79503 5.98087 6.51346 6.18544 6.18775 6.23277L2.47013 6.77297C1.6499 6.89216 1.3224 7.90013 1.91591 8.47866L4.60601 11.1009C4.8417 11.3306 4.94925 11.6616 4.89361 11.986L4.25856 15.6886C4.11845 16.5055 4.97589 17.1285 5.70951 16.7428L9.03466 14.9946C9.32598 14.8415 9.67402 14.8415 9.96534 14.9946L13.2905 16.7428C14.0241 17.1285 14.8815 16.5055 14.7414 15.6886L14.1064 11.986C14.0508 11.6616 14.1583 11.3306 14.394 11.1009L17.0841 8.47866C17.6776 7.90013 17.3501 6.89216 16.5299 6.77297L12.8122 6.23277C12.4865 6.18544 12.205 5.98087 12.0593 5.68573L10.3967 2.31699Z" fill="#E6F1F1" stroke="#BECACA"/>
</g>
</svg>
