<svg width="49" height="49" viewBox="0 0 49 49" fill="none" xmlns="http://www.w3.org/2000/svg">
<rect x="0.666992" y="0.950195" width="48" height="48" rx="24" fill="#E6F1F1"/>
<path d="M24.667 29.9502C27.4284 29.9502 29.667 27.7116 29.667 24.9502C29.667 22.1888 27.4284 19.9502 24.667 19.9502C21.9056 19.9502 19.667 22.1888 19.667 24.9502C19.667 27.7116 21.9056 29.9502 24.667 29.9502Z" stroke="black" stroke-width="2" stroke-miterlimit="10"/>
<path d="M30.167 13.4502H19.167C15.8533 13.4502 13.167 16.1365 13.167 19.4502V30.4502C13.167 33.7639 15.8533 36.4502 19.167 36.4502H30.167C33.4807 36.4502 36.167 33.7639 36.167 30.4502V19.4502C36.167 16.1365 33.4807 13.4502 30.167 13.4502Z" stroke="black" stroke-width="2" stroke-linecap="round" stroke-linejoin="round"/>
<path d="M31.167 19.9502C31.9954 19.9502 32.667 19.2786 32.667 18.4502C32.667 17.6218 31.9954 16.9502 31.167 16.9502C30.3386 16.9502 29.667 17.6218 29.667 18.4502C29.667 19.2786 30.3386 19.9502 31.167 19.9502Z" fill="black"/>
</svg>
