<?xml version="1.0" encoding="UTF-8" standalone="no"?>
<svg
   width="152"
   height="209"
   viewBox="0 0 152 209"
   fill="none"
   version="1.1"
   id="svg177"
   sodipodi:docname="koala-doctor.svg"
   inkscape:version="1.2.1 (9c6d41e, 2022-07-14)"
   xmlns:inkscape="http://www.inkscape.org/namespaces/inkscape"
   xmlns:sodipodi="http://sodipodi.sourceforge.net/DTD/sodipodi-0.dtd"
   xmlns="http://www.w3.org/2000/svg"
   xmlns:svg="http://www.w3.org/2000/svg">
  <sodipodi:namedview
     id="namedview179"
     pagecolor="#ffffff"
     bordercolor="#000000"
     borderopacity="0.25"
     inkscape:showpageshadow="2"
     inkscape:pageopacity="0.0"
     inkscape:pagecheckerboard="0"
     inkscape:deskcolor="#d1d1d1"
     showgrid="false"
     inkscape:zoom="3.7836266"
     inkscape:cx="43.21251"
     inkscape:cy="75.9853"
     inkscape:window-width="1680"
     inkscape:window-height="943"
     inkscape:window-x="0"
     inkscape:window-y="25"
     inkscape:window-maximized="1"
     inkscape:current-layer="Group 447" />
  <g
     id="Group 447">
    <g
       id="Group 425">
      <g
         id="Group 412">
        <rect
           id="Rectangle 664"
           x="55.4678"
           y="86.7046"
           width="37.0791"
           height="8.82836"
           fill="black" />
        <g
           id="Group 397">
          <path
             id="Vector_15"
             d="M124.284 49.4068C123.756 59.997 115.689 68.6042 105.087 68.6042C94.4838 68.6042 85.8896 60.0084 85.8896 49.4068C85.8896 38.8036 94.4854 30.2095 105.087 30.2095C105.087 30.2095 117.062 29.632 124.621 41.7074C131.312 52.3984 124.38 47.4726 124.284 49.4068Z"
             fill="#BECACA"
             stroke="black"
             stroke-width="0.976054"
             stroke-miterlimit="10" />
          <path
             id="Vector_16"
             d="M105.786 66.6116C113.328 66.6116 119.442 60.4973 119.442 52.955C119.442 45.4126 113.328 39.2983 105.786 39.2983C98.2432 39.2983 92.1289 45.4126 92.1289 52.955C92.1289 60.4973 98.2432 66.6116 105.786 66.6116Z"
             fill="#E6F1F1" />
          <path
             id="Vector_17"
             d="M24.228 49.407C24.228 60.0102 32.8237 68.6043 43.4253 68.6043C54.0285 68.6043 62.6227 60.0085 62.6227 49.407C62.6227 38.8038 54.0269 30.2096 43.4253 30.2096C43.4253 30.2096 32.9148 29.689 25.1487 37.9741C17.1483 46.5081 26.8584 39.2853 24.2865 42.9406C21.7146 46.5959 21.4446 48.1283 23.4504 47.4402C24.6314 47.0335 24.228 49.407 24.228 49.407Z"
             fill="#BECACA"
             stroke="black"
             stroke-width="0.976054"
             stroke-miterlimit="10" />
          <path
             id="Vector_18"
             d="M42.4349 66.6116C49.9773 66.6116 56.0916 60.4973 56.0916 52.955C56.0916 45.4126 49.9773 39.2983 42.4349 39.2983C34.8926 39.2983 28.7783 45.4126 28.7783 52.955C28.7783 60.4973 34.8926 66.6116 42.4349 66.6116Z"
             fill="#E6F1F1" />
          <g
             id="Group_2">
            <g
               id="Group_3">
              <path
                 id="Vector_19"
                 d="M51.585 114.779C62.8982 110.797 68.8836 98.32 70.3075 96.4789C70.3088 96.4779 70.31 96.4768 70.3103 96.4746C70.3429 96.4319 70.3727 96.3936 70.3986 96.3583C70.4014 96.354 70.4055 96.3487 70.4093 96.3456C70.4638 96.2731 70.5058 96.2188 70.5333 96.1802C70.5345 96.1792 70.5358 96.1782 70.5348 96.1769C70.5483 96.1599 70.5592 96.1449 70.5661 96.1353C72.1004 94.0438 71.6438 91.0974 69.5524 89.5631C67.4607 88.0311 64.5132 88.4864 62.9815 90.5758C62.9802 90.5768 62.9762 90.5822 62.9706 90.5908C62.9693 90.5918 62.9678 90.5951 62.9652 90.5971C62.9599 90.6035 62.9517 90.6141 62.9449 90.6238C62.9421 90.6281 62.9382 90.6311 62.9354 90.6354C62.9232 90.6514 62.9097 90.6684 62.8934 90.6898C62.8906 90.6941 62.8868 90.6971 62.884 90.7014C62.8703 90.7207 62.8517 90.7418 62.8352 90.7654C62.8298 90.7717 62.8257 90.7771 62.8204 90.7834C62.7756 90.842 62.7204 90.911 62.6557 90.9917C62.6478 91.0001 62.6422 91.0087 62.6353 91.0184C62.6043 91.0577 62.572 91.0981 62.5358 91.1415C62.5333 91.1435 62.5318 91.1468 62.5292 91.1488C62.4903 91.1965 62.4498 91.2475 62.4058 91.2993C62.3992 91.3066 62.3936 91.3153 62.3869 91.3226C62.348 91.3703 62.3078 91.4191 62.265 91.4698C62.2571 91.4782 62.2515 91.4868 62.2437 91.4952C62.1459 91.6127 62.0378 91.7406 61.9207 91.8755C61.9126 91.8862 61.9021 91.8966 61.894 91.9073C61.7754 92.0455 61.6466 92.1919 61.51 92.3467C61.5008 92.3561 61.4914 92.3678 61.4822 92.3772C61.4199 92.4477 61.355 92.5203 61.2876 92.5949C61.2797 92.6032 61.2705 92.6126 61.2636 92.6223C61.187 92.7062 61.1102 92.7925 61.0285 92.8806C61.0272 92.8816 61.0272 92.8816 61.026 92.8826C60.9494 92.9666 60.8715 93.0516 60.7901 93.1373C60.7781 93.151 60.7639 93.1645 60.7506 93.1792C60.5822 93.3593 60.4061 93.5455 60.2211 93.7388C60.2094 93.7503 60.1987 93.763 60.187 93.7744C60.1005 93.8642 60.0115 93.956 59.9211 94.0489C59.9133 94.0572 59.9054 94.0656 59.8975 94.074C59.798 94.1762 59.6949 94.2792 59.5894 94.3842C59.5855 94.3873 59.5827 94.3916 59.5789 94.3946C59.4812 94.4913 59.382 94.5913 59.2805 94.6909C59.265 94.7054 59.2505 94.7211 59.2337 94.7366C59.0202 94.9464 58.7971 95.1597 58.5676 95.3781C58.5508 95.3936 58.5353 95.4081 58.5185 95.4235C58.4096 95.527 58.2985 95.6303 58.186 95.7345C58.1784 95.7406 58.173 95.747 58.1654 95.753C58.0428 95.8654 57.9189 95.9788 57.7925 96.0942C57.7807 96.1056 57.7693 96.1148 57.7576 96.1262C57.6441 96.2292 57.5297 96.3309 57.4126 96.4346C57.3946 96.4511 57.3753 96.4686 57.3562 96.4838C57.0992 96.7095 56.8362 96.9381 56.5638 97.1678C56.5419 97.1874 56.519 97.2056 56.4961 97.2239C56.3682 97.3322 56.2379 97.4402 56.1077 97.5483C56.1001 97.5543 56.0924 97.5604 56.0835 97.5675C55.9419 97.6847 55.7979 97.8016 55.6529 97.9172C55.6338 97.9325 55.6148 97.9477 55.5957 97.9629C55.4685 98.0643 55.3401 98.1668 55.2106 98.268C55.1864 98.2872 55.1623 98.3065 55.1381 98.3258C54.9883 98.4432 54.8375 98.5593 54.6831 98.6762C53.2527 99.763 51.6602 100.84 49.922 101.822C48.5846 102.577 46.979 102.701 45.5385 102.17C42.3561 101.001 37.3064 98.6505 32.2347 94.2642C30.4446 92.7164 28.6507 92.056 26.9014 92.3047C24.4241 92.6555 22.916 94.7094 22.5117 95.3294C22.3464 95.584 22.2043 95.8389 22.082 96.0925C20.6806 99.0185 22.0364 101.905 24.048 103.459C32.9822 110.367 42.443 115.429 46.4646 115.838C46.4676 115.842 49.922 116.191 51.585 114.779Z"
                 fill="white"
                 stroke="black"
                 stroke-width="0.976054"
                 stroke-miterlimit="10" />
            </g>
          </g>
          <g
             id="Group_4">
            <g
               id="Group_5">
              <path
                 id="Vector_20"
                 d="M95.2926 111.777C81.1673 103.479 81.2948 98.9137 79.5395 97.3853C79.5381 97.3845 79.5366 97.3838 79.5359 97.3816C79.4957 97.3461 79.459 97.3143 79.4266 97.2848C79.4231 97.2811 79.418 97.2767 79.4137 97.2744C79.3461 97.2139 79.2943 97.1688 79.2599 97.1363C79.2584 97.1356 79.257 97.1348 79.2577 97.1334C79.2412 97.1193 79.2275 97.1068 79.2189 97.0986C77.3066 95.3462 77.1804 92.3672 78.9328 90.4549C80.686 88.5448 83.6657 88.4171 85.5751 90.1681C85.5765 90.1688 85.5816 90.1733 85.5887 90.1806C85.5902 90.1814 85.5923 90.1843 85.5952 90.1858C85.6017 90.191 85.6118 90.1999 85.6204 90.208C85.624 90.2117 85.6283 90.2139 85.6319 90.2176C85.647 90.2309 85.6635 90.2449 85.6837 90.2627C85.6873 90.2664 85.6916 90.2686 85.6952 90.2723C85.7124 90.2885 85.7347 90.3056 85.7556 90.3255C85.762 90.3307 85.7671 90.3351 85.7736 90.3403C85.8289 90.3891 85.8965 90.446 85.9757 90.5126C85.985 90.5192 85.9922 90.5266 86.0008 90.5347C86.039 90.5672 86.0785 90.6005 86.1224 90.636C86.1253 90.6375 86.1275 90.6405 86.1303 90.642C86.1778 90.6812 86.2275 90.7233 86.2807 90.7655C86.2887 90.7715 86.2958 90.7788 86.3038 90.7847C86.3512 90.824 86.4002 90.8639 86.452 90.9054C86.4614 90.912 86.4685 90.9194 86.4779 90.9261C86.5967 91.0223 86.7277 91.1266 86.8688 91.2362C86.8788 91.2451 86.8911 91.2533 86.9012 91.2621C87.0444 91.3747 87.1993 91.4932 87.3634 91.6184C87.3743 91.6258 87.3858 91.6354 87.3966 91.6428C87.4715 91.6999 87.5493 91.7584 87.6299 91.8184C87.6393 91.8251 87.6501 91.8325 87.6587 91.8406C87.7502 91.9081 87.8424 91.9777 87.9397 92.0482C87.9411 92.0489 87.9411 92.0489 87.9426 92.0497C88.0341 92.1171 88.127 92.1853 88.2236 92.2536C88.238 92.2647 88.2545 92.2751 88.2704 92.2869C88.4707 92.4308 88.6797 92.5791 88.8988 92.7327C88.9125 92.7416 88.9255 92.752 88.9392 92.7609C89.0415 92.8322 89.1468 92.9049 89.2534 92.9784C89.2628 92.985 89.2722 92.9917 89.2815 92.9984C89.399 93.0793 89.5202 93.1602 89.6442 93.2427C89.6485 93.2449 89.6521 93.2486 89.6565 93.2508C89.7711 93.3266 89.8879 93.4053 90.0069 93.4833C90.0249 93.4945 90.0422 93.5071 90.0617 93.519C90.312 93.6832 90.5724 93.849 90.84 94.0185C90.8595 94.0304 90.8775 94.0415 90.897 94.0534C91.024 94.1337 91.1531 94.2133 91.2837 94.2937C91.2924 94.2982 91.2989 94.3033 91.3075 94.3078C91.4497 94.3942 91.5933 94.4812 91.7398 94.5698C91.7535 94.5787 91.7665 94.5854 91.7802 94.5944C91.9116 94.6733 92.0437 94.7507 92.1787 94.8297C92.1996 94.8423 92.222 94.8557 92.2436 94.8669C92.5396 95.0383 92.8421 95.2112 93.1541 95.3835C93.1794 95.3984 93.2054 95.4118 93.2314 95.4253C93.378 95.5066 93.5268 95.5872 93.6756 95.6678C93.6842 95.6722 93.6929 95.6767 93.703 95.682C93.8648 95.7693 94.0288 95.8559 94.1935 95.9411C94.2152 95.9523 94.2369 95.9635 94.2585 95.9747C94.4031 96.0494 94.549 96.1249 94.6957 96.1989C94.7231 96.2131 94.7506 96.2273 94.7781 96.2415C94.9479 96.3274 95.1184 96.412 95.2926 96.4966C96.9074 97.2839 98.6791 98.0296 100.575 98.6548C102.034 99.1345 103.633 98.9429 104.943 98.1422C107.836 96.3748 112.331 93.086 116.451 87.7957C117.906 85.9288 119.536 84.9315 121.301 84.8347C123.799 84.6961 125.678 86.4168 126.196 86.9462C126.407 87.1638 126.596 87.386 126.766 87.611C128.71 90.2079 127.943 93.3035 126.273 95.2198C118.855 103.735 108.065 111.476 104.2 112.66C101.198 113.58 98.0243 113.19 95.2926 111.777Z"
                 fill="white"
                 stroke="black"
                 stroke-width="0.976054"
                 stroke-miterlimit="10" />
            </g>
          </g>
          <path
             id="Vector_21"
             d="M76.2897 121.912C80.76 118.374 83.5434 118.596 87.0117 119.816C93.9807 122.268 97.0422 127.461 97.0422 134.413C97.0422 141.722 92.733 148.212 88.165 152.757C88.2236 152.757 88.2805 152.753 88.3375 152.753C94.0197 152.753 98.6267 155.846 98.6267 159.482C98.6267 163.117 78.0499 159.482 78.0499 159.482C78.0499 159.482 76.7094 155.73 78.167 147.349C80.0443 136.554 67.0953 129.19 76.2897 121.912Z"
             fill="#727F7F"
             stroke="black"
             stroke-width="0.976054"
             stroke-miterlimit="10" />
          <path
             id="Vector_22"
             d="M73.0675 121.912C68.5971 118.374 65.8138 118.596 62.3455 119.816C55.3765 122.268 52.3149 127.461 52.3149 134.413C52.3149 141.722 56.6242 148.212 61.1921 152.757C61.1336 152.757 61.0766 152.753 61.0197 152.753C55.3374 152.753 50.7305 155.846 50.7305 159.482C50.7305 163.117 71.3073 159.482 71.3073 159.482C71.3073 159.482 72.6478 155.73 71.1902 147.349C69.3129 136.554 82.2619 129.19 73.0675 121.912Z"
             fill="#727F7F"
             stroke="black"
             stroke-width="0.976054"
             stroke-miterlimit="10" />
          <path
             id="Vector_23"
             d="M88.7111 95.7451C92.7162 102.262 95.2133 110.446 95.2133 116.403C95.2133 127.927 85.8708 137.27 74.3469 137.27C62.8229 137.27 53.4805 127.927 53.4805 116.403C53.4805 104.879 62.8229 85.0264 74.3469 85.0264C79.912 85.0247 84.9696 89.6577 88.7111 95.7451Z"
             fill="#BECACA"
             stroke="black"
             stroke-width="0.976054"
             stroke-miterlimit="10" />
          <path
             id="Vector_24"
             d="M74.347 130.704C82.6234 130.704 89.3327 120.844 89.3327 108.681C89.3327 96.5182 82.6234 86.6582 74.347 86.6582C66.0706 86.6582 59.3613 96.5182 59.3613 108.681C59.3613 120.844 66.0706 130.704 74.347 130.704Z"
             fill="#E6F1F1" />
          <path
             id="Vector_25"
             d="M85.8456 47.8C95.1311 50.1523 102.289 57.2059 102.289 67.1584V70.9633C102.289 82.3376 93.0683 88.5714 81.6941 88.5714H66.8027C55.4285 88.5714 46.208 82.6353 46.208 71.261V67.9766C46.208 60.2284 50.488 53.479 56.8112 49.9635C56.8112 49.9635 64.9011 45.3078 74.5233 43.2662C80.6822 41.9599 75.0553 44.9531 75.9532 45.9943C76.8903 47.0809 80.4577 43.6891 80.9881 45.5973C81.5021 47.447 84.0252 47.338 85.8456 47.8Z"
             fill="#BECACA"
             stroke="black"
             stroke-width="0.976054"
             stroke-miterlimit="10" />
          <path
             id="Vector_26"
             d="M55.6556 42.6932C51.2227 35.8169 42.0543 33.8355 35.178 38.2684C35.178 38.2684 38.9732 37.6323 41.7729 39.848C41.7729 39.848 34.6574 40.5475 32.092 47.196C32.092 47.196 36.0581 43.5797 39.323 44.0466C39.323 44.0466 32.0432 47.6287 32.092 54.7767C32.092 54.7767 34.3077 52.0942 39.7899 51.2775C39.7899 51.2775 36.9902 57.495 39.5572 62.3769C39.5572 62.3769 40.4389 58.6825 42.2723 58.3621"
             stroke="black"
             stroke-width="0.976054"
             stroke-miterlimit="10"
             stroke-linecap="round"
             stroke-linejoin="round" />
          <path
             id="Vector_27"
             d="M90.9707 49.4037C90.9707 41.2212 97.603 34.5889 105.786 34.5889C105.786 34.5889 100.632 37.8245 100.23 40.4745C100.23 40.4745 108.424 38.4378 115.069 42.939C115.069 42.939 106.448 43.4335 104.372 44.3575C104.372 44.3575 114.782 45.7419 116.782 51.4469C116.782 51.4469 112.255 49.2085 108.2 49.4021C108.2 49.4021 111.85 54.7964 110.926 58.3607C110.926 58.3607 107.681 55.8034 104.372 55.1657"
             stroke="black"
             stroke-width="0.976054"
             stroke-miterlimit="10"
             stroke-linecap="round"
             stroke-linejoin="round" />
          <g
             id="Group_6">
            <path
               id="Vector_28"
               d="M80.0156 71.4657C79.8383 68.4123 75.6331 61.3538 73.8876 61.4547C72.1421 61.5555 68.7796 69.0516 68.9569 72.1051C69.1343 75.1585 71.7533 77.4912 74.8068 77.3139C77.8618 77.1382 80.1929 74.5208 80.0156 71.4657Z"
               fill="black" />
            <path
               id="Vector_29"
               d="M50.7314 62.3772C50.7314 62.3772 54.1362 59.4718 59.8917 61.175"
               stroke="black"
               stroke-width="1.62676"
               stroke-miterlimit="10"
               stroke-linecap="round"
               stroke-linejoin="round" />
            <path
               id="Vector_30"
               d="M95.5665 62.758C95.5665 62.758 92.1617 59.8526 86.4062 61.5559"
               stroke="black"
               stroke-width="1.62676"
               stroke-miterlimit="10"
               stroke-linecap="round"
               stroke-linejoin="round" />
            <path
               id="Vector_31"
               d="M53.8611 78.8271C56.171 78.8271 58.0435 78.1694 58.0435 77.3581C58.0435 76.5468 56.171 75.8892 53.8611 75.8892C51.5512 75.8892 49.6787 76.5468 49.6787 77.3581C49.6787 78.1694 51.5512 78.8271 53.8611 78.8271Z"
               fill="#FF9294" />
            <path
               id="Vector_32"
               d="M94.6824 78.8271C96.9923 78.8271 98.8648 78.1694 98.8648 77.3581C98.8648 76.5468 96.9923 75.8892 94.6824 75.8892C92.3725 75.8892 90.5 76.5468 90.5 77.3581C90.5 78.1694 92.3725 78.8271 94.6824 78.8271Z"
               fill="#FF9294" />
            <g
               id="Group_7">
              <path
                 id="Vector_33"
                 d="M58.1384 75.1099C60.8059 75.1099 62.9683 72.9475 62.9683 70.28C62.9683 67.6126 60.8059 65.4502 58.1384 65.4502C55.471 65.4502 53.3086 67.6126 53.3086 70.28C53.3086 72.9475 55.471 75.1099 58.1384 75.1099Z"
                 fill="white"
                 stroke="black"
                 stroke-width="0.976054"
                 stroke-miterlimit="10" />
              <path
                 id="Vector_34"
                 d="M59.1585 73.4523C60.9104 73.4523 62.3307 72.032 62.3307 70.2801C62.3307 68.5281 60.9104 67.1079 59.1585 67.1079C57.4066 67.1079 55.9863 68.5281 55.9863 70.2801C55.9863 72.032 57.4066 73.4523 59.1585 73.4523Z"
                 fill="black" />
            </g>
            <g
               id="Group_8">
              <path
                 id="Vector_35"
                 d="M89.7107 75.1099C92.3781 75.1099 94.5405 72.9475 94.5405 70.28C94.5405 67.6126 92.3781 65.4502 89.7107 65.4502C87.0433 65.4502 84.8809 67.6126 84.8809 70.28C84.8809 72.9475 87.0433 75.1099 89.7107 75.1099Z"
                 fill="white"
                 stroke="black"
                 stroke-width="0.976054"
                 stroke-miterlimit="10" />
              <path
                 id="Vector_36"
                 d="M88.7796 73.4523C90.5315 73.4523 91.9518 72.032 91.9518 70.2801C91.9518 68.5281 90.5315 67.1079 88.7796 67.1079C87.0277 67.1079 85.6074 68.5281 85.6074 70.2801C85.6074 72.032 87.0277 73.4523 88.7796 73.4523Z"
                 fill="black" />
            </g>
          </g>
          <path
             id="Vector_37"
             d="M82.375 80.6987C82.375 80.6987 74.4272 83.6474 66.4795 80.6987"
             stroke="black"
             stroke-width="1.38663"
             stroke-miterlimit="10"
             stroke-linecap="round"
             stroke-linejoin="round" />
        </g>
        <g
           id="Group 403">
          <circle
             id="Ellipse 40"
             cx="87.0644"
             cy="7.89994"
             r="2.34184"
             transform="rotate(90 87.0644 7.89994)"
             fill="#00D2C2"
             stroke="black"
             stroke-width="0.97465" />
          <circle
             id="Ellipse 41"
             cx="81.0146"
             cy="21.3653"
             r="2.34184"
             transform="rotate(90 81.0146 21.3653)"
             fill="#00D2C2"
             stroke="black"
             stroke-width="0.97465" />
          <circle
             id="Ellipse 42"
             cx="73.7939"
             cy="11.8028"
             r="2.34184"
             transform="rotate(90 73.7939 11.8028)"
             fill="#FF9294"
             stroke="black"
             stroke-width="0.97465" />
          <circle
             id="Ellipse 47"
             cx="71.4521"
             cy="21.9507"
             r="2.34184"
             transform="rotate(90 71.4521 21.9507)"
             fill="#D0D78B"
             stroke="black"
             stroke-width="0.97465" />
          <circle
             id="Ellipse 48"
             cx="92.5283"
             cy="12.5835"
             r="2.34184"
             transform="rotate(90 92.5283 12.5835)"
             fill="#D0D78B"
             stroke="black"
             stroke-width="0.97465" />
          <circle
             id="Ellipse 49"
             cx="54.2783"
             cy="26.0494"
             r="2.34184"
             transform="rotate(90 54.2783 26.0494)"
             fill="#FF9294"
             stroke="black"
             stroke-width="0.97465" />
          <circle
             id="Ellipse 43"
             cx="94.0898"
             cy="22.7315"
             r="2.34184"
             transform="rotate(90 94.0898 22.7315)"
             fill="#FF9294"
             stroke="black"
             stroke-width="0.97465" />
          <circle
             id="Ellipse 44"
             cx="72.623"
             cy="30.733"
             r="2.34184"
             transform="rotate(90 72.623 30.733)"
             fill="#00D2C2"
             stroke="black"
             stroke-width="0.97465" />
          <circle
             id="Ellipse 45"
             cx="64.2324"
             cy="19.6089"
             r="2.34184"
             transform="rotate(90 64.2324 19.6089)"
             fill="#00D2C2"
             stroke="black"
             stroke-width="0.97465" />
          <circle
             id="Ellipse 46"
             cx="60.5234"
             cy="7.11918"
             r="2.34184"
             transform="rotate(90 60.5234 7.11918)"
             fill="#D0D78B"
             stroke="black"
             stroke-width="0.97465" />
          <line
             id="Line 4"
             x1="88.95"
             y1="9.09871"
             x2="90.9016"
             y2="10.8551"
             stroke="black"
             stroke-width="0.974651" />
          <line
             id="Line 5"
             x1="93.0111"
             y1="14.8587"
             x2="93.7917"
             y2="20.5181"
             stroke="black"
             stroke-width="0.97465" />
          <line
             id="Line 6"
             x1="86.1447"
             y1="10.0464"
             x2="82.0465"
             y2="19.4138"
             stroke="black"
             stroke-width="0.974651" />
          <line
             id="Line 7"
             x1="75.3641"
             y1="13.4749"
             x2="79.4623"
             y2="19.3295"
             stroke="black"
             stroke-width="0.97465" />
          <line
             id="Line 8"
             x1="73.7939"
             y1="21.4634"
             x2="78.6728"
             y2="21.4633"
             stroke="black"
             stroke-width="0.97465" />
          <line
             id="Line 9"
             x1="71.3639"
             y1="19.5133"
             x2="72.5349"
             y2="13.6587"
             stroke="black"
             stroke-width="0.974651" />
          <line
             id="Line 10"
             x1="71.9453"
             y1="28.46"
             x2="71.3598"
             y2="24.3618"
             stroke="black"
             stroke-width="0.97465" />
          <line
             id="Line 11"
             x1="68.967"
             y1="21.831"
             x2="66.43"
             y2="21.0504"
             stroke="black"
             stroke-width="0.974651" />
          <line
             id="Line 13"
             x1="62.9803"
             y1="17.3963"
             x2="60.8336"
             y2="9.59018"
             stroke="black"
             stroke-width="0.97465" />
          <line
             id="Line 12"
             x1="70.1536"
             y1="30.6178"
             x2="56.4929"
             y2="26.9099"
             stroke="black"
             stroke-width="0.974651" />
        </g>
        <g
           id="Group 406">
          <g
             id="Group 404">
            <path
               id="Vector 20"
               d="M43.9941 76.4632L46.4661 75.4038"
               stroke="black"
               stroke-width="0.97465" />
            <path
               id="Vector 22"
               d="M104.379 76.4632L101.907 75.4038"
               stroke="black"
               stroke-width="0.97465" />
            <path
               id="Vector 21"
               d="M44.1707 55.9447L48.7615 58.4534"
               stroke="black"
               stroke-width="0.97465" />
            <path
               id="Vector 23"
               d="M104.204 55.9447L99.6135 58.4534"
               stroke="black"
               stroke-width="0.97465" />
          </g>
          <g
             id="Group 405">
            <g
               id="Subtract">
              <mask
                 id="path-66-inside-1_3723_47933"
                 fill="white">
                <path
                   fill-rule="evenodd"
                   clip-rule="evenodd"
                   d="M48.4109 53.5098C45.2904 53.5098 42.7607 56.0394 42.7607 59.1599V73.2853C42.7607 76.4058 45.2904 78.9354 48.4109 78.9354H62.8303C63.6573 76.2758 66.138 74.3447 69.0698 74.3447H80.0169C82.9487 74.3447 85.4294 76.2758 86.2564 78.9354H100.322C103.442 78.9354 105.972 76.4058 105.972 73.2853V59.1599C105.972 56.0394 103.442 53.5098 100.322 53.5098H48.4109Z"
                   id="path80" />
              </mask>
              <path
                 fill-rule="evenodd"
                 clip-rule="evenodd"
                 d="M48.4109 53.5098C45.2904 53.5098 42.7607 56.0394 42.7607 59.1599V73.2853C42.7607 76.4058 45.2904 78.9354 48.4109 78.9354H62.8303C63.6573 76.2758 66.138 74.3447 69.0698 74.3447H80.0169C82.9487 74.3447 85.4294 76.2758 86.2564 78.9354H100.322C103.442 78.9354 105.972 76.4058 105.972 73.2853V59.1599C105.972 56.0394 103.442 53.5098 100.322 53.5098H48.4109Z"
                 fill="url(#paint0_linear_3723_47933)"
                 id="path83" />
              <path
                 d="M62.8303 78.9354V79.9101H63.548L63.761 79.2248L62.8303 78.9354ZM86.2564 78.9354L85.3257 79.2248L85.5387 79.9101H86.2564V78.9354ZM43.7354 59.1599C43.7354 56.5777 45.8287 54.4844 48.4109 54.4844V52.5351C44.7521 52.5351 41.7861 55.5011 41.7861 59.1599H43.7354ZM43.7354 73.2853V59.1599H41.7861V73.2853H43.7354ZM48.4109 77.9608C45.8287 77.9608 43.7354 75.8675 43.7354 73.2853H41.7861C41.7861 76.9441 44.7521 79.9101 48.4109 79.9101V77.9608ZM62.8303 77.9608H48.4109V79.9101H62.8303V77.9608ZM63.761 79.2248C64.4649 76.9611 66.5769 75.3193 69.0698 75.3193V73.37C65.6992 73.37 62.8498 75.5905 61.8997 78.646L63.761 79.2248ZM69.0698 75.3193H80.0169V73.37H69.0698V75.3193ZM80.0169 75.3193C82.5098 75.3193 84.6218 76.9611 85.3257 79.2248L87.1871 78.646C86.2369 75.5905 83.3875 73.37 80.0169 73.37V75.3193ZM100.322 77.9608H86.2564V79.9101H100.322V77.9608ZM104.997 73.2853C104.997 75.8675 102.904 77.9608 100.322 77.9608V79.9101C103.98 79.9101 106.946 76.9441 106.946 73.2853H104.997ZM104.997 59.1599V73.2853H106.946V59.1599H104.997ZM100.322 54.4844C102.904 54.4844 104.997 56.5777 104.997 59.1599H106.946C106.946 55.5011 103.98 52.5351 100.322 52.5351V54.4844ZM48.4109 54.4844H100.322V52.5351H48.4109V54.4844Z"
                 fill="black"
                 mask="url(#path-66-inside-1_3723_47933)"
                 id="path85" />
            </g>
            <g
               id="Subtract_2">
              <mask
                 id="path-68-inside-2_3723_47933"
                 fill="white">
                <path
                   fill-rule="evenodd"
                   clip-rule="evenodd"
                   d="M50.5261 55.6284C47.4056 55.6284 44.876 58.1581 44.876 61.2786V71.1663C44.876 74.2868 47.4056 76.8165 50.5261 76.8165H61.7076C62.3885 74.5685 64.4766 72.9321 66.9469 72.9321H82.1317C84.602 72.9321 86.69 74.5685 87.371 76.8165H98.1992C101.32 76.8165 103.849 74.2868 103.849 71.1663V61.2786C103.849 58.1581 101.32 55.6284 98.1992 55.6284H50.5261Z"
                   id="path88" />
              </mask>
              <path
                 d="M61.7076 76.8165V77.7911H62.4307L62.6404 77.099L61.7076 76.8165ZM87.371 76.8165L86.4382 77.099L86.6478 77.7911H87.371V76.8165ZM45.8506 61.2786C45.8506 58.6964 47.9439 56.6031 50.5261 56.6031V54.6538C46.8673 54.6538 43.9013 57.6198 43.9013 61.2786H45.8506ZM45.8506 71.1663V61.2786H43.9013V71.1663H45.8506ZM50.5261 75.8418C47.9439 75.8418 45.8506 73.7485 45.8506 71.1663H43.9013C43.9013 74.8251 46.8673 77.7911 50.5261 77.7911V75.8418ZM61.7076 75.8418H50.5261V77.7911H61.7076V75.8418ZM62.6404 77.099C63.2003 75.2506 64.9179 73.9067 66.9469 73.9067V71.9574C64.0353 71.9574 61.5767 73.8864 60.7748 76.5339L62.6404 77.099ZM66.9469 73.9067H82.1317V71.9574H66.9469V73.9067ZM82.1317 73.9067C84.1606 73.9067 85.8783 75.2506 86.4382 77.099L88.3038 76.5339C87.5018 73.8864 85.0433 71.9574 82.1317 71.9574V73.9067ZM98.1992 75.8418H87.371V77.7911H98.1992V75.8418ZM102.875 71.1663C102.875 73.7485 100.781 75.8418 98.1992 75.8418V77.7911C101.858 77.7911 104.824 74.8251 104.824 71.1663H102.875ZM102.875 61.2786V71.1663H104.824V61.2786H102.875ZM98.1992 56.6031C100.781 56.6031 102.875 58.6964 102.875 61.2786H104.824C104.824 57.6198 101.858 54.6538 98.1992 54.6538V56.6031ZM50.5261 56.6031H98.1992V54.6538H50.5261V56.6031Z"
                 fill="white"
                 mask="url(#path-68-inside-2_3723_47933)"
                 id="path91" />
            </g>
          </g>
        </g>
        <g
           id="Group 407">
          <path
             id="Vector 24"
             d="M50.1709 143.382C50.1709 110.753 55.2325 96.1213 57.7633 92.8843L73.6543 104.361L76.656 143.382H50.1709Z"
             fill="white"
             stroke="black"
             stroke-width="0.97465" />
          <path
             id="Vector 25"
             d="M98.5498 143.382C98.5498 110.753 93.4882 96.1213 90.9574 92.8843L73.4773 104.538L75.9492 143.382H98.5498Z"
             fill="white"
             stroke="black"
             stroke-width="0.97465" />
        </g>
        <path
           id="Vector 26"
           d="M63.4136 89.353L59.3525 94.4735L74.5373 112.66L89.5455 93.7672L85.4845 89.353C75.738 93.0256 66.7095 90.8833 63.4136 89.353Z"
           fill="#297E88"
           stroke="black"
           stroke-width="0.97465" />
        <path
           id="Rectangle 638"
           d="M120.926 102.784L110.976 91.2023L120.057 83.4004C122.22 81.5423 125.479 81.7893 127.337 83.9521L130.559 87.7021C132.417 89.8648 132.17 93.1244 130.007 94.9825L120.926 102.784Z"
           fill="#727F7F"
           stroke="black"
           stroke-width="0.97465" />
        <path
           id="Rectangle 667"
           d="M26.1281 106.744L35.0606 94.3593L25.3505 87.3555C23.0379 85.6875 19.811 86.21 18.143 88.5226L15.2509 92.5323C13.5829 94.8448 14.1054 98.0717 16.4179 99.7397L26.1281 106.744Z"
           fill="#727F7F"
           stroke="black"
           stroke-width="0.97465" />
        <path
           id="Vector 27"
           d="M52.2891 155.063C53.2896 154.769 55.891 154.569 58.2923 156.123"
           stroke="black"
           stroke-width="0.97465"
           stroke-linecap="round" />
        <path
           id="Vector 29"
           d="M97.1377 155.063C96.1371 154.769 93.5357 154.569 91.1344 156.123"
           stroke="black"
           stroke-width="0.97465"
           stroke-linecap="round" />
        <path
           id="Vector 28"
           d="M54.7627 153.651C55.7632 153.356 58.3647 153.156 60.766 154.71"
           stroke="black"
           stroke-width="0.97465"
           stroke-linecap="round" />
        <path
           id="Vector 30"
           d="M94.665 153.651C93.6645 153.356 91.0631 153.156 88.6618 154.71"
           stroke="black"
           stroke-width="0.97465"
           stroke-linecap="round" />
        <path
           id="Rectangle 670"
           d="M53.8369 129.921H66.6345V132.831H53.8369V129.921Z"
           fill="white"
           stroke="black"
           stroke-width="0.97465" />
        <path
           id="Rectangle 672"
           d="M50.8762 126.651L51.6816 116.502H55.6561L55.0117 126.651H50.8762Z"
           fill="white"
           stroke="black"
           stroke-width="0.97465" />
        <path
           id="Rectangle 671"
           d="M82.0869 129.921H94.8845V132.831H82.0869V129.921Z"
           fill="white"
           stroke="black"
           stroke-width="0.97465" />
        <g
           id="Group 408">
          <ellipse
             id="Ellipse 50"
             cx="74.3613"
             cy="105.95"
             rx="5.82672"
             ry="1.88511"
             transform="rotate(30 74.3613 105.95)"
             stroke="#FAD580"
             stroke-width="0.353134" />
          <ellipse
             id="Ellipse 53"
             cx="74.362"
             cy="105.95"
             rx="5.82671"
             ry="1.88511"
             transform="rotate(90 74.362 105.95)"
             stroke="#FAD580"
             stroke-width="0.353134" />
          <ellipse
             id="Ellipse 51"
             cx="74.3619"
             cy="105.95"
             rx="5.82672"
             ry="1.88511"
             transform="rotate(150 74.3619 105.95)"
             stroke="#FAD580"
             stroke-width="0.353134" />
        </g>
        <path
           id="Rectangle 661"
           d="M50.5436 96.4281L55.7402 86.7045L74.2037 112.583L55.7349 101.062L58.3601 95.4954L50.5436 96.4281Z"
           fill="white"
           stroke="black"
           stroke-width="0.97465" />
        <path
           id="Rectangle 666"
           d="M97.8451 96.4281L92.6485 86.7045L74.1849 112.583L92.6538 101.062L90.0285 95.4954L97.8451 96.4281Z"
           fill="white"
           stroke="black"
           stroke-width="0.97465" />
        <g
           id="Group 409">
          <rect
             id="Rectangle 673"
             x="84.4248"
             y="106.127"
             width="2.11881"
             height="7.76895"
             fill="#FF6669"
             stroke="black"
             stroke-width="0.97465" />
          <rect
             id="Rectangle 674"
             x="86.5439"
             y="107.187"
             width="2.11881"
             height="6.70955"
             fill="#AF654A"
             stroke="black"
             stroke-width="0.97465" />
          <rect
             id="Rectangle 675"
             x="88.6631"
             y="104.361"
             width="2.11881"
             height="9.53462"
             fill="#297E88"
             stroke="black"
             stroke-width="0.97465" />
        </g>
        <path
           id="Rectangle 669"
           d="M81.7334 110.499H92.7653V120.958C92.7653 121.664 92.193 122.237 91.487 122.237H83.0118C82.3058 122.237 81.7334 121.664 81.7334 120.958V110.499Z"
           fill="white"
           stroke="black"
           stroke-width="0.97465" />
        <path
           id="Vector 31"
           d="M61.8232 91.9559C66.1197 93.9941 77.2905 96.7153 87.602 91.2949"
           stroke="black"
           stroke-width="0.97465"
           stroke-linecap="round" />
        <g
           id="Group 411">
          <circle
             id="Ellipse 58"
             cx="121.282"
             cy="80.7012"
             r="3.17821"
             fill="#2FF7EE" />
          <circle
             id="Ellipse 59"
             cx="117.221"
             cy="73.4618"
             r="1.94224"
             fill="#2FF7EE" />
          <circle
             id="Ellipse 69"
             cx="122.518"
             cy="91.8246"
             r="1.94224"
             fill="#2FF7EE" />
          <g
             id="Union_2">
            <mask
               id="path-95-inside-3_3723_47933"
               fill="white">
              <path
                 fill-rule="evenodd"
                 clip-rule="evenodd"
                 d="M115.728 80.3521C114.794 80.3521 114.038 81.1087 114.038 82.0421C114.038 82.9755 114.794 83.7321 115.728 83.7321H116.741V95.4476L106.941 112.421C105.174 115.482 107.383 119.308 110.917 119.308H131.019C134.553 119.308 136.762 115.482 134.995 112.421L125.191 95.4412V83.7321H126.206C127.139 83.7321 127.896 82.9755 127.896 82.0421C127.896 81.1087 127.139 80.3521 126.206 80.3521H115.728Z"
                 id="path124" />
            </mask>
            <path
               fill-rule="evenodd"
               clip-rule="evenodd"
               d="M115.728 80.3521C114.794 80.3521 114.038 81.1087 114.038 82.0421C114.038 82.9755 114.794 83.7321 115.728 83.7321H116.741V95.4476L106.941 112.421C105.174 115.482 107.383 119.308 110.917 119.308H131.019C134.553 119.308 136.762 115.482 134.995 112.421L125.191 95.4412V83.7321H126.206C127.139 83.7321 127.896 82.9755 127.896 82.0421C127.896 81.1087 127.139 80.3521 126.206 80.3521H115.728Z"
               fill="url(#paint1_linear_3723_47933)"
               id="path127" />
            <path
               d="M116.741 83.7321H117.716V82.7575H116.741V83.7321ZM116.741 95.4476L117.585 95.9349L117.716 95.7088V95.4476H116.741ZM106.941 112.421L106.097 111.934H106.097L106.941 112.421ZM134.995 112.421L134.151 112.909L134.995 112.421ZM125.191 95.4412H124.217V95.7023L124.347 95.9285L125.191 95.4412ZM125.191 83.7321V82.7575H124.217V83.7321H125.191ZM115.012 82.0421C115.012 81.647 115.333 81.3267 115.728 81.3267V79.3774C114.256 79.3774 113.063 80.5704 113.063 82.0421H115.012ZM115.728 82.7575C115.333 82.7575 115.012 82.4372 115.012 82.0421H113.063C113.063 83.5138 114.256 84.7068 115.728 84.7068V82.7575ZM116.741 82.7575H115.728V84.7068H116.741V82.7575ZM115.766 83.7321V95.4476H117.716V83.7321H115.766ZM115.897 94.9603L106.097 111.934L107.785 112.909L117.585 95.9349L115.897 94.9603ZM106.097 111.934C103.955 115.644 106.633 120.282 110.917 120.282V118.333C108.133 118.333 106.393 115.319 107.785 112.909L106.097 111.934ZM110.917 120.282H131.019V118.333H110.917V120.282ZM131.019 120.282C135.303 120.282 137.981 115.644 135.839 111.934L134.151 112.909C135.543 115.319 133.803 118.333 131.019 118.333V120.282ZM135.839 111.934L126.035 94.9538L124.347 95.9285L134.151 112.909L135.839 111.934ZM126.166 95.4412V83.7321H124.217V95.4412H126.166ZM126.206 82.7575H125.191V84.7068H126.206V82.7575ZM126.921 82.0421C126.921 82.4372 126.601 82.7575 126.206 82.7575V84.7068C127.678 84.7068 128.871 83.5138 128.871 82.0421H126.921ZM126.206 81.3267C126.601 81.3267 126.921 81.647 126.921 82.0421H128.871C128.871 80.5704 127.678 79.3774 126.206 79.3774V81.3267ZM115.728 81.3267H126.206V79.3774H115.728V81.3267Z"
               fill="black"
               mask="url(#path-95-inside-3_3723_47933)"
               id="path129" />
          </g>
          <path
             id="Subtract_3"
             fill-rule="evenodd"
             clip-rule="evenodd"
             d="M111.405 109.421L109.51 112.704C108.422 114.587 109.781 116.942 111.956 116.942H129.979C132.153 116.942 133.513 114.587 132.425 112.704L130.53 109.421H111.405Z"
             fill="#2FF7EE" />
          <circle
             id="Ellipse 56"
             cx="124.637"
             cy="108.775"
             r="3.00164"
             fill="#2FF7EE" />
          <circle
             id="Ellipse 68"
             cx="115.455"
             cy="111.247"
             r="3.00164"
             fill="#2FF7EE" />
          <circle
             id="Ellipse 57"
             cx="118.457"
             cy="102.949"
             r="2.82507"
             fill="#2FF7EE" />
        </g>
        <g
           id="Group 410">
          <circle
             id="Ellipse 66"
             cx="31.3015"
             cy="103.016"
             r="2.11881"
             transform="rotate(-11.0304 31.3015 103.016)"
             fill="#FF6669" />
          <circle
             id="Ellipse 62"
             cx="22.4379"
             cy="102.765"
             r="1.23597"
             transform="rotate(-11.0304 22.4379 102.765)"
             fill="#FF6669" />
          <circle
             id="Ellipse 63"
             cx="25.3315"
             cy="91.7677"
             r="1.23597"
             transform="rotate(-11.0304 25.3315 91.7677)"
             fill="#FF6669" />
          <circle
             id="Ellipse 64"
             cx="19.4994"
             cy="80.3121"
             r="1.23597"
             transform="rotate(-11.0304 19.4994 80.3121)"
             fill="#FF6669" />
          <circle
             id="Ellipse 65"
             cx="23.9291"
             cy="80.8878"
             r="1.23597"
             transform="rotate(-11.0304 23.9291 80.8878)"
             fill="#FF6669" />
          <g
             id="Union_3">
            <mask
               id="path-106-inside-4_3723_47933"
               fill="white">
              <path
                 fill-rule="evenodd"
                 clip-rule="evenodd"
                 d="M15.9723 86.8631C15.7937 85.947 16.3916 85.0596 17.3077 84.881L27.5924 82.8762C28.5085 82.6976 29.396 83.2955 29.5746 84.2116C29.7532 85.1278 29.1552 86.0152 28.2391 86.1938L27.2439 86.3878L28.9761 95.2737C34.8782 95.8899 39.9398 100.281 41.1343 106.409C42.5987 113.921 37.6958 121.198 30.1835 122.663C22.6712 124.127 15.3941 119.224 13.9297 111.712C12.7592 105.707 15.6565 99.853 20.7028 96.9971L18.9499 88.0046L17.9544 88.1986C17.0383 88.3772 16.1509 87.7793 15.9723 86.8631Z"
                 id="path142" />
            </mask>
            <path
               fill-rule="evenodd"
               clip-rule="evenodd"
               d="M15.9723 86.8631C15.7937 85.947 16.3916 85.0596 17.3077 84.881L27.5924 82.8762C28.5085 82.6976 29.396 83.2955 29.5746 84.2116C29.7532 85.1278 29.1552 86.0152 28.2391 86.1938L27.2439 86.3878L28.9761 95.2737C34.8782 95.8899 39.9398 100.281 41.1343 106.409C42.5987 113.921 37.6958 121.198 30.1835 122.663C22.6712 124.127 15.3941 119.224 13.9297 111.712C12.7592 105.707 15.6565 99.853 20.7028 96.9971L18.9499 88.0046L17.9544 88.1986C17.0383 88.3772 16.1509 87.7793 15.9723 86.8631Z"
               fill="url(#paint2_linear_3723_47933)"
               id="path145" />
            <path
               d="M17.3077 84.881L17.1213 83.9243L17.3077 84.881ZM27.5924 82.8762L27.7789 83.8328L27.5924 82.8762ZM28.2391 86.1938L28.4256 87.1504L28.2391 86.1938ZM27.2439 86.3878L27.0575 85.4311L26.1008 85.6176L26.2873 86.5743L27.2439 86.3878ZM28.9761 95.2737L28.0194 95.4602L28.1575 96.1682L28.8749 96.2431L28.9761 95.2737ZM20.7028 96.9971L21.1829 97.8453L21.7938 97.4996L21.6594 96.8106L20.7028 96.9971ZM18.9499 88.0046L19.9065 87.8181L19.72 86.8614L18.7634 87.0479L18.9499 88.0046ZM17.1213 83.9243C15.6768 84.2059 14.7341 85.6051 15.0156 87.0496L16.9289 86.6767C16.8533 86.2889 17.1064 85.9132 17.4942 85.8376L17.1213 83.9243ZM27.4059 81.9195L17.1213 83.9243L17.4942 85.8376L27.7789 83.8328L27.4059 81.9195ZM30.5312 84.0251C30.2496 82.5807 28.8504 81.6379 27.4059 81.9195L27.7789 83.8328C28.1667 83.7572 28.5423 84.0103 28.6179 84.3981L30.5312 84.0251ZM28.4256 87.1504C29.8701 86.8689 30.8128 85.4696 30.5312 84.0251L28.6179 84.3981C28.6935 84.7859 28.4404 85.1616 28.0526 85.2372L28.4256 87.1504ZM27.4304 87.3444L28.4256 87.1504L28.0526 85.2372L27.0575 85.4311L27.4304 87.3444ZM29.9327 95.0872L28.2006 86.2013L26.2873 86.5743L28.0194 95.4602L29.9327 95.0872ZM28.8749 96.2431C34.3628 96.816 39.0675 100.9 40.1776 106.595L42.0909 106.222C40.8122 99.6624 35.3937 94.9637 29.0773 94.3043L28.8749 96.2431ZM40.1776 106.595C41.539 113.579 36.981 120.345 29.997 121.706L30.37 123.619C38.4107 122.052 43.6583 114.263 42.0909 106.222L40.1776 106.595ZM29.997 121.706C23.013 123.067 16.2477 118.509 14.8863 111.525L12.9731 111.898C14.5404 119.939 22.3293 125.187 30.37 123.619L29.997 121.706ZM14.8863 111.525C13.7985 105.945 16.4905 100.501 21.1829 97.8453L20.2228 96.1489C14.8226 99.2051 11.72 105.47 12.9731 111.898L14.8863 111.525ZM17.9932 88.191L19.7462 97.1836L21.6594 96.8106L19.9065 87.8181L17.9932 88.191ZM18.1409 89.1552L19.1363 88.9612L18.7634 87.0479L17.768 87.242L18.1409 89.1552ZM15.0156 87.0496C15.2972 88.4941 16.6964 89.4368 18.1409 89.1552L17.768 87.242C17.3802 87.3176 17.0045 87.0645 16.9289 86.6767L15.0156 87.0496Z"
               fill="black"
               mask="url(#path-106-inside-4_3723_47933)"
               id="path147" />
          </g>
          <path
             id="Subtract_4"
             fill-rule="evenodd"
             clip-rule="evenodd"
             d="M16.8877 112.398C18.56 117.754 24.0308 121.107 29.666 120.009C33.8244 119.198 36.9894 116.175 38.1771 112.398L16.8877 112.398Z"
             fill="#FF6669" />
          <circle
             id="Ellipse 60"
             cx="22.457"
             cy="113.016"
             r="2.82507"
             transform="rotate(-11.0304 22.457 113.016)"
             fill="#FF6669" />
          <circle
             id="Ellipse 67"
             cx="32.6366"
             cy="113.55"
             r="2.82507"
             transform="rotate(-11.0304 32.6366 113.55)"
             fill="#FF6669" />
          <circle
             id="Ellipse 61"
             cx="28.2233"
             cy="109.373"
             r="2.11881"
             transform="rotate(-11.0304 28.2233 109.373)"
             fill="#FF6669" />
        </g>
        <rect
           id="Rectangle 668"
           x="-0.0688961"
           y="-0.68573"
           width="6.54469"
           height="6.12433"
           rx="0.572078"
           transform="matrix(0.632877 -0.774253 -0.774253 -0.632877 28.9975 95.9749)"
           fill="#727F7F"
           stroke="black"
           stroke-width="0.97465" />
        <rect
           id="Rectangle 640"
           x="116.712"
           y="92.8246"
           width="6.54469"
           height="6.12433"
           rx="0.572078"
           transform="rotate(-134.127 116.712 92.8246)"
           fill="#727F7F"
           stroke="black"
           stroke-width="0.97465" />
      </g>
    </g>
  </g>
  <defs
     id="defs175">
    <linearGradient
       id="paint0_linear_3723_47933"
       x1="42.7607"
       y1="55.2754"
       x2="103.323"
       y2="78.9354"
       gradientUnits="userSpaceOnUse">
      <stop
         stop-color="white"
         id="stop160" />
      <stop
         offset="1"
         stop-color="white"
         stop-opacity="0"
         id="stop162" />
    </linearGradient>
    <linearGradient
       id="paint1_linear_3723_47933"
       x1="114.776"
       y1="80.3521"
       x2="133.649"
       y2="119.079"
       gradientUnits="userSpaceOnUse">
      <stop
         stop-color="white"
         id="stop165" />
      <stop
         offset="1"
         stop-color="white"
         stop-opacity="0"
         id="stop167" />
    </linearGradient>
    <linearGradient
       id="paint2_linear_3723_47933"
       x1="17.1428"
       y1="84.9131"
       x2="36.7625"
       y2="119.314"
       gradientUnits="userSpaceOnUse">
      <stop
         stop-color="white"
         id="stop170" />
      <stop
         offset="1"
         stop-color="white"
         stop-opacity="0"
         id="stop172" />
    </linearGradient>
  </defs>
</svg>
