<svg width="152" height="209" viewBox="0 0 152 209" fill="none" xmlns="http://www.w3.org/2000/svg">
<rect x="29" y="166.195" width="93.1269" height="42.6832" fill="#FF9294"/>
<path d="M43.3979 154H108.648L122.127 166.195H29L43.3979 154Z" fill="#FFC2C4"/>
<path fill-rule="evenodd" clip-rule="evenodd" d="M75.0098 156.538C78.2751 155.337 83.6376 154.554 89.6992 154.554C99.649 154.554 107.715 156.664 107.715 159.266C107.715 161.868 99.649 163.978 89.6992 163.978C83.6376 163.978 78.2751 163.195 75.0098 161.994C71.7444 163.195 66.382 163.978 60.3203 163.978C50.3706 163.978 42.3047 161.868 42.3047 159.266C42.3047 156.664 50.3706 154.554 60.3203 154.554C66.382 154.554 71.7444 155.337 75.0098 156.538Z" fill="#FF9294"/>
<path d="M94.5906 191.538C94.5906 191.538 94.9322 192.444 95.573 192.444C96.2138 192.444 96.1639 192.47 96.5949 192.048C97.0259 191.624 96.9096 183.322 96.8971 182.924C96.8753 182.202 96.9677 181.101 95.9998 181.414C94.7609 181.716 94.7183 182.32 94.7183 182.665C94.7193 183.01 94.2915 190.545 94.5906 191.538Z" fill="#FFC2C4"/>
<path d="M71.4956 182.1C71.5382 182.301 71.4104 182.498 71.211 182.541C71.0116 182.584 70.8164 182.455 70.7738 182.254C70.7312 182.053 70.859 181.855 71.0584 181.812C71.2578 181.769 71.454 181.898 71.4956 182.1Z" fill="#FFC2C4"/>
<path d="M73.8315 181.259C73.8741 181.46 73.7464 181.657 73.547 181.7C73.3476 181.743 73.1523 181.614 73.1098 181.413C73.0672 181.211 73.1949 181.014 73.3943 180.971C73.5937 180.929 73.7889 181.057 73.8315 181.259Z" fill="#FFC2C4"/>
<path d="M70.2026 181.039C70.0167 181.328 69.7695 182.381 69.7695 182.381C69.7695 182.381 68.9522 182.078 68.8016 181.358C68.651 180.64 69.1205 179.836 69.8131 179.688C70.5069 179.54 71.0666 180.045 71.0666 180.045C71.0666 180.045 70.592 180.434 70.2026 181.039Z" fill="#FFC2C4"/>
<path d="M73.5974 179.815C73.9204 179.923 74.7657 180.589 74.7657 180.589C74.7657 180.589 75.2165 179.837 74.8893 179.181C74.5622 178.524 73.6992 178.194 73.0667 178.515C72.4332 178.837 72.3086 179.583 72.3086 179.583C72.3086 179.583 72.9182 179.589 73.5974 179.815Z" fill="#FFC2C4"/>
<path d="M73.1947 182.995C73.0244 182.352 72.502 182.149 72.502 182.149C72.4709 182.143 72.4449 182.148 72.4221 182.155C72.3992 182.16 72.3733 182.169 72.3494 182.19C72.3494 182.19 71.9973 182.63 72.1676 183.272C72.3307 183.889 72.6152 183.893 72.8665 183.83L72.8998 183.822C73.1438 183.75 73.3578 183.611 73.1947 182.995Z" fill="#FFC2C4"/>
<path d="M79.1727 187.104C79.3014 186.793 79.9328 186.007 80.2226 185.495C80.558 184.902 80.7522 183.891 79.9692 183.886C79.1862 183.881 78.588 183.708 78.2878 184.528C77.9887 185.348 78.0116 186.359 77.5837 186.143C77.1558 185.927 77.1091 183.271 77.2846 182.571C77.4539 181.895 77.1995 181.405 76.6864 181.405C76.1734 181.405 75.191 181.276 74.977 182.226C74.977 182.226 74.976 182.918 74.977 183.431C75.5171 183.518 75.9086 183.48 76.1422 183.48C76.6189 183.48 76.7186 183.96 76.7228 184.053C76.7269 184.145 76.7124 184.476 76.4652 184.625C76.2181 184.774 76.0623 184.871 75.2647 184.897C75.1712 184.9 75.0767 184.897 74.9833 184.891C74.9843 185.071 74.9864 185.259 74.9874 185.452C75.2948 185.501 75.569 185.527 75.7019 185.541C76.0623 185.577 76.1942 185.967 76.2066 186.162C76.2191 186.357 76.1329 186.556 75.8681 186.67C75.6832 186.749 75.4163 186.82 75.003 186.828C75.0362 188.982 75.112 191.196 75.2834 191.703C75.6188 192.703 76.944 192.531 76.944 192.531C76.944 192.531 77.7561 192.617 77.457 190.847C77.1579 189.078 77.3127 188.763 77.4279 188.553C77.5432 188.344 77.7987 188.549 77.97 188.943C78.1414 189.336 78.4405 191.365 78.4831 191.797C78.5257 192.229 79.7885 192.095 79.991 191.773C80.1925 191.452 80.4064 190.847 80.1499 189.639C79.8923 188.43 79.0169 187.604 79.1727 187.104Z" fill="#FFC2C4"/>
<path d="M83.5086 183.941C83.5086 183.941 80.8594 183.553 80.8594 188.43C80.8594 193.306 84.5347 192.228 84.5347 192.228C84.5347 192.228 86.4155 192.314 86.4155 188.128C86.4144 183.941 83.5086 183.941 83.5086 183.941ZM83.7091 190.004L83.6509 190.009C83.196 190.044 82.7038 189.954 82.5968 188.836C82.4857 187.67 83.2241 187.01 83.2241 187.01C83.2719 186.98 83.3186 186.973 83.3612 186.972C83.4027 186.965 83.4494 186.963 83.5024 186.984C83.5024 186.984 84.3509 187.49 84.462 188.655C84.5679 189.773 84.1577 189.952 83.7091 190.004Z" fill="#FFC2C4"/>
<path d="M93.14 185.583C93.1857 186.546 93.2242 187.54 93.2563 188.564C93.2719 189.058 93.2896 189.546 93.3093 190.027C93.3166 190.268 93.3342 190.497 93.3612 190.713C93.4267 191.145 93.4204 191.492 93.3436 191.753C93.2667 192.015 92.9936 192.138 92.5242 192.123C92.141 192.081 91.8876 191.945 91.7619 191.717C91.6363 191.489 91.5625 191.264 91.5407 191.041C91.522 190.927 91.4981 190.836 91.4701 190.767C91.442 190.699 91.3974 190.675 91.3361 190.695C91.2748 190.715 91.1814 190.794 91.0578 190.93C90.7286 191.278 90.3848 191.559 90.0255 191.772C89.6662 191.985 89.2747 192.06 88.8499 191.995C88.259 191.869 87.8342 191.534 87.5746 190.991C87.316 190.448 87.182 189.825 87.1727 189.123C87.1633 188.421 87.235 187.769 87.3866 187.167C87.6161 186.424 87.9578 185.777 88.4116 185.226C88.8655 184.676 89.4097 184.279 90.0432 184.04C90.6767 183.8 91.3777 183.77 92.1462 183.951C92.4733 184.048 92.7142 184.248 92.8679 184.548C93.0216 184.847 93.112 185.193 93.14 185.583ZM90.9477 186.15C90.5178 186.062 90.1574 186.164 89.8676 186.457C89.5779 186.749 89.3629 187.127 89.2227 187.589C89.0825 188.052 89.0202 188.492 89.0358 188.911C89.0514 189.329 89.1469 189.615 89.3214 189.766C89.5686 189.921 89.8656 189.842 90.2145 189.53C90.5635 189.217 90.8314 188.792 91.0204 188.256C91.17 187.77 91.2385 187.315 91.225 186.893C91.2125 186.47 91.1201 186.224 90.9477 186.15Z" fill="#FFC2C4"/>
<path d="M103.567 185.583C103.613 186.546 103.651 187.54 103.683 188.564C103.699 189.058 103.716 189.546 103.736 190.027C103.743 190.268 103.761 190.497 103.788 190.713C103.853 191.145 103.847 191.492 103.77 191.753C103.694 192.015 103.42 192.138 102.951 192.123C102.568 192.081 102.314 191.945 102.189 191.717C102.063 191.489 101.989 191.264 101.966 191.041C101.948 190.927 101.924 190.836 101.896 190.767C101.868 190.699 101.823 190.675 101.762 190.695C101.701 190.715 101.607 190.794 101.484 190.93C101.154 191.278 100.811 191.559 100.451 191.772C100.092 191.985 99.7004 192.06 99.2757 191.995C98.6848 191.869 98.26 191.534 98.0004 190.991C97.7418 190.448 97.6078 189.825 97.5985 189.123C97.5891 188.421 97.6608 187.769 97.8114 187.167C98.0409 186.424 98.3825 185.777 98.8364 185.226C99.2902 184.676 99.8344 184.279 100.468 184.04C101.101 183.8 101.802 183.77 102.571 183.951C102.898 184.048 103.139 184.248 103.293 184.548C103.448 184.847 103.539 185.193 103.567 185.583ZM101.375 186.15C100.945 186.062 100.584 186.164 100.294 186.457C100.005 186.749 99.7897 187.127 99.6495 187.589C99.5093 188.052 99.447 188.492 99.4626 188.911C99.4782 189.329 99.5737 189.615 99.7482 189.766C99.9954 189.921 100.292 189.842 100.641 189.53C100.99 189.217 101.258 188.792 101.448 188.256C101.598 187.77 101.666 187.315 101.653 186.893C101.639 186.47 101.547 186.224 101.375 186.15Z" fill="#FFC2C4"/>
<path d="M62.9974 191.538C62.9974 191.538 63.3391 192.444 63.9798 192.444C64.6206 192.444 64.5708 192.47 65.0018 192.048C65.4327 191.624 65.3164 183.322 65.304 182.924C65.2822 182.202 65.3746 181.101 64.4067 181.414C63.1677 181.716 63.1251 182.32 63.1251 182.665C63.1251 183.01 62.6973 190.545 62.9974 191.538Z" fill="#FFC2C4"/>
<path d="M50.0916 191.538C50.184 192.042 50.4333 192.444 51.074 192.444C51.5237 192.444 51.8135 192.334 52.0959 192.047C52.6464 191.237 52.2351 187.341 53.1293 187.346C54.0224 187.352 53.9372 188.603 53.9372 188.603C53.9372 188.603 54.1584 191.359 54.4077 191.711C54.6216 192.013 55.4763 192.142 55.7328 191.409C55.9894 190.674 55.6903 185.97 55.4763 185.323C55.2624 184.676 54.5365 183.899 53.9809 183.942C53.4252 183.985 53.041 184.934 52.6557 184.934C52.2714 184.934 52.314 184.287 52.3992 183.898C52.4843 183.509 52.7409 180.968 51.5019 181.27C50.2629 181.573 50.2193 182.177 50.2193 182.522C50.2193 182.868 49.9815 190.936 50.0916 191.538Z" fill="#FFC2C4"/>
<path d="M59.1493 183.941C59.1493 183.941 56.5 183.553 56.5 188.43C56.5 193.306 60.1753 192.228 60.1753 192.228C60.1753 192.228 62.0551 192.314 62.0551 188.128C62.0551 183.941 59.1493 183.941 59.1493 183.941ZM59.4577 190.004C59.4567 190.004 59.3996 190.009 59.3985 190.01C58.9447 190.045 58.4514 189.955 58.3455 188.836C58.2343 187.67 58.9727 187.01 58.9727 187.01C59.0205 186.98 59.0672 186.973 59.1088 186.972C59.1503 186.965 59.197 186.963 59.25 186.984C59.25 186.984 60.0985 187.49 60.2096 188.655C60.3166 189.773 59.9064 189.952 59.4577 190.004Z" fill="#FFC2C4"/>
<path d="M71.9291 185.738C71.9748 186.701 72.0132 187.695 72.0454 188.719C72.061 189.213 72.0786 189.701 72.0984 190.182C72.1056 190.424 72.1233 190.652 72.1503 190.868C72.2157 191.3 72.2095 191.648 72.1326 191.909C72.0558 192.17 71.7827 192.294 71.3132 192.278C70.93 192.236 70.6766 192.101 70.551 191.872C70.4253 191.644 70.3516 191.419 70.3298 191.197C70.3111 191.082 70.2872 190.991 70.2591 190.923C70.2311 190.855 70.1865 190.831 70.1252 190.85C70.0639 190.87 69.9704 190.949 69.8469 191.085C69.5176 191.434 69.1739 191.715 68.8146 191.928C68.4552 192.142 68.0637 192.215 67.639 192.15C67.048 192.024 66.6233 191.69 66.3637 191.146C66.1051 190.603 65.9711 189.98 65.9617 189.278C65.9524 188.576 66.0241 187.924 66.1757 187.322C66.4052 186.579 66.7469 185.932 67.2007 185.382C67.6545 184.831 68.1987 184.434 68.8322 184.194C69.4657 183.954 70.1667 183.925 70.9352 184.105C71.2624 184.204 71.5033 184.402 71.657 184.702C71.8107 185.002 71.9011 185.347 71.9291 185.738ZM69.7368 186.305C69.3068 186.216 68.9465 186.318 68.6567 186.61C68.367 186.902 68.152 187.28 68.0118 187.743C67.8716 188.205 67.8093 188.646 67.8249 189.064C67.8404 189.483 67.936 189.768 68.1104 189.919C68.3576 190.073 68.6546 189.996 69.0036 189.682C69.3525 189.369 69.6205 188.945 69.8095 188.409C69.959 187.922 70.0276 187.467 70.0141 187.045C70.0016 186.626 69.9092 186.378 69.7368 186.305Z" fill="#FFC2C4"/>
<rect x="55.4688" y="86.7046" width="37.0791" height="8.82836" fill="black"/>
<path d="M124.285 49.407C123.757 59.9971 115.69 68.6043 105.088 68.6043C94.4848 68.6043 85.8906 60.0085 85.8906 49.407C85.8906 38.8038 94.4864 30.2096 105.088 30.2096C105.088 30.2096 117.063 29.6321 124.622 41.7075C131.313 52.3986 124.381 47.4727 124.285 49.407Z" fill="#BECACA" stroke="black" stroke-width="0.976054" stroke-miterlimit="10"/>
<path d="M105.786 66.6115C113.328 66.6115 119.442 60.4972 119.442 52.9548C119.442 45.4125 113.328 39.2982 105.786 39.2982C98.2432 39.2982 92.1289 45.4125 92.1289 52.9548C92.1289 60.4972 98.2432 66.6115 105.786 66.6115Z" fill="#E6F1F1"/>
<path d="M24.2299 49.407C24.2299 60.0102 32.8257 68.6043 43.4273 68.6043C54.0305 68.6043 62.6246 60.0085 62.6246 49.407C62.6246 38.8038 54.0288 30.2096 43.4273 30.2096C43.4273 30.2096 32.9168 29.689 25.1507 37.9741C17.1503 46.5081 26.8604 39.2853 24.2885 42.9406C21.7166 46.5959 21.4465 48.1283 23.4523 47.4402C24.6333 47.0335 24.2299 49.407 24.2299 49.407Z" fill="#BECACA" stroke="black" stroke-width="0.976054" stroke-miterlimit="10"/>
<path d="M42.4379 66.6115C49.9802 66.6115 56.0945 60.4972 56.0945 52.9548C56.0945 45.4125 49.9802 39.2982 42.4379 39.2982C34.8955 39.2982 28.7812 45.4125 28.7812 52.9548C28.7812 60.4972 34.8955 66.6115 42.4379 66.6115Z" fill="#E6F1F1"/>
<path d="M51.586 114.779C62.8991 110.797 68.8846 98.3199 70.3085 96.4788C70.3097 96.4777 70.311 96.4767 70.3113 96.4744C70.3439 96.4318 70.3736 96.3935 70.3996 96.3582C70.4024 96.3539 70.4065 96.3486 70.4103 96.3455C70.4648 96.2729 70.5068 96.2186 70.5343 96.1801C70.5355 96.1791 70.5368 96.178 70.5358 96.1768C70.5493 96.1598 70.5602 96.1448 70.5671 96.1351C72.1014 94.0437 71.6448 91.0972 69.5534 89.563C67.4617 88.031 64.5142 88.4863 62.9825 90.5757C62.9812 90.5767 62.9771 90.582 62.9715 90.5907C62.9703 90.5917 62.9687 90.595 62.9662 90.597C62.9608 90.6034 62.9527 90.614 62.9458 90.6237C62.943 90.628 62.9392 90.631 62.9364 90.6353C62.9242 90.6513 62.9107 90.6683 62.8944 90.6896C62.8916 90.694 62.8878 90.697 62.885 90.7013C62.8712 90.7206 62.8527 90.7417 62.8361 90.7653C62.8308 90.7716 62.8267 90.7769 62.8214 90.7833C62.7766 90.8419 62.7213 90.9109 62.6567 90.9916C62.6488 91 62.6432 91.0086 62.6363 91.0183C62.6053 91.0576 62.5729 91.0979 62.5368 91.1413C62.5343 91.1434 62.5327 91.1467 62.5302 91.1487C62.4913 91.1964 62.4508 91.2474 62.4068 91.2992C62.4001 91.3065 62.3945 91.3152 62.3879 91.3225C62.349 91.3702 62.3088 91.4189 62.266 91.4697C62.2581 91.4781 62.2525 91.4867 62.2446 91.4951C62.1469 91.6126 62.0387 91.7404 61.9217 91.8754C61.9135 91.8861 61.9031 91.8965 61.895 91.9071C61.7764 92.0454 61.6476 92.1918 61.5109 92.3466C61.5018 92.356 61.4924 92.3677 61.4832 92.3771C61.4209 92.4476 61.356 92.5202 61.2885 92.5947C61.2806 92.6031 61.2715 92.6125 61.2646 92.6221C61.188 92.7061 61.1112 92.7924 61.0295 92.8804C61.0282 92.8814 61.0282 92.8814 61.0269 92.8825C60.9503 92.9664 60.8725 93.0514 60.7911 93.1372C60.7791 93.1509 60.7649 93.1643 60.7516 93.1791C60.5832 93.3592 60.4071 93.5454 60.2221 93.7387C60.2104 93.7501 60.1997 93.7628 60.188 93.7742C60.1015 93.8641 60.0124 93.9559 59.9221 94.0487C59.9142 94.0571 59.9063 94.0655 59.8984 94.0739C59.799 94.1761 59.6959 94.2791 59.5903 94.3841C59.5865 94.3872 59.5837 94.3915 59.5799 94.3945C59.4822 94.4912 59.383 94.5911 59.2815 94.6908C59.2659 94.7053 59.2514 94.721 59.2346 94.7365C59.0212 94.9463 58.7981 95.1596 58.5686 95.378C58.5518 95.3935 58.5363 95.408 58.5195 95.4234C58.4106 95.5269 58.2994 95.6302 58.187 95.7344C58.1794 95.7405 58.174 95.7468 58.1664 95.7529C58.0438 95.8653 57.9199 95.9787 57.7934 96.0941C57.7817 96.1055 57.7703 96.1146 57.7586 96.1261C57.6451 96.229 57.5306 96.3307 57.4136 96.4345C57.3956 96.451 57.3762 96.4685 57.3572 96.4837C57.1002 96.7094 56.8372 96.9379 56.5648 97.1677C56.5429 97.1872 56.52 97.2055 56.4971 97.2238C56.3692 97.3321 56.2389 97.4401 56.1087 97.5481C56.1011 97.5542 56.0934 97.5603 56.0845 97.5674C55.9428 97.6846 55.7989 97.8015 55.6539 97.9171C55.6348 97.9323 55.6157 97.9475 55.5967 97.9628C55.4695 98.0642 55.341 98.1667 55.2116 98.2678C55.1874 98.2871 55.1632 98.3064 55.1391 98.3256C54.9893 98.4431 54.8384 98.5592 54.6841 98.6761C53.2537 99.7629 51.6612 100.84 49.923 101.822C48.5856 102.577 46.98 102.701 45.5395 102.17C42.3571 101 37.3074 98.6504 32.2357 94.2641C30.4456 92.7163 28.6517 92.0559 26.9024 92.3046C24.425 92.6554 22.917 94.7092 22.5127 95.3293C22.3474 95.5839 22.2053 95.8388 22.0829 96.0924C20.6816 99.0183 22.0373 101.905 24.049 103.459C32.9832 110.367 42.4439 115.429 46.4656 115.838C46.4686 115.842 49.923 116.191 51.586 114.779Z" fill="white" stroke="black" stroke-width="0.976054" stroke-miterlimit="10"/>
<path d="M95.2926 111.777C81.1673 103.479 81.2948 98.9137 79.5395 97.3853C79.5381 97.3845 79.5366 97.3838 79.5359 97.3816C79.4957 97.3461 79.459 97.3143 79.4266 97.2848C79.4231 97.2811 79.418 97.2767 79.4137 97.2744C79.3461 97.2139 79.2943 97.1688 79.2599 97.1363C79.2584 97.1356 79.257 97.1348 79.2577 97.1334C79.2412 97.1193 79.2275 97.1068 79.2189 97.0986C77.3066 95.3462 77.1804 92.3672 78.9328 90.4549C80.686 88.5448 83.6657 88.4171 85.5751 90.1681C85.5765 90.1688 85.5816 90.1733 85.5887 90.1806C85.5902 90.1814 85.5923 90.1843 85.5952 90.1858C85.6017 90.191 85.6118 90.1999 85.6204 90.208C85.624 90.2117 85.6283 90.2139 85.6319 90.2176C85.647 90.2309 85.6635 90.2449 85.6837 90.2627C85.6873 90.2664 85.6916 90.2686 85.6952 90.2723C85.7124 90.2885 85.7347 90.3056 85.7556 90.3255C85.762 90.3307 85.7671 90.3351 85.7736 90.3403C85.8289 90.3891 85.8965 90.446 85.9757 90.5126C85.985 90.5192 85.9922 90.5266 86.0008 90.5347C86.039 90.5672 86.0785 90.6005 86.1224 90.636C86.1253 90.6375 86.1275 90.6405 86.1303 90.642C86.1778 90.6812 86.2275 90.7233 86.2807 90.7655C86.2887 90.7715 86.2958 90.7788 86.3038 90.7847C86.3512 90.824 86.4002 90.8639 86.452 90.9054C86.4614 90.912 86.4685 90.9194 86.4779 90.9261C86.5967 91.0223 86.7277 91.1266 86.8688 91.2362C86.8788 91.2451 86.8911 91.2533 86.9012 91.2621C87.0444 91.3747 87.1993 91.4932 87.3634 91.6184C87.3743 91.6258 87.3858 91.6354 87.3966 91.6428C87.4715 91.6999 87.5493 91.7584 87.6299 91.8184C87.6393 91.8251 87.6501 91.8325 87.6587 91.8406C87.7502 91.9081 87.8424 91.9777 87.9397 92.0482C87.9411 92.0489 87.9411 92.0489 87.9426 92.0497C88.0341 92.1171 88.127 92.1853 88.2236 92.2536C88.238 92.2647 88.2545 92.2751 88.2704 92.2869C88.4707 92.4308 88.6797 92.5791 88.8988 92.7327C88.9125 92.7416 88.9255 92.752 88.9392 92.7609C89.0415 92.8322 89.1468 92.9049 89.2534 92.9784C89.2628 92.985 89.2722 92.9917 89.2815 92.9984C89.399 93.0793 89.5202 93.1602 89.6442 93.2427C89.6485 93.2449 89.6521 93.2486 89.6565 93.2508C89.7711 93.3266 89.8879 93.4053 90.0069 93.4833C90.0249 93.4945 90.0422 93.5071 90.0617 93.519C90.312 93.6832 90.5724 93.849 90.84 94.0185C90.8595 94.0304 90.8775 94.0415 90.897 94.0534C91.024 94.1337 91.1531 94.2133 91.2837 94.2937C91.2924 94.2982 91.2989 94.3033 91.3075 94.3078C91.4497 94.3942 91.5933 94.4812 91.7398 94.5698C91.7535 94.5787 91.7665 94.5854 91.7802 94.5944C91.9116 94.6733 92.0437 94.7507 92.1787 94.8297C92.1996 94.8423 92.222 94.8557 92.2436 94.8669C92.5396 95.0383 92.8421 95.2112 93.1541 95.3835C93.1794 95.3984 93.2054 95.4118 93.2314 95.4253C93.378 95.5066 93.5268 95.5872 93.6756 95.6678C93.6842 95.6722 93.6929 95.6767 93.703 95.682C93.8648 95.7693 94.0288 95.8559 94.1935 95.9411C94.2152 95.9523 94.2369 95.9635 94.2585 95.9747C94.4031 96.0494 94.549 96.1249 94.6957 96.1989C94.7231 96.2131 94.7506 96.2273 94.7781 96.2415C94.9479 96.3274 95.1184 96.412 95.2926 96.4966C96.9074 97.2839 98.6791 98.0296 100.575 98.6548C102.034 99.1345 103.633 98.9429 104.943 98.1422C107.836 96.3748 112.331 93.086 116.451 87.7957C117.906 85.9288 119.536 84.9315 121.301 84.8347C123.799 84.6961 125.678 86.4168 126.196 86.9462C126.407 87.1638 126.596 87.386 126.766 87.611C128.71 90.2079 127.943 93.3035 126.273 95.2198C118.855 103.735 108.065 111.476 104.2 112.66C101.198 113.58 98.0243 113.19 95.2926 111.777Z" fill="white" stroke="black" stroke-width="0.976054" stroke-miterlimit="10"/>
<path d="M76.2897 121.912C80.76 118.373 83.5434 118.596 87.0117 119.816C93.9807 122.268 97.0422 127.46 97.0422 134.413C97.0422 141.722 92.733 148.211 88.165 152.756C88.2236 152.756 88.2805 152.753 88.3375 152.753C94.0197 152.753 98.6267 155.846 98.6267 159.481C98.6267 163.117 78.0499 159.481 78.0499 159.481C78.0499 159.481 76.7094 155.73 78.167 147.349C80.0443 136.554 67.0953 129.19 76.2897 121.912Z" fill="#727F7F" stroke="black" stroke-width="0.976054" stroke-miterlimit="10"/>
<path d="M73.0675 121.912C68.5971 118.373 65.8138 118.596 62.3455 119.816C55.3765 122.268 52.3149 127.46 52.3149 134.413C52.3149 141.722 56.6242 148.211 61.1921 152.756C61.1336 152.756 61.0766 152.753 61.0197 152.753C55.3374 152.753 50.7305 155.846 50.7305 159.481C50.7305 163.117 71.3073 159.481 71.3073 159.481C71.3073 159.481 72.6478 155.73 71.1902 147.349C69.3129 136.554 82.2619 129.19 73.0675 121.912Z" fill="#727F7F" stroke="black" stroke-width="0.976054" stroke-miterlimit="10"/>
<path d="M88.7111 95.7449C92.7162 102.262 95.2133 110.446 95.2133 116.403C95.2133 127.927 85.8708 137.27 74.3469 137.27C62.8229 137.27 53.4805 127.927 53.4805 116.403C53.4805 104.879 62.8229 85.0262 74.3469 85.0262C79.912 85.0246 84.9696 89.6576 88.7111 95.7449Z" fill="#BECACA" stroke="black" stroke-width="0.976054" stroke-miterlimit="10"/>
<path d="M74.349 130.704C82.6253 130.704 89.3346 120.844 89.3346 108.681C89.3346 96.518 82.6253 86.658 74.349 86.658C66.0726 86.658 59.3633 96.518 59.3633 108.681C59.3633 120.844 66.0726 130.704 74.349 130.704Z" fill="#E6F1F1"/>
<path d="M85.8446 47.7997C95.1301 50.152 102.288 57.2056 102.288 67.1581V70.9631C102.288 82.3374 93.0674 88.5711 81.6931 88.5711H66.8018C55.4275 88.5711 46.207 82.6351 46.207 71.2608V67.9764C46.207 60.2281 50.487 53.4787 56.8102 49.9633C56.8102 49.9633 64.9001 45.3075 74.5223 43.2659C80.6812 41.9597 75.0543 44.9529 75.9523 45.994C76.8893 47.0807 80.4568 43.6889 80.9871 45.5971C81.5011 47.4467 84.0242 47.3377 85.8446 47.7997Z" fill="#BECACA" stroke="black" stroke-width="0.976054" stroke-miterlimit="10"/>
<path d="M55.6576 42.6933C51.2246 35.817 42.0562 33.8356 35.18 38.2685C35.18 38.2685 38.9752 37.6324 41.7748 39.8481C41.7748 39.8481 34.6594 40.5476 32.094 47.1961C32.094 47.1961 36.06 43.5799 39.3249 44.0467C39.3249 44.0467 32.0452 47.6289 32.094 54.7768C32.094 54.7768 34.3096 52.0943 39.7918 51.2777C39.7918 51.2777 36.9922 57.4951 39.5592 62.377C39.5592 62.377 40.4409 58.6827 42.2742 58.3622" stroke="black" stroke-width="0.976054" stroke-miterlimit="10" stroke-linecap="round" stroke-linejoin="round"/>
<path d="M90.9727 49.4037C90.9727 41.2212 97.6049 34.5889 105.788 34.5889C105.788 34.5889 100.634 37.8245 100.232 40.4745C100.232 40.4745 108.426 38.4378 115.071 42.939C115.071 42.939 106.45 43.4335 104.374 44.3575C104.374 44.3575 114.783 45.7419 116.784 51.4469C116.784 51.4469 112.257 49.2085 108.202 49.4021C108.202 49.4021 111.852 54.7964 110.928 58.3607C110.928 58.3607 107.683 55.8034 104.374 55.1657" stroke="black" stroke-width="0.976054" stroke-miterlimit="10" stroke-linecap="round" stroke-linejoin="round"/>
<path d="M80.0146 71.466C79.8373 68.4126 75.6322 61.3541 73.8867 61.4549C72.1412 61.5558 68.7786 69.0519 68.956 72.1053C69.1333 75.1587 71.7524 77.4915 74.8058 77.3142C77.8608 77.1385 80.192 74.521 80.0146 71.466Z" fill="black"/>
<path d="M50.7305 62.3772C50.7305 62.3772 54.1353 59.4718 59.8907 61.175" stroke="black" stroke-width="1.62676" stroke-miterlimit="10" stroke-linecap="round" stroke-linejoin="round"/>
<path d="M95.5665 62.7579C95.5665 62.7579 92.1617 59.8525 86.4062 61.5557" stroke="black" stroke-width="1.62676" stroke-miterlimit="10" stroke-linecap="round" stroke-linejoin="round"/>
<path d="M53.8621 78.827C56.1719 78.827 58.0445 78.1693 58.0445 77.358C58.0445 76.5467 56.1719 75.889 53.8621 75.889C51.5522 75.889 49.6797 76.5467 49.6797 77.358C49.6797 78.1693 51.5522 78.827 53.8621 78.827Z" fill="#FF9294"/>
<path d="M94.6824 78.827C96.9923 78.827 98.8648 78.1693 98.8648 77.358C98.8648 76.5467 96.9923 75.889 94.6824 75.889C92.3725 75.889 90.5 76.5467 90.5 77.358C90.5 78.1693 92.3725 78.827 94.6824 78.827Z" fill="#FF9294"/>
<path d="M58.1384 75.1098C60.8059 75.1098 62.9683 72.9474 62.9683 70.2799C62.9683 67.6125 60.8059 65.4501 58.1384 65.4501C55.471 65.4501 53.3086 67.6125 53.3086 70.2799C53.3086 72.9474 55.471 75.1098 58.1384 75.1098Z" fill="white" stroke="black" stroke-width="0.976054" stroke-miterlimit="10"/>
<path d="M59.1565 73.4521C60.9085 73.4521 62.3287 72.0319 62.3287 70.28C62.3287 68.528 60.9085 67.1078 59.1565 67.1078C57.4046 67.1078 55.9844 68.528 55.9844 70.28C55.9844 72.0319 57.4046 73.4521 59.1565 73.4521Z" fill="black"/>
<path d="M89.7127 75.1098C92.3801 75.1098 94.5425 72.9474 94.5425 70.2799C94.5425 67.6125 92.3801 65.4501 89.7127 65.4501C87.0452 65.4501 84.8828 67.6125 84.8828 70.2799C84.8828 72.9474 87.0452 75.1098 89.7127 75.1098Z" fill="white" stroke="black" stroke-width="0.976054" stroke-miterlimit="10"/>
<path d="M88.7815 73.4521C90.5335 73.4521 91.9537 72.0319 91.9537 70.28C91.9537 68.528 90.5335 67.1078 88.7815 67.1078C87.0296 67.1078 85.6094 68.528 85.6094 70.28C85.6094 72.0319 87.0296 73.4521 88.7815 73.4521Z" fill="black"/>
<path d="M82.3759 80.6986C82.3759 80.6986 74.4282 83.6473 66.4805 80.6986" stroke="black" stroke-width="1.38663" stroke-miterlimit="10" stroke-linecap="round" stroke-linejoin="round"/>
<circle cx="87.0644" cy="7.90006" r="2.34184" transform="rotate(90 87.0644 7.90006)" fill="#00D2C2" stroke="black" stroke-width="0.97465"/>
<circle cx="81.0175" cy="21.3656" r="2.34184" transform="rotate(90 81.0175 21.3656)" fill="#00D2C2" stroke="black" stroke-width="0.97465"/>
<circle cx="73.7949" cy="11.8031" r="2.34184" transform="rotate(90 73.7949 11.8031)" fill="#FF9294" stroke="black" stroke-width="0.97465"/>
<circle cx="71.455" cy="21.9511" r="2.34184" transform="rotate(90 71.455 21.9511)" fill="#D0D78B" stroke="black" stroke-width="0.97465"/>
<circle cx="92.5293" cy="12.5837" r="2.34184" transform="rotate(90 92.5293 12.5837)" fill="#D0D78B" stroke="black" stroke-width="0.97465"/>
<circle cx="54.2793" cy="26.0494" r="2.34184" transform="rotate(90 54.2793 26.0494)" fill="#FF9294" stroke="black" stroke-width="0.97465"/>
<circle cx="94.0918" cy="22.7316" r="2.34184" transform="rotate(90 94.0918 22.7316)" fill="#FF9294" stroke="black" stroke-width="0.97465"/>
<circle cx="72.623" cy="30.733" r="2.34184" transform="rotate(90 72.623 30.733)" fill="#00D2C2" stroke="black" stroke-width="0.97465"/>
<circle cx="64.2324" cy="19.6093" r="2.34184" transform="rotate(90 64.2324 19.6093)" fill="#00D2C2" stroke="black" stroke-width="0.97465"/>
<circle cx="60.5253" cy="7.11943" r="2.34184" transform="rotate(90 60.5253 7.11943)" fill="#D0D78B" stroke="black" stroke-width="0.97465"/>
<line x1="88.951" y1="9.09908" x2="90.9025" y2="10.8555" stroke="black" stroke-width="0.974651"/>
<line x1="93.014" y1="14.8588" x2="93.7946" y2="20.5183" stroke="black" stroke-width="0.97465"/>
<line x1="86.1457" y1="10.0469" x2="82.0475" y2="19.4142" stroke="black" stroke-width="0.974651"/>
<line x1="75.3641" y1="13.4751" x2="79.4623" y2="19.3296" stroke="black" stroke-width="0.97465"/>
<line x1="73.7969" y1="21.4638" x2="78.6757" y2="21.4638" stroke="black" stroke-width="0.97465"/>
<line x1="71.3659" y1="19.5137" x2="72.5368" y2="13.6591" stroke="black" stroke-width="0.974651"/>
<line x1="71.9473" y1="28.46" x2="71.3618" y2="24.3618" stroke="black" stroke-width="0.97465"/>
<line x1="68.97" y1="21.8314" x2="66.433" y2="21.0508" stroke="black" stroke-width="0.974651"/>
<line x1="62.9832" y1="17.3967" x2="60.8366" y2="9.59055" stroke="black" stroke-width="0.97465"/>
<line x1="70.1536" y1="30.6178" x2="56.4929" y2="26.9099" stroke="black" stroke-width="0.974651"/>
<path d="M43.9961 76.4636L46.468 75.4042" stroke="black" stroke-width="0.97465"/>
<path d="M104.383 76.4636L101.911 75.4042" stroke="black" stroke-width="0.97465"/>
<path d="M44.1746 55.9451L48.7654 58.4538" stroke="black" stroke-width="0.97465"/>
<path d="M104.208 55.9451L99.6174 58.4538" stroke="black" stroke-width="0.97465"/>
<mask id="path-66-inside-1_3723_47933" fill="white">
<path fill-rule="evenodd" clip-rule="evenodd" d="M48.4119 53.5101C45.2914 53.5101 42.7617 56.0398 42.7617 59.1603V73.2857C42.7617 76.4061 45.2914 78.9358 48.4119 78.9358H62.8313C63.6583 76.2762 66.139 74.345 69.0708 74.345H80.0179C82.9496 74.345 85.4303 76.2762 86.2573 78.9358H100.323C103.443 78.9358 105.973 76.4061 105.973 73.2856V59.1603C105.973 56.0398 103.443 53.5101 100.323 53.5101H48.4119Z"/>
</mask>
<path fill-rule="evenodd" clip-rule="evenodd" d="M48.4119 53.5101C45.2914 53.5101 42.7617 56.0398 42.7617 59.1603V73.2857C42.7617 76.4061 45.2914 78.9358 48.4119 78.9358H62.8313C63.6583 76.2762 66.139 74.345 69.0708 74.345H80.0179C82.9496 74.345 85.4303 76.2762 86.2573 78.9358H100.323C103.443 78.9358 105.973 76.4061 105.973 73.2856V59.1603C105.973 56.0398 103.443 53.5101 100.323 53.5101H48.4119Z" fill="url(#paint0_linear_3723_47933)"/>
<path d="M62.8313 78.9358V79.9104H63.5489L63.762 79.2252L62.8313 78.9358ZM86.2573 78.9358L85.3266 79.2252L85.5397 79.9104H86.2573V78.9358ZM43.7364 59.1603C43.7364 56.5781 45.8297 54.4848 48.4119 54.4848V52.5355C44.7531 52.5355 41.7871 55.5015 41.7871 59.1603H43.7364ZM43.7364 73.2857V59.1603H41.7871V73.2857H43.7364ZM48.4119 77.9611C45.8297 77.9611 43.7364 75.8679 43.7364 73.2857H41.7871C41.7871 76.9444 44.7531 79.9104 48.4119 79.9104V77.9611ZM62.8313 77.9611H48.4119V79.9104H62.8313V77.9611ZM63.762 79.2252C64.4659 76.9615 66.5779 75.3197 69.0708 75.3197V73.3704C65.7002 73.3704 62.8507 75.5908 61.9006 78.6464L63.762 79.2252ZM69.0708 75.3197H80.0179V73.3704H69.0708V75.3197ZM80.0179 75.3197C82.5108 75.3197 84.6228 76.9615 85.3266 79.2252L87.188 78.6464C86.2379 75.5908 83.3885 73.3704 80.0179 73.3704V75.3197ZM100.323 77.9611H86.2573V79.9104H100.323V77.9611ZM104.998 73.2856C104.998 75.8679 102.905 77.9611 100.323 77.9611V79.9104C103.981 79.9104 106.947 76.9444 106.947 73.2856H104.998ZM104.998 59.1603V73.2856H106.947V59.1603H104.998ZM100.323 54.4848C102.905 54.4848 104.998 56.5781 104.998 59.1603H106.947C106.947 55.5015 103.981 52.5355 100.323 52.5355V54.4848ZM48.4119 54.4848H100.323V52.5355H48.4119V54.4848Z" fill="black" mask="url(#path-66-inside-1_3723_47933)"/>
<mask id="path-68-inside-2_3723_47933" fill="white">
<path fill-rule="evenodd" clip-rule="evenodd" d="M50.5251 55.6288C47.4047 55.6288 44.875 58.1584 44.875 61.2789V71.1667C44.875 74.2872 47.4047 76.8168 50.5251 76.8168H61.7066C62.3875 74.5689 64.4756 72.9324 66.9459 72.9324H82.1307C84.601 72.9324 86.6891 74.5689 87.37 76.8168H98.1983C101.319 76.8168 103.848 74.2872 103.848 71.1667V61.2789C103.848 58.1584 101.319 55.6288 98.1983 55.6288H50.5251Z"/>
</mask>
<path d="M61.7066 76.8168V77.7915H62.4297L62.6394 77.0994L61.7066 76.8168ZM87.37 76.8168L86.4372 77.0994L86.6469 77.7915H87.37V76.8168ZM45.8497 61.2789C45.8497 58.6967 47.9429 56.6034 50.5251 56.6034V54.6541C46.8664 54.6541 43.9003 57.6202 43.9003 61.2789H45.8497ZM45.8497 71.1667V61.2789H43.9003V71.1667H45.8497ZM50.5251 75.8422C47.9429 75.8422 45.8497 73.7489 45.8497 71.1667H43.9003C43.9003 74.8255 46.8664 77.7915 50.5251 77.7915V75.8422ZM61.7066 75.8422H50.5251V77.7915H61.7066V75.8422ZM62.6394 77.0994C63.1993 75.251 64.9169 73.9071 66.9459 73.9071V71.9578C64.0343 71.9578 61.5758 73.8868 60.7738 76.5343L62.6394 77.0994ZM66.9459 73.9071H82.1307V71.9578H66.9459V73.9071ZM82.1307 73.9071C84.1597 73.9071 85.8773 75.251 86.4372 77.0994L88.3028 76.5343C87.5008 73.8868 85.0423 71.9578 82.1307 71.9578V73.9071ZM98.1983 75.8422H87.37V77.7915H98.1983V75.8422ZM102.874 71.1667C102.874 73.7489 100.78 75.8422 98.1983 75.8422V77.7915C101.857 77.7915 104.823 74.8255 104.823 71.1667H102.874ZM102.874 61.2789V71.1667H104.823V61.2789H102.874ZM98.1983 56.6034C100.78 56.6034 102.874 58.6967 102.874 61.2789H104.823C104.823 57.6202 101.857 54.6541 98.1983 54.6541V56.6034ZM50.5251 56.6034H98.1983V54.6541H50.5251V56.6034Z" fill="white" mask="url(#path-68-inside-2_3723_47933)"/>
<path d="M50.1719 143.383C50.1719 110.753 55.2335 96.1215 57.7643 92.8844L73.6553 104.361L76.6569 143.383H50.1719Z" fill="white" stroke="black" stroke-width="0.97465"/>
<path d="M98.5508 143.383C98.5508 110.753 93.4892 96.1215 90.9584 92.8844L73.4783 104.538L75.9502 143.383H98.5508Z" fill="white" stroke="black" stroke-width="0.97465"/>
<path d="M63.4126 89.3533L59.3516 94.4737L74.5363 112.66L89.5445 93.7674L85.4835 89.3533C75.737 93.0259 66.7085 90.8835 63.4126 89.3533Z" fill="#297E88" stroke="black" stroke-width="0.97465"/>
<path d="M120.927 102.785L110.977 91.2024L120.058 83.4005C122.221 81.5424 125.48 81.7894 127.338 83.9522L130.56 87.7022C132.418 89.865 132.171 93.1245 130.008 94.9826L120.927 102.785Z" fill="#727F7F" stroke="black" stroke-width="0.97465"/>
<path d="M26.1281 106.744L35.0606 94.3595L25.3505 87.3558C23.0379 85.6878 19.811 86.2103 18.143 88.5228L15.2509 92.5325C13.5829 94.8451 14.1054 98.072 16.4179 99.74L26.1281 106.744Z" fill="#727F7F" stroke="black" stroke-width="0.97465"/>
<path d="M52.2891 155.063C53.2896 154.769 55.891 154.569 58.2923 156.123" stroke="black" stroke-width="0.97465" stroke-linecap="round"/>
<path d="M97.1367 155.063C96.1362 154.769 93.5347 154.569 91.1334 156.123" stroke="black" stroke-width="0.97465" stroke-linecap="round"/>
<path d="M54.7617 153.651C55.7623 153.357 58.3637 153.157 60.765 154.71" stroke="black" stroke-width="0.97465" stroke-linecap="round"/>
<path d="M94.6641 153.651C93.6635 153.357 91.0621 153.157 88.6608 154.71" stroke="black" stroke-width="0.97465" stroke-linecap="round"/>
<path d="M53.835 129.921H66.6326V132.831H53.835V129.921Z" fill="white" stroke="black" stroke-width="0.97465"/>
<path d="M50.8752 126.651L51.6807 116.502H55.6551L55.0107 126.651H50.8752Z" fill="white" stroke="black" stroke-width="0.97465"/>
<path d="M82.085 129.921H94.8826V132.831H82.085V129.921Z" fill="white" stroke="black" stroke-width="0.97465"/>
<ellipse cx="74.3613" cy="105.95" rx="5.82672" ry="1.88511" transform="rotate(30 74.3613 105.95)" stroke="#FAD580" stroke-width="0.353134"/>
<ellipse cx="74.361" cy="105.95" rx="5.82671" ry="1.88511" transform="rotate(90 74.361 105.95)" stroke="#FAD580" stroke-width="0.353134"/>
<ellipse cx="74.359" cy="105.95" rx="5.82672" ry="1.88511" transform="rotate(150 74.359 105.95)" stroke="#FAD580" stroke-width="0.353134"/>
<path d="M50.5436 96.4281L55.7402 86.7045L74.2037 112.583L55.7349 101.062L58.3601 95.4954L50.5436 96.4281Z" fill="white" stroke="black" stroke-width="0.97465"/>
<path d="M97.8431 96.4281L92.6465 86.7045L74.183 112.583L92.6518 101.062L90.0266 95.4954L97.8431 96.4281Z" fill="white" stroke="black" stroke-width="0.97465"/>
<rect x="84.4258" y="106.127" width="2.11881" height="7.76895" fill="#FF6669" stroke="black" stroke-width="0.97465"/>
<rect x="86.543" y="107.187" width="2.11881" height="6.70955" fill="#AF654A" stroke="black" stroke-width="0.97465"/>
<rect x="88.6641" y="104.362" width="2.11881" height="9.53462" fill="#297E88" stroke="black" stroke-width="0.97465"/>
<path d="M81.7334 110.499H92.7653V120.959C92.7653 121.665 92.193 122.237 91.487 122.237H83.0118C82.3058 122.237 81.7334 121.665 81.7334 120.959V110.499Z" fill="white" stroke="black" stroke-width="0.97465"/>
<path d="M61.8242 91.9563C66.1207 93.9945 77.2915 96.7157 87.603 91.2953" stroke="black" stroke-width="0.97465" stroke-linecap="round"/>
<circle cx="121.284" cy="80.7012" r="3.17821" fill="#2FF7EE"/>
<circle cx="117.22" cy="73.4619" r="1.94224" fill="#2FF7EE"/>
<circle cx="122.52" cy="91.8249" r="1.94224" fill="#2FF7EE"/>
<mask id="path-95-inside-3_3723_47933" fill="white">
<path fill-rule="evenodd" clip-rule="evenodd" d="M115.729 80.3522C114.795 80.3522 114.039 81.1088 114.039 82.0422C114.039 82.9756 114.795 83.7322 115.729 83.7322H116.742V95.4477L106.942 112.422C105.175 115.482 107.384 119.308 110.918 119.308H131.02C134.554 119.308 136.763 115.482 134.996 112.422L125.192 95.4413V83.7322H126.207C127.14 83.7322 127.897 82.9756 127.897 82.0422C127.897 81.1088 127.14 80.3522 126.207 80.3522H115.729Z"/>
</mask>
<path fill-rule="evenodd" clip-rule="evenodd" d="M115.729 80.3522C114.795 80.3522 114.039 81.1088 114.039 82.0422C114.039 82.9756 114.795 83.7322 115.729 83.7322H116.742V95.4477L106.942 112.422C105.175 115.482 107.384 119.308 110.918 119.308H131.02C134.554 119.308 136.763 115.482 134.996 112.422L125.192 95.4413V83.7322H126.207C127.14 83.7322 127.897 82.9756 127.897 82.0422C127.897 81.1088 127.14 80.3522 126.207 80.3522H115.729Z" fill="url(#paint1_linear_3723_47933)"/>
<path d="M116.742 83.7322H117.717V82.7576H116.742V83.7322ZM116.742 95.4477L117.586 95.935L117.717 95.7089V95.4477H116.742ZM106.942 112.422L106.098 111.934H106.098L106.942 112.422ZM134.996 112.422L134.152 112.909L134.996 112.422ZM125.192 95.4413H124.218V95.7024L124.348 95.9286L125.192 95.4413ZM125.192 83.7322V82.7576H124.218V83.7322H125.192ZM115.013 82.0422C115.013 81.6471 115.334 81.3268 115.729 81.3268V79.3775C114.257 79.3775 113.064 80.5705 113.064 82.0422H115.013ZM115.729 82.7576C115.334 82.7576 115.013 82.4373 115.013 82.0422H113.064C113.064 83.5139 114.257 84.7069 115.729 84.7069V82.7576ZM116.742 82.7576H115.729V84.7069H116.742V82.7576ZM115.767 83.7322V95.4477H117.717V83.7322H115.767ZM115.898 94.9604L106.098 111.934L107.786 112.909L117.586 95.935L115.898 94.9604ZM106.098 111.934C103.956 115.644 106.634 120.282 110.918 120.282V118.333C108.134 118.333 106.394 115.32 107.786 112.909L106.098 111.934ZM110.918 120.282H131.02V118.333H110.918V120.282ZM131.02 120.282C135.304 120.282 137.982 115.644 135.84 111.934L134.152 112.909C135.544 115.32 133.804 118.333 131.02 118.333V120.282ZM135.84 111.934L126.036 94.954L124.348 95.9286L134.152 112.909L135.84 111.934ZM126.167 95.4413V83.7322H124.218V95.4413H126.167ZM126.207 82.7576H125.192V84.7069H126.207V82.7576ZM126.922 82.0422C126.922 82.4373 126.602 82.7576 126.207 82.7576V84.7069C127.679 84.7069 128.872 83.5139 128.872 82.0422H126.922ZM126.207 81.3268C126.602 81.3268 126.922 81.6471 126.922 82.0422H128.872C128.872 80.5705 127.679 79.3775 126.207 79.3775V81.3268ZM115.729 81.3268H126.207V79.3775H115.729V81.3268Z" fill="black" mask="url(#path-95-inside-3_3723_47933)"/>
<path fill-rule="evenodd" clip-rule="evenodd" d="M111.407 109.421L109.512 112.704C108.424 114.587 109.783 116.942 111.958 116.942H129.981C132.155 116.942 133.515 114.587 132.427 112.704L130.532 109.421H111.407Z" fill="#2FF7EE"/>
<circle cx="124.638" cy="108.775" r="3.00164" fill="#2FF7EE"/>
<circle cx="115.455" cy="111.247" r="3.00164" fill="#2FF7EE"/>
<circle cx="118.458" cy="102.949" r="2.82507" fill="#2FF7EE"/>
<circle cx="31.3015" cy="103.017" r="2.11881" transform="rotate(-11.0304 31.3015 103.017)" fill="#FF6669"/>
<circle cx="22.4379" cy="102.766" r="1.23597" transform="rotate(-11.0304 22.4379 102.766)" fill="#FF6669"/>
<circle cx="25.3324" cy="91.7682" r="1.23597" transform="rotate(-11.0304 25.3324 91.7682)" fill="#FF6669"/>
<circle cx="19.5004" cy="80.3125" r="1.23597" transform="rotate(-11.0304 19.5004 80.3125)" fill="#FF6669"/>
<circle cx="23.9301" cy="80.8882" r="1.23597" transform="rotate(-11.0304 23.9301 80.8882)" fill="#FF6669"/>
<mask id="path-106-inside-4_3723_47933" fill="white">
<path fill-rule="evenodd" clip-rule="evenodd" d="M15.9733 86.8638C15.7947 85.9476 16.3926 85.0602 17.3087 84.8816L27.5934 82.8768C28.5095 82.6982 29.397 83.2961 29.5755 84.2122C29.7541 85.1284 29.1562 86.0158 28.2401 86.1944L27.2449 86.3884L28.9771 95.2743C34.8792 95.8905 39.9408 100.282 41.1353 106.409C42.5997 113.922 37.6968 121.199 30.1845 122.663C22.6721 124.128 15.3951 119.225 13.9307 111.712C12.7602 105.708 15.6575 99.8536 20.7038 96.9977L18.9508 88.0052L17.9554 88.1992C17.0393 88.3778 16.1518 87.7799 15.9733 86.8638Z"/>
</mask>
<path fill-rule="evenodd" clip-rule="evenodd" d="M15.9733 86.8638C15.7947 85.9476 16.3926 85.0602 17.3087 84.8816L27.5934 82.8768C28.5095 82.6982 29.397 83.2961 29.5755 84.2122C29.7541 85.1284 29.1562 86.0158 28.2401 86.1944L27.2449 86.3884L28.9771 95.2743C34.8792 95.8905 39.9408 100.282 41.1353 106.409C42.5997 113.922 37.6968 121.199 30.1845 122.663C22.6721 124.128 15.3951 119.225 13.9307 111.712C12.7602 105.708 15.6575 99.8536 20.7038 96.9977L18.9508 88.0052L17.9554 88.1992C17.0393 88.3778 16.1518 87.7799 15.9733 86.8638Z" fill="url(#paint2_linear_3723_47933)"/>
<path d="M17.3087 84.8816L17.1222 83.9249L17.3087 84.8816ZM27.5934 82.8768L27.7799 83.8334L27.5934 82.8768ZM28.2401 86.1944L28.4266 87.1511L28.2401 86.1944ZM27.2449 86.3884L27.0584 85.4318L26.1018 85.6182L26.2883 86.5749L27.2449 86.3884ZM28.9771 95.2743L28.0204 95.4608L28.1584 96.1688L28.8759 96.2437L28.9771 95.2743ZM20.7038 96.9977L21.1838 97.846L21.7947 97.5002L21.6604 96.8112L20.7038 96.9977ZM18.9508 88.0052L19.9075 87.8187L19.721 86.8621L18.7644 87.0485L18.9508 88.0052ZM17.1222 83.9249C15.6778 84.2065 14.735 85.6058 15.0166 87.0502L16.9299 86.6773C16.8543 86.2895 17.1074 85.9138 17.4952 85.8382L17.1222 83.9249ZM27.4069 81.9201L17.1222 83.9249L17.4952 85.8382L27.7799 83.8334L27.4069 81.9201ZM30.5322 84.0258C30.2506 82.5813 28.8514 81.6386 27.4069 81.9201L27.7799 83.8334C28.1677 83.7578 28.5433 84.0109 28.6189 84.3987L30.5322 84.0258ZM28.4266 87.1511C29.871 86.8695 30.8138 85.4702 30.5322 84.0258L28.6189 84.3987C28.6945 84.7865 28.4414 85.1622 28.0536 85.2378L28.4266 87.1511ZM27.4314 87.345L28.4266 87.1511L28.0536 85.2378L27.0584 85.4318L27.4314 87.345ZM29.9337 95.0878L28.2016 86.2019L26.2883 86.5749L28.0204 95.4608L29.9337 95.0878ZM28.8759 96.2437C34.3637 96.8166 39.0685 100.901 40.1786 106.596L42.0919 106.223C40.8132 99.663 35.3947 94.9643 29.0783 94.3049L28.8759 96.2437ZM40.1786 106.596C41.54 113.58 36.982 120.345 29.998 121.707L30.371 123.62C38.4116 122.052 43.6593 114.264 42.0919 106.223L40.1786 106.596ZM29.998 121.707C23.014 123.068 16.2487 118.51 14.8873 111.526L12.974 111.899C14.5414 119.94 22.3303 125.187 30.371 123.62L29.998 121.707ZM14.8873 111.526C13.7995 105.945 16.4914 100.502 21.1838 97.846L20.2237 96.1495C14.8236 99.2057 11.721 105.471 12.974 111.899L14.8873 111.526ZM17.9942 88.1917L19.7471 97.1842L21.6604 96.8112L19.9075 87.8187L17.9942 88.1917ZM18.1419 89.1559L19.1373 88.9618L18.7644 87.0485L17.7689 87.2426L18.1419 89.1559ZM15.0166 87.0502C15.2982 88.4947 16.6974 89.4374 18.1419 89.1559L17.7689 87.2426C17.3811 87.3182 17.0055 87.0651 16.9299 86.6773L15.0166 87.0502Z" fill="black" mask="url(#path-106-inside-4_3723_47933)"/>
<path fill-rule="evenodd" clip-rule="evenodd" d="M16.8867 112.399C18.5591 117.755 24.0298 121.108 29.665 120.009C33.8234 119.199 36.9884 116.175 38.1761 112.399L16.8867 112.399Z" fill="#FF6669"/>
<circle cx="22.4579" cy="113.016" r="2.82507" transform="rotate(-11.0304 22.4579 113.016)" fill="#FF6669"/>
<circle cx="32.6376" cy="113.55" r="2.82507" transform="rotate(-11.0304 32.6376 113.55)" fill="#FF6669"/>
<circle cx="28.2233" cy="109.373" r="2.11881" transform="rotate(-11.0304 28.2233 109.373)" fill="#FF6669"/>
<rect x="-0.0688961" y="-0.68573" width="6.54469" height="6.12433" rx="0.572078" transform="matrix(0.632877 -0.774253 -0.774253 -0.632877 28.9985 95.9751)" fill="#727F7F" stroke="black" stroke-width="0.97465"/>
<rect x="116.71" y="92.8249" width="6.54469" height="6.12433" rx="0.572078" transform="rotate(-134.127 116.71 92.8249)" fill="#727F7F" stroke="black" stroke-width="0.97465"/>
<defs>
<linearGradient id="paint0_linear_3723_47933" x1="42.7617" y1="55.2758" x2="103.324" y2="78.9358" gradientUnits="userSpaceOnUse">
<stop stop-color="white"/>
<stop offset="1" stop-color="white" stop-opacity="0"/>
</linearGradient>
<linearGradient id="paint1_linear_3723_47933" x1="114.777" y1="80.3522" x2="133.65" y2="119.079" gradientUnits="userSpaceOnUse">
<stop stop-color="white"/>
<stop offset="1" stop-color="white" stop-opacity="0"/>
</linearGradient>
<linearGradient id="paint2_linear_3723_47933" x1="17.1438" y1="84.9137" x2="36.7634" y2="119.314" gradientUnits="userSpaceOnUse">
<stop stop-color="white"/>
<stop offset="1" stop-color="white" stop-opacity="0"/>
</linearGradient>
</defs>
</svg>
