<svg width="49" height="49" viewBox="0 0 49 49" fill="none" xmlns="http://www.w3.org/2000/svg">
<rect x="0.666992" y="0.950195" width="48" height="48" rx="24" fill="#E6F1F1"/>
<path d="M35.167 13.4502H14.167C13.6147 13.4502 13.167 13.8979 13.167 14.4502V35.4502C13.167 36.0025 13.6147 36.4502 14.167 36.4502H35.167C35.7193 36.4502 36.167 36.0025 36.167 35.4502V14.4502C36.167 13.8979 35.7193 13.4502 35.167 13.4502Z" stroke="black" stroke-width="2" stroke-linecap="round" stroke-linejoin="round"/>
<path d="M23.667 22.9502V30.9502" stroke="black" stroke-width="2" stroke-linecap="round" stroke-linejoin="round"/>
<path d="M19.667 22.9502V30.9502" stroke="black" stroke-width="2" stroke-linecap="round" stroke-linejoin="round"/>
<path d="M23.667 26.4502C23.667 25.5219 24.0357 24.6317 24.6921 23.9753C25.3485 23.3189 26.2387 22.9502 27.167 22.9502C28.0952 22.9502 28.9855 23.3189 29.6419 23.9753C30.2982 24.6317 30.667 25.5219 30.667 26.4502V30.9502" stroke="black" stroke-width="2" stroke-linecap="round" stroke-linejoin="round"/>
<path d="M19.667 20.4502C20.4954 20.4502 21.167 19.7786 21.167 18.9502C21.167 18.1218 20.4954 17.4502 19.667 17.4502C18.8386 17.4502 18.167 18.1218 18.167 18.9502C18.167 19.7786 18.8386 20.4502 19.667 20.4502Z" fill="black"/>
</svg>
