<svg width="221" height="58" viewBox="0 0 221 58" fill="none" xmlns="http://www.w3.org/2000/svg">
<path d="M182.275 53.5178C182.275 53.5178 183.674 57.2068 186.297 57.2068C188.92 57.2068 188.716 57.3136 190.48 55.5929C192.244 53.8679 191.768 20.0728 191.717 18.4545C191.628 15.5126 192.006 11.0337 188.044 12.3061C182.973 13.5357 182.798 15.9951 182.798 17.3999C182.803 18.8046 181.051 49.4743 182.275 53.5178Z" fill="black"/>
<path d="M87.737 15.0991C87.9113 15.9189 87.3884 16.7216 86.5722 16.8967C85.756 17.0717 84.9568 16.5465 84.7825 15.7267C84.6082 14.9069 85.1311 14.1042 85.9473 13.9292C86.7635 13.7541 87.567 14.2793 87.737 15.0991Z" fill="black"/>
<path d="M97.2975 11.6742C97.4718 12.494 96.949 13.2968 96.1328 13.4718C95.3166 13.6469 94.5174 13.1217 94.3431 12.3019C94.1688 11.4821 94.6917 10.6794 95.5079 10.5043C96.3241 10.3335 97.1233 10.8545 97.2975 11.6742Z" fill="black"/>
<path d="M82.4403 10.7828C81.6794 11.957 80.6677 16.2438 80.6677 16.2438C80.6677 16.2438 77.3221 15.0099 76.7057 12.0808C76.0893 9.15604 78.0108 5.88541 80.8462 5.28337C83.6859 4.68134 85.9772 6.73509 85.9772 6.73509C85.9772 6.73509 84.0345 8.31917 82.4403 10.7828Z" fill="black"/>
<path d="M96.3365 5.79924C97.6586 6.23903 101.119 8.95032 101.119 8.95032C101.119 8.95032 102.964 5.88891 101.625 3.21604C100.286 0.543166 96.7531 -0.801808 94.1643 0.504738C91.5712 1.81555 91.061 4.85562 91.061 4.85562C91.061 4.85562 93.5564 4.87697 96.3365 5.79924Z" fill="black"/>
<path d="M94.696 18.7414C93.9988 16.1241 91.8606 15.3 91.8606 15.3C91.733 15.2744 91.6268 15.2957 91.5332 15.3256C91.4397 15.3427 91.3334 15.3811 91.2357 15.4665C91.2357 15.4665 89.7946 17.2556 90.4917 19.8729C91.1591 22.3835 92.3239 22.4006 93.3527 22.1444L93.4887 22.1103C94.4877 21.8157 95.3634 21.252 94.696 18.7414Z" fill="black"/>
<path d="M119.156 35.47C119.683 34.2062 122.268 31.0038 123.454 28.9202C124.827 26.5078 125.622 22.3917 122.417 22.3704C119.211 22.349 116.763 21.6445 115.534 24.9835C114.31 28.3224 114.403 32.4385 112.652 31.5589C110.901 30.6793 110.709 19.8683 111.428 17.0161C112.121 14.2664 111.079 12.2724 108.979 12.2724C106.879 12.2724 102.858 11.7472 101.982 15.6114C101.982 15.6114 101.978 18.4294 101.982 20.5173C104.192 20.8717 105.795 20.718 106.752 20.718C108.703 20.718 109.111 22.6735 109.128 23.0493C109.145 23.425 109.085 24.7743 108.074 25.3806C107.062 25.9869 106.424 26.3797 103.159 26.4864C102.777 26.4992 102.39 26.4864 102.007 26.4608C102.012 27.1952 102.02 27.9595 102.024 28.7451C103.283 28.9458 104.405 29.0526 104.949 29.1081C106.424 29.2532 106.964 30.8416 107.015 31.6358C107.066 32.4299 106.713 33.2412 105.629 33.7023C104.873 34.0268 103.78 34.3129 102.088 34.3471C102.224 43.1171 102.535 52.1263 103.236 54.1929C104.609 58.262 110.033 57.5617 110.033 57.5617C110.033 57.5617 113.358 57.9118 112.133 50.7088C110.909 43.5057 111.542 42.2248 112.014 41.3708C112.486 40.5169 113.532 41.3537 114.233 42.9549C114.935 44.556 116.159 52.8138 116.333 54.5729C116.508 56.332 121.677 55.7855 122.506 54.4747C123.331 53.1681 124.206 50.7088 123.156 45.79C122.102 40.867 118.518 37.5067 119.156 35.47Z" fill="black"/>
<path d="M136.9 22.5968C136.9 22.5968 126.056 21.017 126.056 40.8671C126.056 60.7172 141.1 56.3279 141.1 56.3279C141.1 56.3279 148.799 56.678 148.799 39.6374C148.794 22.5968 136.9 22.5968 136.9 22.5968ZM137.72 47.276L137.482 47.2974C135.62 47.4383 133.605 47.0711 133.168 42.5195C132.713 37.7758 135.735 35.0901 135.735 35.0901C135.931 34.9663 136.122 34.9364 136.296 34.9321C136.466 34.9065 136.658 34.898 136.875 34.9834C136.875 34.9834 140.348 37.0414 140.802 41.7851C141.236 46.3367 139.557 47.0625 137.72 47.276Z" fill="black"/>
<path d="M176.336 29.2783C176.523 33.198 176.681 37.2457 176.813 41.413C176.876 43.4241 176.949 45.4095 177.029 47.3693C177.059 48.3514 177.131 49.2822 177.242 50.1617C177.51 51.9209 177.484 53.3342 177.17 54.3973C176.855 55.4605 175.737 55.9643 173.816 55.9003C172.247 55.7295 171.21 55.1787 170.695 54.2479C170.181 53.3214 169.879 52.4034 169.79 51.4982C169.713 51.0328 169.616 50.6613 169.501 50.3838C169.386 50.1062 169.203 50.008 168.952 50.0892C168.702 50.1703 168.319 50.4905 167.813 51.0456C166.466 52.4631 165.058 53.6074 163.588 54.4742C162.117 55.341 160.514 55.6441 158.775 55.3794C156.357 54.867 154.618 53.505 153.555 51.2932C152.497 49.0815 151.948 46.5453 151.91 43.6888C151.872 40.8323 152.165 38.1765 152.786 35.7257C153.725 32.7027 155.124 30.0683 156.982 27.8266C158.839 25.585 161.067 23.971 163.66 22.9975C166.253 22.0198 169.122 21.9002 172.268 22.6346C173.607 23.0317 174.594 23.8429 175.223 25.0641C175.852 26.281 176.222 27.69 176.336 29.2783ZM167.363 31.5883C165.603 31.2296 164.127 31.6438 162.941 32.8351C161.755 34.0263 160.875 35.5634 160.302 37.4464C159.728 39.3294 159.473 41.1227 159.536 42.8263C159.6 44.5299 159.991 45.6913 160.705 46.3062C161.717 46.9381 162.933 46.6178 164.361 45.3455C165.79 44.0731 166.886 42.3438 167.66 40.162C168.272 38.1808 168.553 36.3277 168.498 34.6113C168.447 32.8906 168.068 31.8872 167.363 31.5883Z" fill="black"/>
<path d="M219.009 29.2783C219.196 33.198 219.353 37.2457 219.485 41.413C219.549 43.4241 219.621 45.4095 219.702 47.3693C219.731 48.3514 219.804 49.2822 219.914 50.1617C220.182 51.9209 220.156 53.3342 219.842 54.3973C219.527 55.4605 218.409 55.9643 216.488 55.9003C214.919 55.7295 213.882 55.1787 213.368 54.2479C212.853 53.3214 212.551 52.4034 212.458 51.4982C212.381 51.0328 212.284 50.6613 212.169 50.3838C212.054 50.1062 211.871 50.008 211.62 50.0892C211.37 50.1703 210.987 50.4905 210.481 51.0456C209.134 52.4631 207.726 53.6074 206.256 54.4742C204.785 55.341 203.182 55.6441 201.443 55.3794C199.025 54.867 197.286 53.505 196.223 51.2932C195.165 49.0815 194.616 46.5453 194.578 43.6888C194.54 40.8323 194.833 38.1765 195.449 35.7257C196.389 32.7027 197.788 30.0683 199.645 27.8266C201.503 25.585 203.73 23.971 206.324 22.9975C208.917 22.0198 211.786 21.9002 214.932 22.6346C216.271 23.0317 217.257 23.8429 217.886 25.0641C218.524 26.281 218.894 27.69 219.009 29.2783ZM210.035 31.5883C208.275 31.2296 206.8 31.6438 205.614 32.8351C204.428 34.0263 203.548 35.5634 202.974 37.4464C202.4 39.3294 202.145 41.1227 202.209 42.8263C202.272 44.5299 202.663 45.6913 203.378 46.3062C204.389 46.9381 205.605 46.6178 207.034 45.3455C208.462 44.0731 209.559 42.3438 210.337 40.162C210.949 38.1808 211.229 36.3277 211.174 34.6113C211.119 32.8906 210.74 31.8872 210.035 31.5883Z" fill="black"/>
<path d="M52.9464 53.5178C52.9464 53.5178 54.3449 57.2068 56.9678 57.2068C59.5907 57.2068 59.3867 57.3136 61.1508 55.5929C62.915 53.8679 62.4389 20.0728 62.3879 18.4545C62.2986 15.5126 62.677 11.0337 58.715 12.3061C53.6435 13.5357 53.4692 15.9951 53.4692 17.3999C53.4692 18.8046 51.7178 49.4743 52.9464 53.5178Z" fill="black"/>
<path d="M0.119075 53.5185C0.497416 55.5723 1.51766 57.2076 4.14054 57.2076C5.98123 57.2076 7.16727 56.7593 8.32355 55.5936C10.5766 52.2931 8.89319 36.4352 12.5533 36.4566C16.2092 36.4779 15.8606 41.5718 15.8606 41.5718C15.8606 41.5718 16.7661 52.7927 17.7863 54.2231C18.662 55.4527 22.1606 55.9779 23.2106 52.9934C24.2606 50.0045 23.0363 30.8547 22.1606 28.2202C21.2849 25.5858 18.3135 22.4219 16.0392 22.5969C13.7649 22.772 12.192 26.6361 10.6148 26.6361C9.04197 26.6361 9.21626 24.0017 9.56485 22.4176C9.91343 20.8378 10.9634 10.4922 5.89196 11.7219C0.820494 12.9558 0.641951 15.4152 0.641951 16.82C0.641951 18.2247 -0.331534 51.0677 0.119075 53.5185Z" fill="black"/>
<path d="M37.2008 22.5968C37.2008 22.5968 26.3564 21.017 26.3564 40.8671C26.3564 60.7172 41.4008 56.3279 41.4008 56.3279C41.4008 56.3279 49.0952 56.678 49.0952 39.6374C49.0952 22.5968 37.2008 22.5968 37.2008 22.5968ZM38.4634 47.276C38.4591 47.276 38.2253 47.2974 38.2211 47.3016C36.3634 47.4425 34.3441 47.0753 33.9105 42.5195C33.4557 37.7758 36.4781 35.0901 36.4781 35.0901C36.6737 34.9663 36.865 34.9364 37.035 34.9321C37.2051 34.9065 37.3964 34.898 37.6132 34.9834C37.6132 34.9834 41.0862 37.0414 41.5411 41.7851C41.979 46.3367 40.2998 47.0625 38.4634 47.276Z" fill="black"/>
<path d="M89.5054 29.9104C89.6924 33.8301 89.8497 37.8778 89.9815 42.0451C90.0453 44.0561 90.1175 46.0416 90.1983 48.0014C90.2281 48.9834 90.3003 49.9142 90.4108 50.7938C90.6787 52.553 90.6532 53.9663 90.3386 55.0294C90.024 56.0926 88.906 56.5964 86.9845 56.5324C85.4159 56.3616 84.3786 55.8108 83.8643 54.88C83.3499 53.9534 83.0481 53.0354 82.9588 52.1303C82.8823 51.6649 82.7845 51.2934 82.6697 51.0158C82.555 50.7383 82.3722 50.6401 82.1214 50.7212C81.8705 50.8024 81.4879 51.1226 80.9821 51.6777C79.6345 53.0952 78.2274 54.2395 76.7566 55.1063C75.2857 55.9773 73.6831 56.2762 71.9444 56.0115C69.5256 55.4991 67.7869 54.137 66.7241 51.9253C65.6656 49.7136 65.1173 47.1773 65.079 44.3209C65.0407 41.4644 65.3341 38.8086 65.9547 36.3578C66.8942 33.3348 68.2928 30.7003 70.1505 28.4587C72.0082 26.2171 74.2357 24.6031 76.8288 23.6253C79.4219 22.6476 82.2914 22.528 85.4371 23.2624C86.7762 23.6638 87.7625 24.4708 88.3916 25.6919C89.0208 26.9131 89.3906 28.3178 89.5054 29.9104ZM80.5315 32.2161C78.7715 31.8574 77.2964 32.2716 76.1104 33.4586C74.9244 34.6499 74.0444 36.187 73.4705 38.0699C72.8966 39.9529 72.6416 41.7462 72.7053 43.4498C72.7691 45.1535 73.1602 46.3148 73.8744 46.9297C74.8861 47.5573 76.1019 47.2414 77.5302 45.9647C78.9586 44.6923 80.0554 42.9631 80.829 40.7812C81.4412 38.8001 81.7218 36.947 81.6665 35.2305C81.6155 33.5226 81.2371 32.515 80.5315 32.2161Z" fill="black"/>
</svg>
