<svg width="93" height="93" viewBox="0 0 93 93" fill="none" xmlns="http://www.w3.org/2000/svg">
<g clip-path="url(#clip0_6387_24664)">
<rect width="93" height="93" rx="24" fill="white"/>
<rect width="93" height="93" fill="#FF6669"/>
<path d="M59.2279 52.1058C60.5422 58.4425 59.4418 61.5952 58.4026 63.2892C57.3633 64.9675 50.8528 65.6733 50.6235 63.4147C50.4095 61.156 48.866 50.5216 47.9795 48.4668C47.0931 46.4121 45.7788 45.3298 45.1828 46.4278C44.5867 47.5257 43.792 49.1727 45.3356 58.4425C46.8792 67.7124 42.6916 67.2575 42.6916 67.2575C42.6916 67.2575 35.8601 68.1673 34.1331 62.9285C33.2467 60.2777 31.6726 18.3045 32.559 13.2853C33.4454 8.25039 38.718 8.98759 41.362 8.98759C44.006 8.98759 45.3203 11.5443 44.4492 15.0891C43.5475 18.7594 43.792 32.672 45.9928 33.8013C48.1935 34.9306 48.0712 29.6291 49.6148 25.3471C51.1584 21.0494 54.2456 21.9591 58.2803 21.9905C62.315 22.0219 61.3063 27.3234 59.5794 30.4134C58.0816 33.0955 54.8264 37.2207 54.1692 38.8362C53.3745 41.4556 57.8829 45.7847 59.1973 52.1058" fill="white"/>
<path d="M80.6559 44.4407C83.924 49.7265 82.9067 56.5602 77.7801 60.0956C72.6706 63.6192 65.6607 62.3464 62.1253 57.2199C58.6017 52.1103 59.8745 45.1004 65.001 41.565C65.001 41.565 70.5869 37.3108 78.2486 40.6221C85.0436 43.5511 80.061 43.4688 80.6559 44.4407Z" fill="#BECACA" stroke="black" stroke-width="0.571846" stroke-miterlimit="10"/>
<path d="M77.4518 58.8897C81.0966 56.3762 82.0112 51.3977 79.4976 47.7529C76.9841 44.1081 72.0056 43.1936 68.3608 45.7071C64.716 48.2207 63.8015 53.1991 66.315 56.8439C68.8456 60.477 73.8241 61.3915 77.4518 58.8897Z" fill="#E6F1F1"/>
<path d="M32.4053 77.7155C35.9289 82.8251 42.9336 84.1267 48.0601 80.5913C53.1697 77.0676 54.4712 70.063 50.9359 64.9364C47.4122 59.8269 40.4076 58.5253 35.281 62.0607C35.281 62.0607 30.0294 65.3054 29.0426 71.8919C28.0188 78.6798 30.2947 71.9582 30.2899 74.5752C30.2681 77.204 30.654 78.0185 31.3728 77.0202C31.8057 76.4452 32.4053 77.7155 32.4053 77.7155Z" fill="#BECACA" stroke="black" stroke-width="0.571846" stroke-miterlimit="10"/>
<path d="M46.8972 79.9613C50.542 77.4478 51.4565 72.4693 48.9429 68.8245C46.4294 65.1797 41.4509 64.2652 37.8061 66.7787C34.1613 69.2922 33.2468 74.2707 35.7604 77.9155C38.2909 81.5486 43.2694 82.4631 46.8972 79.9613Z" fill="#E6F1F1"/>
<path d="M45.3302 64.026C40.8938 62.1848 35.8248 64.2731 33.9835 68.7094C33.9835 68.7094 35.5945 67.1461 37.697 67.2795C37.697 67.2795 34.5086 69.9809 35.4734 74.0403C35.4734 74.0403 36.1829 70.9876 37.9196 70.1167C37.9196 70.1167 35.5973 74.2565 37.9987 77.7022C37.9987 77.7022 38.179 75.6678 40.5488 73.4555C40.5488 73.4555 41.2705 77.381 44.1177 78.8857C44.1177 78.8857 43.3102 76.8037 44.0901 76.0397" stroke="black" stroke-width="0.571846" stroke-miterlimit="10" stroke-linecap="round" stroke-linejoin="round"/>
<path d="M64.5933 55.5164C61.8683 51.565 62.8621 46.1549 66.8135 43.4299C66.8135 43.4299 65.4074 46.7117 66.101 48.1183C66.101 48.1183 69.3711 44.4055 74.0765 44.3774C74.0765 44.3774 70.0852 47.4817 69.3857 48.6175C69.3857 48.6175 74.8682 45.8169 77.7247 47.9183C77.7247 47.9183 74.8047 48.3487 72.9048 49.7846C72.9048 49.7846 76.4561 51.1806 77.1996 53.2062C77.1996 53.2062 74.787 53.0605 72.9746 53.858" stroke="black" stroke-width="0.571846" stroke-miterlimit="10" stroke-linecap="round" stroke-linejoin="round"/>
<path d="M90.3693 86.1475C83.3412 86.2695 77.7479 82.3862 76.5833 81.6814C76.5716 81.6644 76.531 81.6421 76.5023 81.6368C76.4617 81.6145 76.4212 81.5922 76.3807 81.5699C76.3689 81.5528 76.3689 81.5528 76.3689 81.5528C75.0934 80.7235 74.7393 79.0075 75.5803 77.7489C76.4213 76.4904 78.1257 76.1192 79.3842 76.9603C79.3842 76.9603 79.3842 76.9603 79.396 76.9773L79.4077 76.9943C79.4194 77.0113 79.4194 77.0113 79.4482 77.0166C79.46 77.0337 79.46 77.0337 79.4887 77.039C79.4887 77.039 79.4887 77.039 79.5005 77.056C79.541 77.0783 79.5815 77.1006 79.6338 77.14L79.6456 77.157C79.6573 77.174 79.6978 77.1964 79.7266 77.2016C79.7671 77.224 79.7789 77.241 79.8364 77.2516L79.8482 77.2686C79.8887 77.2909 79.9004 77.3079 79.958 77.3185L79.9697 77.3355C80.0508 77.3802 80.1436 77.4419 80.2299 77.4577L80.2416 77.4747C80.3515 77.5247 80.4325 77.5693 80.5541 77.6363L80.5658 77.6533C80.6181 77.6926 80.6756 77.7032 80.7279 77.7426L80.7397 77.7596C80.7919 77.7989 80.8612 77.8265 80.9135 77.8659C80.9658 77.9052 81.0351 77.9328 81.0926 77.9434C81.0926 77.9434 81.1044 77.9605 81.1331 77.9657C81.2717 78.0209 81.3933 78.0879 81.5437 78.1601C81.5437 78.1601 81.5554 78.1772 81.5724 78.1654C81.6247 78.2048 81.7228 78.2377 81.7633 78.26L81.7751 78.277C81.8731 78.3099 81.9371 78.3663 81.9947 78.3769C82.0928 78.4098 82.145 78.4491 82.2143 78.4767C82.2261 78.4937 82.2261 78.4937 82.2549 78.499C82.417 78.5883 82.5843 78.6488 82.7517 78.7093C82.7635 78.7263 82.7805 78.7146 82.7922 78.7316C82.8903 78.7645 82.9596 78.7921 83.0577 78.825C83.0577 78.825 83.0577 78.825 83.0694 78.842C83.1675 78.8749 83.2486 78.9195 83.3466 78.9524C83.3466 78.9524 83.3584 78.9695 83.3754 78.9577C83.4735 78.9906 83.5428 79.0182 83.6409 79.0511C83.6526 79.0681 83.6696 79.0564 83.6814 79.0734C83.8605 79.151 84.0567 79.2167 84.2528 79.2825C84.2646 79.2995 84.2816 79.2878 84.2933 79.3048C84.3914 79.3377 84.4778 79.3536 84.5876 79.4035C84.5876 79.4035 84.5876 79.4035 84.5993 79.4205C84.7262 79.4587 84.7955 79.4863 84.9223 79.5245C84.9341 79.5415 84.9511 79.5298 84.9629 79.5468C85.0609 79.5797 85.1473 79.5956 85.2453 79.6285C85.2571 79.6455 85.2859 79.6508 85.2859 79.6508C85.4127 79.689 85.482 79.7166 85.6089 79.7547C86.6237 80.0601 87.7067 80.3186 88.8918 80.5065C89.7722 80.6534 90.6807 80.4038 91.3714 79.8018C92.8602 78.4987 95.1595 76.1842 97.0565 72.7398C97.7261 71.5241 98.5583 70.7994 99.582 70.5709C101.023 70.2556 102.27 71.0796 102.612 71.321C102.757 71.422 102.885 71.5348 102.996 71.6593C104.36 72.9807 104.217 74.8137 103.416 76.0945C99.9294 81.716 94.6231 84.7722 92.4701 85.8046C92.4807 85.747 91.8663 86.0953 90.3693 86.1475Z" fill="#BECACA" stroke="black" stroke-width="0.571846" stroke-miterlimit="10"/>
<path d="M83.5413 86.7083L86.1841 86.8962L88.9633 80.4308L86.1255 78.7939L84.6902 78.7534L83.6906 77.9599L82.445 77.9394L81.4419 76.9221L79.5597 76.5615L78.7498 75.788L76.9973 76.0164L74.9382 77.9139L74.5969 80.6625L77.2033 83.6401L78.8683 83.3212L80.7722 84.6973L81.9457 84.8682L83.5413 86.7083Z" fill="#FF4044" stroke="black" stroke-width="0.571846" stroke-miterlimit="10" stroke-linecap="round" stroke-linejoin="round"/>
<path d="M90.13 86.5361L90.5753 79.8204L89.4524 78.4837L88.2191 79.6107L87.66 78.3627L86.9241 79.3728L85.3118 86.6922L86.2791 87.9854L87.6475 86.6899L88.3839 88.268L90.13 86.5361Z" fill="#FF4044" stroke="black" stroke-width="0.571846" stroke-miterlimit="10" stroke-linecap="round" stroke-linejoin="round"/>
<path d="M84.163 81.7801L84.6893 78.7532" stroke="black" stroke-width="0.571846" stroke-miterlimit="10" stroke-linecap="round" stroke-linejoin="round"/>
<path d="M82.985 83.4228L81.9461 84.8681" stroke="black" stroke-width="0.571846" stroke-miterlimit="10" stroke-linecap="round" stroke-linejoin="round"/>
<path d="M80.8962 81.9239C80.8962 81.9239 81.8106 80.5896 81.8541 79.7051L80.8962 81.9239Z" fill="white"/>
<path d="M80.8962 81.9239C80.8962 81.9239 81.8106 80.5896 81.8541 79.7051" stroke="black" stroke-width="0.571846" stroke-miterlimit="10" stroke-linecap="round" stroke-linejoin="round"/>
<path d="M88.1533 83.4511L87.6476 86.69" stroke="black" stroke-width="0.571846" stroke-miterlimit="10" stroke-linecap="round" stroke-linejoin="round"/>
<path d="M64.5831 102.042C68.6132 96.2968 68.5288 89.4689 68.5993 88.1135C68.5875 88.0964 68.6099 88.0559 68.5981 88.0389C68.6087 87.9813 68.5969 87.9643 68.6075 87.9067C68.5958 87.8897 68.5958 87.8897 68.5958 87.8897C68.6234 86.3627 67.4101 85.1135 65.8949 85.1029C64.3796 85.0923 63.1187 86.2886 63.1081 87.8038C63.1081 87.8038 63.1081 87.8038 63.1198 87.8209L63.1316 87.8379C63.1433 87.8549 63.1433 87.8549 63.121 87.8955C63.1328 87.9125 63.1328 87.9125 63.1104 87.953C63.1104 87.953 63.1104 87.953 63.1222 87.97C63.1116 88.0276 63.1234 88.0446 63.1245 88.1192L63.1363 88.1362C63.148 88.1533 63.1257 88.1938 63.1374 88.2108C63.1269 88.2684 63.1269 88.2684 63.1163 88.3259L63.1281 88.343C63.1175 88.4005 63.1175 88.4005 63.1069 88.4581L63.1186 88.4751C63.1198 88.5497 63.0987 88.6648 63.0828 88.7511L63.0946 88.7682C63.0734 88.8833 63.0693 88.9866 63.0599 89.1188L63.0716 89.1358C63.0611 89.1934 63.0505 89.2509 63.0399 89.3085L63.0517 89.3255C63.0411 89.3831 63.0423 89.4577 63.0317 89.5152C63.0211 89.5728 63.0223 89.6474 62.9947 89.7167C62.9947 89.7167 63.0065 89.7337 62.9841 89.7742C62.9577 89.9181 62.9483 90.0502 62.9166 90.2229C62.9166 90.2229 62.9283 90.2399 62.9113 90.2517C62.9007 90.3092 62.8849 90.3956 62.886 90.4701L62.8978 90.4872C62.8819 90.5735 62.8661 90.6598 62.8502 90.7462C62.8344 90.8325 62.8238 90.8901 62.8026 91.0052C62.8144 91.0222 62.8144 91.0222 62.7921 91.0627C62.7603 91.2354 62.7286 91.4081 62.6916 91.6095C62.7034 91.6265 62.6863 91.6383 62.681 91.667C62.6652 91.7534 62.6323 91.8515 62.6164 91.9378C62.6164 91.9378 62.6164 91.9378 62.6282 91.9548C62.6123 92.0412 62.5912 92.1563 62.5753 92.2426C62.5753 92.2426 62.5871 92.2596 62.57 92.2714C62.5542 92.3577 62.5213 92.4558 62.5054 92.5421C62.5172 92.5591 62.5001 92.5709 62.4949 92.5997C62.4579 92.8011 62.4091 92.9855 62.3433 93.1817C62.3551 93.1987 62.338 93.2104 62.3328 93.2392C62.3169 93.3256 62.267 93.4354 62.2629 93.5387C62.2629 93.5387 62.2629 93.5387 62.2746 93.5558C62.2364 93.6826 62.2206 93.769 62.1877 93.867C62.1994 93.8841 62.1824 93.8958 62.1771 93.9246C62.1612 94.0109 62.1113 94.1207 62.0955 94.2071C62.1072 94.2241 62.0849 94.2646 62.0849 94.2646C62.0467 94.3915 62.0309 94.4778 61.998 94.5759C61.6925 95.5907 61.2955 96.6185 60.7845 97.6997C60.4128 98.509 59.6763 99.1174 58.8135 99.3605C56.9048 99.8726 53.7005 100.474 49.781 100.111C48.4073 99.9775 47.3272 100.27 46.5696 100.994C45.5066 102.003 45.4842 103.501 45.4966 103.92C45.4936 104.098 45.5195 104.281 45.5506 104.436C45.89 106.313 47.4939 107.217 48.9868 107.268C55.6021 107.531 61.1092 104.839 63.1565 103.654C63.069 103.563 63.7068 103.249 64.5831 102.042Z" fill="#BECACA" stroke="black" stroke-width="0.571846" stroke-miterlimit="10"/>
<path d="M69.3158 96.7966L67.9626 99.0618L61.0655 97.6609L61.358 94.368L62.1544 93.1905L62.0652 91.8949L62.7723 90.8795L62.5145 89.4488L63.308 87.7204L63.1242 86.6157L64.3199 85.2885L67.0597 84.7059L69.5134 86.0045L70.4289 89.8466L69.2308 91.0247L69.2736 93.3827L68.7391 94.4298L69.3158 96.7966Z" fill="#FF4044" stroke="black" stroke-width="0.571846" stroke-miterlimit="10" stroke-linecap="round" stroke-linejoin="round"/>
<path d="M65.3987 102.086L59.6398 98.619L59.2058 96.9329L60.8185 96.5746L60.1285 95.3918L61.3847 95.3549L68.3053 98.2474L68.8115 99.7832L66.9463 100.14L67.8137 101.653L65.3987 102.086Z" fill="#FF4044" stroke="black" stroke-width="0.571846" stroke-miterlimit="10" stroke-linecap="round" stroke-linejoin="round"/>
<path d="M64.9331 94.4893L62.1523 93.1902" stroke="black" stroke-width="0.571846" stroke-miterlimit="10" stroke-linecap="round" stroke-linejoin="round"/>
<path d="M66.9117 91.8935C66.9117 91.8935 65.2931 91.8788 64.5625 91.4025L66.9117 91.8935Z" fill="white"/>
<path d="M66.9117 91.8935C66.9117 91.8935 65.2931 91.8788 64.5625 91.4025" stroke="black" stroke-width="0.571846" stroke-miterlimit="10" stroke-linecap="round" stroke-linejoin="round"/>
<path d="M80.0781 96.4376C76.7405 96.2261 75.4825 97.2445 74.2075 99.0034C71.6626 102.492 71.9075 106.018 74.2213 109.373C76.6526 112.899 80.8917 114.6 84.5922 115.265C84.5582 115.288 84.5411 115.3 84.5071 115.323C81.7649 117.214 80.5844 120.24 81.7942 121.994C83.004 123.749 91.7237 115.147 91.7237 115.147C91.7237 115.147 91.1259 112.895 87.6322 109.323C83.1471 104.751 86.9259 96.8923 80.0781 96.4376Z" fill="#BECACA" stroke="black" stroke-width="0.571846" stroke-miterlimit="10"/>
<path d="M83.7144 115.416C83.7144 115.416 68.4718 111.754 72.3682 101.15C73.7384 97.4157 75.4586 96.2294 79.9761 95.9288C81.7074 95.8155 83.8915 97.8529 84.9027 101.579C85.6944 104.476 85.5821 106.463 89.4223 111.631C89.104 111.825 85.8756 114.906 83.7144 115.416Z" fill="#297E88" stroke="black" stroke-width="0.571846" stroke-miterlimit="10" stroke-linecap="round" stroke-linejoin="round"/>
<path d="M81.6252 95.369C82.6137 92.1742 84.0127 91.3602 86.1099 90.7935C90.2756 89.6549 93.4839 91.1367 95.7978 94.4919C98.2291 98.0175 98.3124 102.584 97.6188 106.28C97.6528 106.256 97.6699 106.244 97.7039 106.221C100.446 104.33 103.694 104.302 104.904 106.056C106.113 107.81 94.974 112.904 94.974 112.904C94.974 112.904 93.0818 111.545 90.9847 107.009C88.305 101.192 79.6165 101.931 81.6252 95.369Z" fill="#BECACA" stroke="black" stroke-width="0.571846" stroke-miterlimit="10"/>
<path d="M98.0381 105.539C98.0381 105.539 100.032 89.9894 88.7357 89.8629C84.758 89.8164 83.0378 91.0027 81.1513 95.1184C80.4301 96.6965 81.5582 99.4621 84.6814 101.731C87.108 103.501 89.0056 104.102 92.4711 109.529C92.7659 109.3 96.81 107.366 98.0381 105.539Z" fill="#297E88" stroke="black" stroke-width="0.571846" stroke-miterlimit="10" stroke-linecap="round" stroke-linejoin="round"/>
<path d="M78.9199 78.614C83.0174 80.4377 86.9399 83.5381 88.9249 86.4164C92.7539 91.9688 91.353 99.5948 85.8007 103.424C80.2483 107.253 72.6223 105.852 68.7933 100.3C64.9643 94.7473 62.865 82.0458 68.4173 78.2168C71.1201 76.378 75.0943 76.9296 78.9199 78.614Z" fill="#BECACA" stroke="black" stroke-width="0.571846" stroke-miterlimit="10"/>
<path d="M83.6142 100.256C87.5997 97.5074 87.5587 90.5239 83.5065 84.648C79.4543 78.772 72.9413 76.2518 68.9558 79.0003C64.9704 81.7487 65.0114 88.7322 69.0636 94.6082C73.1158 100.484 79.6288 103.004 83.6142 100.256Z" fill="#E6F1F1"/>
<path d="M64.1078 83.7766C64.1078 83.7766 64.5306 86.5763 64.7566 89.6372C64.9991 93.0136 66.2658 95.8344 66.2658 95.8344C66.2658 95.8344 85.3438 82.0998 85.1465 81.9594C84.9491 81.819 81.1823 79.4909 79.7129 78.745C76.9938 77.3531 75.6107 77.3519 73.8541 76.9548C72.0199 78.1946 71.6987 78.5669 71.6987 78.5669L71.8184 83.2594L67.6334 81.3453L64.1078 83.7766Z" fill="#FF4044" stroke="black" stroke-width="0.571846" stroke-miterlimit="10" stroke-linecap="round" stroke-linejoin="round"/>
<path d="M90.3161 88.2944C92.4872 93.1555 91.8839 99.6786 86.025 103.719C79.7232 108.065 71.7255 104.558 69.1773 101.264C66.3654 97.6237 65.8727 95.8524 65.9544 94.1122C67.5267 90.8164 67.0675 85.7046 67.0675 85.7046L76.2118 79.6498C76.2118 79.6498 81.3059 82.4448 84.529 81.5792C86.1159 82.4954 88.2101 83.5643 90.3161 88.2944Z" fill="#297E88" stroke="black" stroke-width="0.571846" stroke-miterlimit="10" stroke-linecap="round" stroke-linejoin="round"/>
<path d="M64.2447 83.6828L66.1146 87.2689L67.6223 81.3284L64.2447 83.6828Z" fill="#FF4044"/>
<path d="M71.6875 78.55L77.6961 79.2819L75.0939 76.2009L71.6875 78.55Z" fill="#FF4044"/>
<path d="M67.7198 81.2866L64.1091 83.7766L66.1539 87.5436L67.7198 81.2866ZM67.7198 81.2866L71.2788 82.8031" stroke="black" stroke-width="0.571846" stroke-miterlimit="10" stroke-linecap="round" stroke-linejoin="round"/>
<path d="M71.7894 82.4508L71.5346 78.6557L77.6965 79.2819L75.1453 76.1657L71.5346 78.6557" stroke="black" stroke-width="0.571846" stroke-miterlimit="10" stroke-linecap="round" stroke-linejoin="round"/>
<path d="M69.1026 88.5763C68.5687 89.2963 67.5439 89.4501 66.8238 88.9163L62.5561 85.7524L64.5118 83.122L68.7796 86.2858C69.4708 86.8144 69.6247 87.8392 69.1026 88.5763Z" fill="#297E88" stroke="black" stroke-width="0.571846" stroke-miterlimit="10" stroke-linecap="round" stroke-linejoin="round"/>
<path d="M77.4972 82.7857C78.3599 82.5426 78.868 81.6393 78.6249 80.7766L77.1843 75.663L74.0305 76.5562L75.4711 81.6698C75.7024 82.5155 76.6227 83.0118 77.4972 82.7857Z" fill="#297E88" stroke="black" stroke-width="0.571846" stroke-miterlimit="10" stroke-linecap="round" stroke-linejoin="round"/>
<path d="M61.588 56.4367C66.8543 54.4888 72.6491 55.4938 75.9613 60.2967L77.2298 62.1362C81.0119 67.6204 78.6455 73.7006 73.1613 77.4827L65.9739 82.4393C60.4897 86.2213 54.0711 86.4255 50.2891 80.9413L49.1968 79.3574C46.6245 75.6274 46.4302 70.9361 48.3161 67.1475C48.3161 67.1475 50.6659 62.2096 54.6344 58.0152C57.1633 55.3413 55.4536 58.6566 56.2201 58.8569C57.044 59.0677 57.6367 56.2464 58.5264 56.9899C59.3756 57.7111 60.5496 56.8261 61.588 56.4367Z" fill="#BECACA" stroke="black" stroke-width="0.571846" stroke-miterlimit="10"/>
<path d="M47.0674 73.0607C46.9664 71.0192 47.3876 68.9696 48.3173 67.1472C48.3173 67.1472 48.3619 67.0662 48.4171 66.9276C48.9293 65.921 51.164 61.6908 54.6356 58.015C57.1645 55.3411 55.4548 58.6563 56.2213 58.8566C57.0452 59.0674 57.6379 56.2461 58.5276 56.9896C59.3768 57.7108 60.5508 56.8258 61.5892 56.4365C62.7074 56.0172 63.8567 55.7523 64.9849 55.6026C67.2648 55.3372 69.5188 55.6174 71.5362 56.5383C60.1637 61.7673 50.8355 69.6327 47.0674 73.0607Z" fill="#BECACA" stroke="black" stroke-width="0.571846" stroke-miterlimit="10"/>
<path d="M73.9977 58.1066C74.7189 58.715 75.3731 59.445 75.9604 60.2966L77.2289 62.136C81.0109 67.6203 78.6446 73.7005 73.1604 77.4825L65.973 82.4391C60.4887 86.2212 54.0702 86.4254 50.2882 80.9412L49.1958 79.3572C48.5616 78.4375 48.0753 77.4409 47.7094 76.4366" fill="#BECACA"/>
<path d="M73.9977 58.1066C74.7189 58.715 75.3731 59.445 75.9604 60.2966L77.2289 62.136C81.0109 67.6203 78.6446 73.7005 73.1604 77.4825L65.973 82.4391C60.4887 86.2212 54.0702 86.4254 50.2882 80.9412L49.1958 79.3572C48.5616 78.4375 48.0753 77.4409 47.7094 76.4366" stroke="black" stroke-width="0.571846" stroke-miterlimit="10"/>
<path d="M51.1975 73.9832C51.1975 73.9832 51.8694 71.459 55.2093 70.362" stroke="black" stroke-width="0.953063" stroke-miterlimit="10" stroke-linecap="round" stroke-linejoin="round"/>
<path d="M70.9134 60.663C70.9134 60.663 68.3152 60.3939 66.1028 63.126" stroke="black" stroke-width="0.953063" stroke-miterlimit="10" stroke-linecap="round" stroke-linejoin="round"/>
<path d="M56.481 82.0491C57.588 81.2857 58.2676 80.3395 57.9974 79.9478C57.7273 79.5561 56.6014 79.855 55.4944 80.6184C54.3873 81.3819 53.7078 82.328 53.9779 82.7197C54.231 83.1232 55.3569 82.8243 56.481 82.0491Z" fill="#FF9294"/>
<path d="M76.1724 68.471C77.2795 67.7076 77.959 66.7615 77.6888 66.3697C77.4187 65.978 76.2928 66.2769 75.1858 67.0404C74.0787 67.8038 73.3992 68.75 73.6693 69.1417C73.9224 69.5452 75.0483 69.2462 76.1724 68.471Z" fill="#FF9294"/>
<path d="M57.3094 78.8392C58.6038 77.9466 58.9263 76.1912 58.0336 74.8968C57.141 73.6023 55.3856 73.2799 54.0912 74.1725C52.7968 75.0652 52.4743 76.8206 53.3669 78.115C54.2596 79.4094 56.015 79.7319 57.3094 78.8392Z" fill="white" stroke="black" stroke-width="0.571846" stroke-miterlimit="10"/>
<path d="M57.2525 77.6981C58.1041 77.1109 58.3156 75.9598 57.7283 75.1082C57.141 74.2566 55.9899 74.0451 55.1383 74.6324C54.2867 75.2197 54.0753 76.3708 54.6626 77.2224C55.2498 78.074 56.4009 78.2854 57.2525 77.6981Z" fill="black"/>
<path d="M72.536 68.3389C73.8304 67.4462 74.1529 65.6908 73.2602 64.3964C72.3676 63.102 70.6121 62.7795 69.3177 63.6722C68.0233 64.5648 67.7008 66.3202 68.5935 67.6147C69.4862 68.9091 71.2586 69.2198 72.536 68.3389Z" fill="white" stroke="black" stroke-width="0.571846" stroke-miterlimit="10"/>
<path d="M71.5416 67.8437C72.3932 67.2564 72.6046 66.1053 72.0173 65.2538C71.4301 64.4022 70.279 64.1907 69.4274 64.778C68.5758 65.3653 68.3644 66.5164 68.9516 67.3679C69.5389 68.2195 70.69 68.431 71.5416 67.8437Z" fill="black"/>
<path d="M94.5938 72.9559C88.1747 72.0296 79.2778 71.5554 73.1188 73.6666C72.1721 74.043 71.2671 74.5164 70.3609 74.9151L70.0508 74.174C71.9554 73.7652 73.8119 73.2138 75.71 72.7593C80.433 71.6635 85.2031 70.6358 90.0682 70.5479C91.0325 70.5614 92.0204 70.609 92.953 70.7952C92.0033 70.6207 91.0273 70.5902 90.0576 70.6054C84.2593 70.8343 78.5907 72.3811 73.0319 73.9779C72.1181 74.2562 71.1872 74.5463 70.298 74.9333C70.1042 75.0167 69.8676 74.9286 69.7724 74.7178C69.6773 74.5069 69.7942 74.2756 69.988 74.1922C70.9036 73.6613 71.9431 73.3465 72.9785 73.1351C80.0448 71.4286 87.4436 71.8804 94.5938 72.9559Z" fill="#2D8200"/>
<path d="M66.6599 69.8032C65.5646 68.3972 61.1888 66.3886 60.3724 67.027C59.5731 67.6536 60.4281 72.3919 61.5351 73.8149C62.6304 75.2209 64.6777 75.4929 66.1007 74.3859C67.5003 73.2448 67.7552 71.2092 66.6599 69.8032Z" fill="black"/>
<path d="M69.331 55.2706L45.6739 71.5851L44.7021 62.7052C44.4096 60.8964 45.2466 59.0123 46.8476 57.9083L56.3513 51.3543C58.0374 50.1915 60.2345 50.134 61.8525 51.2046L69.331 55.2706Z" fill="#FBAF00" stroke="black" stroke-width="0.571846" stroke-miterlimit="10" stroke-linecap="round" stroke-linejoin="round"/>
<path d="M68.3113 54.9938L45.6608 70.3627L45.2768 66.3803L64.7781 52.9317L68.3113 54.9938Z" fill="#E84258" stroke="black" stroke-width="0.571846" stroke-miterlimit="10" stroke-linecap="round" stroke-linejoin="round"/>
<path d="M82.164 48.4059C82.9509 49.547 79.6755 53.2886 74.001 58.1066C73.2446 57.447 72.4159 56.9378 71.5373 56.5385C60.1478 61.7792 50.8367 69.6329 47.0686 73.0608C47.1149 74.1849 47.3222 75.3237 47.701 76.4196C40.4602 80.5334 35.1557 82.6082 34.31 81.3819C33.2764 79.8831 39.237 73.9128 48.4065 66.9107C50.7088 65.1472 53.2283 63.3342 55.8853 61.5019C59.0361 59.329 62.1095 57.3352 64.9573 55.5975C74.1268 50.053 81.1774 46.9752 82.164 48.4059Z" fill="#FBAF00" stroke="black" stroke-width="0.571846" stroke-miterlimit="10" stroke-linecap="round" stroke-linejoin="round"/>
<path d="M70.8479 73.4734C70.8479 73.4734 68.0024 77.5468 63.1836 78.7589" stroke="black" stroke-width="0.812398" stroke-miterlimit="10" stroke-linecap="round" stroke-linejoin="round"/>
<path d="M82.9983 93.1668L77.1223 97.219C75.9131 98.0529 74.2728 97.7516 73.4388 96.5423L69.4219 90.7175L79.6409 83.6702L83.6579 89.495C84.5089 90.6925 84.2075 92.3328 82.9983 93.1668Z" fill="#5BB3BD" stroke="black" stroke-width="0.571846" stroke-miterlimit="10" stroke-linecap="round" stroke-linejoin="round"/>
<path d="M70.5781 92.3575L80.7972 85.3102" stroke="black" stroke-width="0.571846" stroke-miterlimit="10" stroke-linecap="round" stroke-linejoin="round"/>
<path d="M68.1722 88.1087C68.5014 87.8817 68.5843 87.4307 68.3572 87.1015C68.1302 86.7723 67.6792 86.6894 67.35 86.9165C67.0208 87.1435 66.938 87.5945 67.165 87.9237C67.392 88.2529 67.843 88.3357 68.1722 88.1087Z" fill="#EAB234"/>
<path d="M77.4378 81.7186C77.7671 81.4916 77.8499 81.0407 77.6228 80.7114C77.3958 80.3822 76.9449 80.2994 76.6156 80.5264C76.2864 80.7534 76.2036 81.2044 76.4306 81.5336C76.6577 81.8628 77.1086 81.9457 77.4378 81.7186Z" fill="#EAB234"/>
<path d="M73.8301 55.5318C73.0549 55.8653 72.2967 56.1872 71.5332 56.5378C60.1437 61.7785 50.8326 69.6322 47.0644 73.0601C45.9045 74.1114 45.2661 74.7527 45.2661 74.7527" stroke="black" stroke-width="0.571846" stroke-miterlimit="10" stroke-linecap="round" stroke-linejoin="round"/>
</g>
<rect x="0.389121" y="0.389121" width="92.2218" height="92.2218" rx="23.6109" stroke="white" stroke-width="0.778243"/>
<defs>
<clipPath id="clip0_6387_24664">
<rect width="93" height="93" rx="24" fill="white"/>
</clipPath>
</defs>
</svg>
