<svg width="652" height="171" viewBox="0 0 652 171" fill="none" xmlns="http://www.w3.org/2000/svg"><path d="M539.831 158.5C539.831 158.5 543.973 169.426 551.741 169.426C559.509 169.426 558.905 169.742 564.13 164.646C569.355 159.537 567.945 59.4489 567.794 54.6562C567.529 45.9435 568.65 32.6785 556.916 36.4468C541.896 40.0887 541.38 47.3725 541.38 51.5328C541.392 55.6932 536.205 146.525 539.831 158.5Z" fill="#00D2C2"></path><path d="M259.844 44.7169C260.36 47.1448 258.811 49.5222 256.394 50.0406C253.977 50.5591 251.61 49.0037 251.094 46.5758C250.578 44.1479 252.126 41.7705 254.543 41.2521C256.961 40.7336 259.34 42.289 259.844 44.7169Z" fill="#00D2C2"></path><path d="M288.159 34.5753C288.675 37.0032 287.126 39.3806 284.709 39.8991C282.292 40.4175 279.925 38.8621 279.409 36.4342C278.892 34.0063 280.441 31.6289 282.858 31.1105C285.275 30.6047 287.642 32.1474 288.159 34.5753Z" fill="#00D2C2"></path><path d="M244.157 31.9324C241.903 35.4099 238.907 48.1059 238.907 48.1059C238.907 48.1059 228.998 44.4514 227.173 35.7766C225.347 27.1145 231.038 17.4281 239.436 15.6451C247.846 13.8621 254.632 19.9445 254.632 19.9445C254.632 19.9445 248.878 24.636 244.157 31.9324Z" fill="#00D2C2"></path><path d="M285.313 17.1752C289.229 18.4777 299.477 26.5075 299.477 26.5075C299.477 26.5075 304.941 17.4407 300.975 9.52471C297.009 1.60867 286.547 -2.37464 278.88 1.49486C271.2 5.37701 269.689 14.3806 269.689 14.3806C269.689 14.3806 277.079 14.4438 285.313 17.1752Z" fill="#00D2C2"></path><path d="M280.454 55.5035C278.389 47.7518 272.056 45.3113 272.056 45.3113C271.678 45.2354 271.364 45.2986 271.087 45.3871C270.81 45.4377 270.495 45.5515 270.205 45.8044C270.205 45.8044 265.937 51.1029 268.002 58.8545C269.979 66.29 273.428 66.3406 276.475 65.5819L276.878 65.4807C279.837 64.6082 282.43 62.939 280.454 55.5035Z" fill="#00D2C2"></path><path d="M352.896 105.048C354.457 101.305 362.112 91.8211 365.624 85.6502C369.691 78.5055 372.045 66.3153 362.552 66.2521C353.06 66.1889 345.808 64.1024 342.169 73.9911C338.543 83.8798 338.82 96.07 333.633 93.465C328.446 90.8601 327.88 58.8419 330.008 50.3947C332.06 42.2511 328.975 36.3457 322.756 36.3457C316.536 36.3457 304.626 34.7903 302.033 46.2344C302.033 46.2344 302.02 54.5804 302.033 60.764C308.579 61.8135 313.326 61.3583 316.159 61.3583C321.937 61.3583 323.146 67.1499 323.196 68.2627C323.247 69.3755 323.07 73.3715 320.074 75.1671C317.078 76.9628 315.189 78.1261 305.52 78.4423C304.387 78.4802 303.241 78.4423 302.108 78.3664C302.121 80.5414 302.146 82.8049 302.159 85.1317C305.885 85.726 309.209 86.0422 310.82 86.2066C315.189 86.6365 316.788 91.3406 316.939 93.6927C317.09 96.0447 316.045 98.4473 312.835 99.813C310.594 100.774 307.358 101.621 302.347 101.723C302.75 127.696 303.669 154.378 305.747 160.498C309.813 172.55 325.878 170.476 325.878 170.476C325.878 170.476 335.723 171.513 332.097 150.18C328.472 128.847 330.347 125.053 331.745 122.524C333.142 119.995 336.24 122.474 338.317 127.216C340.394 131.958 344.02 156.414 344.536 161.624C345.052 166.834 360.362 165.215 362.817 161.333C365.259 157.464 367.853 150.18 364.743 135.612C361.621 121.032 351.008 111.08 352.896 105.048Z" fill="#00D2C2"></path><path d="M405.446 66.9223C405.446 66.9223 373.329 62.2435 373.329 121.032C373.329 179.821 417.885 166.821 417.885 166.821C417.885 166.821 440.686 167.858 440.686 117.39C440.673 66.9223 405.446 66.9223 405.446 66.9223ZM407.876 140.013L407.171 140.076C401.657 140.493 395.689 139.406 394.392 125.926C393.045 111.877 401.997 103.923 401.997 103.923C402.576 103.556 403.142 103.468 403.659 103.455C404.162 103.379 404.729 103.354 405.371 103.607C405.371 103.607 415.657 109.702 417.004 123.751C418.288 137.231 413.315 139.381 407.876 140.013Z" fill="#00D2C2"></path><path d="M522.243 86.7124C522.797 98.3209 523.263 110.309 523.653 122.651C523.842 128.607 524.056 134.487 524.295 140.291C524.384 143.199 524.598 145.956 524.925 148.561C525.718 153.771 525.643 157.957 524.711 161.105C523.779 164.254 520.468 165.746 514.777 165.557C510.132 165.051 507.06 163.42 505.536 160.663C504.013 157.919 503.119 155.2 502.855 152.519C502.628 151.141 502.339 150.041 501.999 149.219C501.659 148.397 501.117 148.106 500.375 148.346C499.632 148.586 498.499 149.535 497 151.179C493.009 155.377 488.842 158.766 484.486 161.333C480.13 163.9 475.384 164.798 470.234 164.014C463.071 162.496 457.921 158.463 454.774 151.912C451.639 145.362 450.015 137.85 449.901 129.391C449.788 120.931 450.657 113.065 452.495 105.807C455.277 96.854 459.419 89.0518 464.921 82.4129C470.423 75.7741 477.02 70.9941 484.7 68.111C492.38 65.2152 500.878 64.8611 510.195 67.0361C514.161 68.2121 517.081 70.6148 518.945 74.2313C520.808 77.8353 521.903 82.0083 522.243 86.7124ZM495.666 93.5536C490.454 92.4913 486.085 93.7179 482.572 97.246C479.06 100.774 476.454 105.326 474.754 110.903C473.054 116.48 472.299 121.791 472.488 126.836C472.677 131.882 473.835 135.321 475.95 137.142C478.946 139.014 482.547 138.065 486.777 134.297C491.008 130.529 494.256 125.407 496.547 118.946C498.36 113.078 499.191 107.59 499.027 102.507C498.876 97.4104 497.756 94.4387 495.666 93.5536Z" fill="#00D2C2"></path><path d="M648.621 86.7124C649.175 98.3209 649.641 110.309 650.031 122.651C650.22 128.607 650.434 134.487 650.673 140.291C650.761 143.199 650.975 145.956 651.303 148.561C652.096 153.771 652.02 157.957 651.089 161.105C650.157 164.254 646.846 165.746 641.155 165.557C636.509 165.051 633.438 163.42 631.914 160.663C630.391 157.919 629.497 155.2 629.22 152.519C628.993 151.141 628.704 150.041 628.364 149.219C628.024 148.397 627.483 148.106 626.74 148.346C625.997 148.586 624.864 149.535 623.366 151.179C619.375 155.377 615.207 158.766 610.851 161.333C606.495 163.9 601.749 164.798 596.599 164.014C589.436 162.496 584.286 158.463 581.139 151.912C578.004 145.362 576.38 137.85 576.267 129.391C576.153 120.931 577.022 113.065 578.848 105.807C581.63 96.854 585.772 89.0518 591.274 82.4129C596.776 75.7741 603.373 70.9941 611.053 68.111C618.732 65.2152 627.231 64.8611 636.547 67.0361C640.513 68.2121 643.434 70.6148 645.297 74.2313C647.186 77.8353 648.281 82.0083 648.621 86.7124ZM622.044 93.5536C616.831 92.4913 612.463 93.7179 608.95 97.246C605.438 100.774 602.831 105.326 601.132 110.903C599.432 116.48 598.677 121.791 598.866 126.836C599.054 131.882 600.213 135.321 602.328 137.142C605.324 139.014 608.925 138.065 613.155 134.297C617.385 130.529 620.634 125.407 622.938 118.946C624.75 113.078 625.581 107.59 625.418 102.507C625.254 97.4104 624.134 94.4387 622.044 93.5536Z" fill="#00D2C2"></path><path d="M156.808 158.5C156.808 158.5 160.95 169.426 168.718 169.426C176.486 169.426 175.882 169.742 181.106 164.646C186.331 159.537 184.921 59.4489 184.77 54.6562C184.506 45.9435 185.626 32.6785 173.892 36.4468C158.872 40.0887 158.356 47.3725 158.356 51.5328C158.356 55.6932 153.169 146.525 156.808 158.5Z" fill="#FF6669"></path><path d="M0.352655 158.5C1.47316 164.583 4.49474 169.426 12.2627 169.426C17.7142 169.426 21.2268 168.098 24.6512 164.646C31.3239 154.871 26.3383 107.906 37.1782 107.969C48.0056 108.033 46.9732 123.119 46.9732 123.119C46.9732 123.119 49.6548 156.351 52.6764 160.587C55.2699 164.229 65.6315 165.784 68.7412 156.945C71.8509 148.093 68.225 91.3785 65.6315 83.5763C63.0379 75.7741 54.2376 66.4038 47.502 66.9223C40.7663 67.4408 36.1081 78.8849 31.4372 78.8849C26.7789 78.8849 27.2951 71.0826 28.3275 66.3912C29.3599 61.7124 32.4696 31.0725 17.4498 34.7144C2.42999 38.3689 1.90122 45.6527 1.90122 49.813C1.90122 53.9734 -0.981878 151.242 0.352655 158.5Z" fill="#FF6669"></path><path d="M110.175 66.9223C110.175 66.9223 78.0577 62.2435 78.0577 121.032C78.0577 179.821 122.613 166.821 122.613 166.821C122.613 166.821 145.401 167.858 145.401 117.39C145.401 66.9223 110.175 66.9223 110.175 66.9223ZM113.914 140.013C113.901 140.013 113.209 140.076 113.196 140.089C107.694 140.506 101.714 139.419 100.43 125.926C99.0829 111.877 108.034 103.923 108.034 103.923C108.613 103.556 109.18 103.468 109.684 103.455C110.187 103.379 110.754 103.354 111.396 103.607C111.396 103.607 121.682 109.702 123.029 123.751C124.326 137.231 119.353 139.381 113.914 140.013Z" fill="#FF6669"></path><path d="M265.081 88.5839C265.635 100.192 266.101 112.18 266.491 124.522C266.68 130.478 266.894 136.358 267.133 142.163C267.222 145.071 267.436 147.828 267.763 150.433C268.556 155.643 268.48 159.828 267.549 162.977C266.617 166.126 263.306 167.618 257.615 167.428C252.97 166.922 249.898 165.291 248.374 162.534C246.851 159.79 245.957 157.072 245.693 154.391C245.466 153.012 245.177 151.912 244.837 151.09C244.497 150.268 243.955 149.977 243.213 150.218C242.47 150.458 241.337 151.406 239.838 153.05C235.847 157.249 231.68 160.638 227.324 163.205C222.968 165.784 218.221 166.669 213.072 165.885C205.909 164.368 200.759 160.334 197.612 153.784C194.477 147.233 192.853 139.722 192.739 131.262C192.626 122.802 193.495 114.937 195.333 107.679C198.115 98.7256 202.257 90.9233 207.759 84.2845C213.261 77.6456 219.858 72.8657 227.538 69.9699C235.218 67.0741 243.716 66.72 253.033 68.895C256.998 70.0837 259.919 72.4737 261.783 76.0902C263.646 79.7068 264.741 83.8672 265.081 88.5839ZM238.504 95.4125C233.292 94.3502 228.923 95.5768 225.41 99.0923C221.898 102.62 219.292 107.173 217.592 112.749C215.892 118.326 215.137 123.637 215.326 128.683C215.515 133.728 216.673 137.168 218.788 138.989C221.784 140.847 225.385 139.912 229.615 136.131C233.846 132.362 237.094 127.241 239.385 120.779C241.198 114.912 242.029 109.424 241.865 104.34C241.714 99.282 240.594 96.2976 238.504 95.4125Z" fill="#FF6669"></path></svg>