<svg width="91" height="24" viewBox="0 0 91 24" fill="none" xmlns="http://www.w3.org/2000/svg">
<path d="M75.3633 22.2502C75.3633 22.2502 75.9415 23.7839 77.026 23.7839C78.1104 23.7839 78.0261 23.8283 78.7555 23.1129C79.4849 22.3958 79.288 8.34553 79.2669 7.67275C79.23 6.44968 79.3864 4.58756 77.7484 5.11655C75.6515 5.62779 75.5795 6.65027 75.5795 7.23429C75.5812 7.81832 74.8571 20.5692 75.3633 22.2502Z" fill="black"/>
<path d="M36.2744 6.27736C36.3465 6.61819 36.1303 6.95192 35.7929 7.0247C35.4554 7.09748 35.125 6.87913 35.0529 6.53831C34.9809 6.19748 35.197 5.86375 35.5345 5.79097C35.872 5.71819 36.2041 5.93653 36.2744 6.27736Z" fill="black"/>
<path d="M40.2276 4.85375C40.2996 5.19457 40.0835 5.5283 39.746 5.60108C39.4085 5.67386 39.0781 5.45552 39.006 5.11469C38.934 4.77386 39.1502 4.44014 39.4876 4.36736C39.8251 4.29635 40.1555 4.51292 40.2276 4.85375Z" fill="black"/>
<path d="M34.0867 4.48248C33.7721 4.97064 33.3538 6.75289 33.3538 6.75289C33.3538 6.75289 31.9705 6.23987 31.7157 5.02212C31.4608 3.80615 32.2553 2.44639 33.4276 2.1961C34.6016 1.9458 35.549 2.79964 35.549 2.79964C35.549 2.79964 34.7458 3.45822 34.0867 4.48248Z" fill="black"/>
<path d="M39.8296 2.41102C40.3762 2.59386 41.8069 3.72108 41.8069 3.72108C41.8069 3.72108 42.5697 2.4483 42.0161 1.33706C41.4624 0.22582 40.0019 -0.33335 38.9315 0.209844C37.8593 0.754813 37.6484 2.01871 37.6484 2.01871C37.6484 2.01871 38.6801 2.02759 39.8296 2.41102Z" fill="black"/>
<path d="M39.1529 7.79141C38.8647 6.70325 37.9806 6.36065 37.9806 6.36065C37.9279 6.35 37.884 6.35887 37.8453 6.3713C37.8066 6.3784 37.7627 6.39438 37.7223 6.42988C37.7223 6.42988 37.1264 7.17366 37.4147 8.26183C37.6906 9.30561 38.1722 9.31271 38.5975 9.2062L38.6538 9.192C39.0668 9.06952 39.4289 8.8352 39.1529 7.79141Z" fill="black"/>
<path d="M49.2655 14.7465C49.4835 14.2211 50.5521 12.8897 51.0425 12.0235C51.6102 11.0205 51.9388 9.30929 50.6136 9.30041C49.2884 9.29153 48.276 8.99864 47.7681 10.3868C47.2619 11.775 47.3005 13.4862 46.5764 13.1205C45.8523 12.7548 45.7732 8.26018 46.0702 7.07438C46.3567 5.93119 45.9261 5.1022 45.0578 5.1022C44.1896 5.1022 42.5269 4.88386 42.1648 6.49036C42.1648 6.49036 42.1631 7.66195 42.1648 8.53C43.0788 8.67734 43.7414 8.61343 44.1369 8.61343C44.9436 8.61343 45.1123 9.42645 45.1194 9.58266C45.1264 9.73887 45.1018 10.2998 44.6835 10.5519C44.2652 10.804 44.0015 10.9673 42.6517 11.0116C42.4935 11.017 42.3336 11.0116 42.1754 11.001C42.1771 11.3063 42.1807 11.6241 42.1824 11.9507C42.7027 12.0341 43.1667 12.0785 43.3916 12.1016C44.0015 12.1619 44.2247 12.8223 44.2458 13.1525C44.2669 13.4826 44.121 13.8199 43.6729 14.0116C43.36 14.1466 42.9083 14.2655 42.2088 14.2797C42.265 17.9258 42.3933 21.6714 42.6833 22.5305C43.251 24.2223 45.4937 23.9311 45.4937 23.9311C45.4937 23.9311 46.8682 24.0767 46.362 21.082C45.8558 18.0874 46.1177 17.5548 46.3128 17.1998C46.5079 16.8448 46.9402 17.1927 47.2302 17.8584C47.5202 18.5241 48.0264 21.9572 48.0985 22.6885C48.1706 23.4199 50.3078 23.1927 50.6505 22.6477C50.9915 22.1045 51.3536 21.082 50.9194 19.0371C50.4836 16.9903 49.0019 15.5933 49.2655 14.7465Z" fill="black"/>
<path d="M56.6008 9.39416C56.6008 9.39416 52.1172 8.73736 52.1172 16.99C52.1172 25.2426 58.3373 23.4178 58.3373 23.4178C58.3373 23.4178 61.5203 23.5633 61.5203 16.4788C61.5186 9.39416 56.6008 9.39416 56.6008 9.39416ZM56.94 19.6545L56.8416 19.6634C56.0718 19.7219 55.2387 19.5693 55.0576 17.677C54.8696 15.7048 56.1192 14.5882 56.1192 14.5882C56.2001 14.5367 56.2792 14.5243 56.3512 14.5225C56.4215 14.5119 56.5006 14.5083 56.5903 14.5438C56.5903 14.5438 58.0262 15.3995 58.2143 17.3716C58.3936 19.264 57.6993 19.5657 56.94 19.6545Z" fill="black"/>
<path d="M72.9052 12.1727C72.9825 13.8023 73.0476 15.4851 73.1021 17.2177C73.1284 18.0538 73.1583 18.8792 73.1917 19.694C73.204 20.1023 73.2339 20.4893 73.2796 20.8549C73.3903 21.5863 73.3798 22.1739 73.2497 22.6159C73.1196 23.0579 72.6574 23.2674 71.863 23.2407C71.2144 23.1697 70.7855 22.9407 70.5729 22.5538C70.3602 22.1685 70.2354 21.7869 70.1985 21.4106C70.1669 21.2171 70.1265 21.0626 70.079 20.9473C70.0315 20.8319 69.956 20.791 69.8523 20.8248C69.7486 20.8585 69.5904 20.9916 69.3812 21.2224C68.8241 21.8117 68.2423 22.2875 67.6342 22.6478C67.026 23.0082 66.3634 23.1342 65.6446 23.0242C64.6445 22.8112 63.9257 22.2449 63.4863 21.3254C63.0486 20.4058 62.8219 19.3514 62.8061 18.1638C62.7902 16.9763 62.9115 15.8721 63.1681 14.8532C63.5566 13.5964 64.1348 12.5011 64.9029 11.5692C65.6709 10.6372 66.5919 9.96622 67.6641 9.56149C68.7362 9.15498 69.9226 9.10528 71.2232 9.4106C71.7768 9.57569 72.1846 9.91297 72.4447 10.4207C72.7048 10.9266 72.8578 11.5124 72.9052 12.1727ZM69.1949 13.1331C68.4673 12.984 67.8574 13.1562 67.367 13.6514C66.8767 14.1467 66.5128 14.7857 66.2756 15.5686C66.0383 16.3514 65.9328 17.097 65.9592 17.8053C65.9856 18.5135 66.1472 18.9964 66.4425 19.252C66.8608 19.5147 67.3635 19.3816 67.9541 18.8526C68.5446 18.3236 68.9981 17.6047 69.318 16.6976C69.5711 15.8739 69.6871 15.1035 69.6642 14.3899C69.6431 13.6745 69.4867 13.2573 69.1949 13.1331Z" fill="black"/>
<path d="M90.5515 12.1727C90.6288 13.8023 90.6939 15.4851 90.7483 17.2177C90.7747 18.0538 90.8046 18.8792 90.838 19.694C90.8503 20.1023 90.8802 20.4893 90.9259 20.8549C91.0366 21.5863 91.0261 22.1739 90.896 22.6159C90.7659 23.0579 90.3037 23.2674 89.5092 23.2407C88.8607 23.1697 88.4318 22.9407 88.2192 22.5538C88.0065 22.1685 87.8817 21.7869 87.843 21.4106C87.8114 21.2171 87.771 21.0626 87.7235 20.9473C87.6761 20.8319 87.6005 20.791 87.4968 20.8248C87.3931 20.8585 87.2349 20.9916 87.0258 21.2224C86.4686 21.8117 85.8868 22.2875 85.2787 22.6478C84.6706 23.0082 84.008 23.1342 83.2891 23.0242C82.289 22.8112 81.5702 22.2449 81.1308 21.3254C80.6931 20.4058 80.4664 19.3514 80.4506 18.1638C80.4348 16.9763 80.556 15.8721 80.8109 14.8532C81.1993 13.5964 81.7776 12.5011 82.5456 11.5692C83.3137 10.6372 84.2347 9.96622 85.3068 9.56149C86.379 9.15498 87.5653 9.10528 88.866 9.4106C89.4196 9.57569 89.8274 9.91297 90.0875 10.4207C90.3511 10.9266 90.504 11.5124 90.5515 12.1727ZM86.8412 13.1331C86.1136 12.984 85.5037 13.1562 85.0133 13.6514C84.5229 14.1467 84.1591 14.7857 83.9218 15.5686C83.6846 16.3514 83.5791 17.097 83.6055 17.8053C83.6318 18.5135 83.7935 18.9964 84.0888 19.252C84.5071 19.5147 85.0098 19.3816 85.6003 18.8526C86.1909 18.3236 86.6444 17.6047 86.966 16.6976C87.2191 15.8739 87.3351 15.1035 87.3122 14.3899C87.2894 13.6745 87.133 13.2573 86.8412 13.1331Z" fill="black"/>
<path d="M21.8917 22.2502C21.8917 22.2502 22.4699 23.7839 23.5543 23.7839C24.6388 23.7839 24.5544 23.8283 25.2838 23.1129C26.0132 22.3958 25.8164 8.34553 25.7953 7.67275C25.7584 6.44968 25.9148 4.58756 24.2767 5.11655C22.1799 5.62779 22.1078 6.65027 22.1078 7.23429C22.1078 7.81832 21.3837 20.5692 21.8917 22.2502Z" fill="black"/>
<path d="M0.0492318 22.2503C0.205658 23.1041 0.627481 23.784 1.71192 23.784C2.47296 23.784 2.96333 23.5976 3.4414 23.113C4.37292 21.7408 3.67691 15.1479 5.1902 15.1568C6.70174 15.1657 6.55762 17.2834 6.55762 17.2834C6.55762 17.2834 6.93198 21.9485 7.35381 22.5432C7.71587 23.0544 9.16237 23.2727 9.5965 22.0319C10.0306 20.7893 9.52444 12.8278 9.16237 11.7325C8.80031 10.6373 7.57175 9.32191 6.63143 9.39469C5.69112 9.46747 5.04081 11.074 4.38874 11.074C3.73843 11.074 3.81049 9.97871 3.95461 9.32013C4.09874 8.66333 4.53286 4.36216 2.43605 4.8734C0.339235 5.38641 0.265416 6.4089 0.265416 6.99292C0.265416 7.57694 -0.137073 21.2313 0.0492318 22.2503Z" fill="black"/>
<path d="M15.3821 9.39416C15.3821 9.39416 10.8984 8.73736 10.8984 16.99C10.8984 25.2426 17.1186 23.4178 17.1186 23.4178C17.1186 23.4178 20.2998 23.5633 20.2998 16.4788C20.2998 9.39416 15.3821 9.39416 15.3821 9.39416ZM15.9041 19.6545C15.9023 19.6545 15.8056 19.6634 15.8039 19.6651C15.0358 19.7237 14.201 19.5711 14.0217 17.677C13.8336 15.7048 15.0833 14.5882 15.0833 14.5882C15.1641 14.5367 15.2432 14.5243 15.3135 14.5225C15.3838 14.5119 15.4629 14.5083 15.5526 14.5438C15.5526 14.5438 16.9885 15.3995 17.1766 17.3716C17.3576 19.264 16.6634 19.5657 15.9041 19.6545Z" fill="black"/>
<path d="M37.0068 12.4351C37.0841 14.0647 37.1491 15.7475 37.2036 17.4801C37.23 18.3162 37.2599 19.1416 37.2933 19.9564C37.3056 20.3647 37.3354 20.7517 37.3811 21.1173C37.4919 21.8487 37.4813 22.4363 37.3513 22.8783C37.2212 23.3203 36.759 23.5298 35.9645 23.5031C35.316 23.4321 34.8871 23.2031 34.6744 22.8162C34.4618 22.4309 34.337 22.0493 34.3001 21.673C34.2684 21.4795 34.228 21.325 34.1806 21.2096C34.1331 21.0943 34.0575 21.0534 33.9538 21.0872C33.8501 21.1209 33.6919 21.254 33.4828 21.4848C32.9256 22.0741 32.3439 22.5499 31.7357 22.9102C31.1276 23.2724 30.465 23.3966 29.7461 23.2866C28.7461 23.0735 28.0272 22.5073 27.5878 21.5878C27.1502 20.6682 26.9234 19.6138 26.9076 18.4262C26.8918 17.2387 27.0131 16.1345 27.2697 15.1156C27.6581 13.8588 28.2364 12.7635 29.0044 11.8316C29.7725 10.8996 30.6935 10.2286 31.7656 9.82211C32.8378 9.4156 34.0241 9.3659 35.3248 9.67122C35.8784 9.83808 36.2862 10.1736 36.5463 10.6813C36.8064 11.189 36.9593 11.773 37.0068 12.4351ZM33.2965 13.3937C32.5688 13.2446 31.959 13.4168 31.4686 13.9103C30.9782 14.4055 30.6144 15.0446 30.3771 15.8274C30.1398 16.6103 30.0344 17.3558 30.0607 18.0641C30.0871 18.7724 30.2488 19.2552 30.5441 19.5108C30.9624 19.7718 31.4651 19.6404 32.0556 19.1097C32.6462 18.5807 33.0996 17.8617 33.4195 16.9546C33.6726 16.131 33.7886 15.3606 33.7658 14.6469C33.7447 13.9369 33.5882 13.518 33.2965 13.3937Z" fill="black"/>
</svg>
