<svg width="152" height="209" viewBox="0 0 152 209" fill="none" xmlns="http://www.w3.org/2000/svg">
<rect x="29" y="166.195" width="93.1269" height="42.6832" fill="#FAD580"/>
<path d="M43.3979 154H108.648L122.127 166.195H29L43.3979 154Z" fill="#FFF0CC"/>
<path fill-rule="evenodd" clip-rule="evenodd" d="M75.0098 156.538C78.2751 155.338 83.6376 154.555 89.6992 154.555C99.649 154.555 107.715 156.664 107.715 159.266C107.715 161.869 99.649 163.978 89.6992 163.978C83.6376 163.978 78.2751 163.195 75.0098 161.995C71.7444 163.195 66.382 163.978 60.3203 163.978C50.3706 163.978 42.3047 161.869 42.3047 159.266C42.3047 156.664 50.3706 154.555 60.3203 154.555C66.382 154.555 71.7444 155.338 75.0098 156.538Z" fill="#FAD580"/>
<path d="M94.5945 191.538C94.5945 191.538 94.9361 192.444 95.5769 192.444C96.2177 192.444 96.1678 192.47 96.5988 192.048C97.0298 191.624 96.9135 183.322 96.901 182.924C96.8792 182.202 96.9716 181.101 96.0037 181.414C94.7648 181.716 94.7222 182.32 94.7222 182.665C94.7232 183.01 94.2954 190.545 94.5945 191.538Z" fill="#FFF0CC"/>
<path d="M71.4975 182.1C71.5401 182.302 71.4124 182.499 71.213 182.542C71.0136 182.585 70.8183 182.456 70.7758 182.255C70.7332 182.053 70.8609 181.856 71.0603 181.813C71.2597 181.77 71.456 181.899 71.4975 182.1Z" fill="#FFF0CC"/>
<path d="M73.8335 181.258C73.8761 181.46 73.7483 181.657 73.5489 181.7C73.3495 181.743 73.1543 181.614 73.1117 181.412C73.0691 181.211 73.1969 181.014 73.3963 180.971C73.5957 180.929 73.7909 181.057 73.8335 181.258Z" fill="#FFF0CC"/>
<path d="M70.2045 181.039C70.0186 181.328 69.7715 182.381 69.7715 182.381C69.7715 182.381 68.9542 182.078 68.8036 181.358C68.653 180.64 69.1224 179.836 69.8151 179.688C70.5088 179.54 71.0686 180.045 71.0686 180.045C71.0686 180.045 70.594 180.434 70.2045 181.039Z" fill="#FFF0CC"/>
<path d="M73.5994 179.815C73.9223 179.923 74.7677 180.589 74.7677 180.589C74.7677 180.589 75.2184 179.837 74.8913 179.181C74.5641 178.524 73.7011 178.194 73.0687 178.515C72.4352 178.837 72.3105 179.583 72.3105 179.583C72.3105 179.583 72.9202 179.589 73.5994 179.815Z" fill="#FFF0CC"/>
<path d="M73.1986 182.995C73.0283 182.352 72.5059 182.149 72.5059 182.149C72.4748 182.143 72.4488 182.148 72.426 182.156C72.4031 182.16 72.3772 182.169 72.3533 182.19C72.3533 182.19 72.0012 182.63 72.1715 183.273C72.3346 183.889 72.6191 183.894 72.8705 183.831L72.9037 183.822C73.1477 183.75 73.3617 183.611 73.1986 182.995Z" fill="#FFF0CC"/>
<path d="M79.1746 187.104C79.3034 186.793 79.9348 186.007 80.2245 185.495C80.56 184.902 80.7542 183.891 79.9712 183.886C79.1881 183.881 78.5899 183.708 78.2898 184.528C77.9907 185.348 78.0135 186.359 77.5857 186.143C77.1578 185.927 77.1111 183.271 77.2866 182.571C77.4559 181.895 77.2014 181.405 76.6884 181.405C76.1754 181.405 75.1929 181.276 74.979 182.226C74.979 182.226 74.9779 182.918 74.979 183.431C75.519 183.518 75.9105 183.48 76.1442 183.48C76.6209 183.48 76.7206 183.96 76.7247 184.053C76.7289 184.145 76.7143 184.476 76.4672 184.625C76.22 184.774 76.0642 184.871 75.2666 184.897C75.1732 184.9 75.0787 184.897 74.9852 184.891C74.9862 185.071 74.9883 185.259 74.9894 185.452C75.2968 185.501 75.5709 185.527 75.7039 185.541C76.0642 185.577 76.1961 185.967 76.2086 186.162C76.221 186.357 76.1349 186.556 75.87 186.67C75.6852 186.749 75.4183 186.82 75.0049 186.828C75.0382 188.982 75.114 191.196 75.2853 191.703C75.6208 192.703 76.9459 192.531 76.9459 192.531C76.9459 192.531 77.7581 192.617 77.459 190.847C77.1599 189.078 77.3146 188.763 77.4299 188.553C77.5452 188.344 77.8006 188.549 77.972 188.943C78.1434 189.336 78.4424 191.365 78.485 191.797C78.5276 192.229 79.7904 192.095 79.993 191.773C80.1944 191.452 80.4084 190.847 80.1519 189.639C79.8943 188.43 79.0188 187.604 79.1746 187.104Z" fill="#FFF0CC"/>
<path d="M83.5086 183.941C83.5086 183.941 80.8594 183.553 80.8594 188.429C80.8594 193.305 84.5347 192.227 84.5347 192.227C84.5347 192.227 86.4155 192.313 86.4155 188.127C86.4144 183.941 83.5086 183.941 83.5086 183.941ZM83.7091 190.003L83.6509 190.009C83.196 190.043 82.7038 189.953 82.5968 188.835C82.4857 187.67 83.2241 187.01 83.2241 187.01C83.2719 186.98 83.3186 186.972 83.3612 186.971C83.4027 186.965 83.4494 186.963 83.5024 186.984C83.5024 186.984 84.3509 187.489 84.462 188.655C84.5679 189.773 84.1577 189.951 83.7091 190.003Z" fill="#FFF0CC"/>
<path d="M93.1439 185.582C93.1896 186.545 93.2281 187.54 93.2603 188.563C93.2758 189.057 93.2935 189.545 93.3132 190.026C93.3205 190.268 93.3381 190.496 93.3651 190.712C93.4306 191.145 93.4243 191.492 93.3475 191.753C93.2706 192.014 92.9975 192.138 92.5281 192.122C92.1449 192.08 91.8915 191.945 91.7658 191.716C91.6402 191.489 91.5664 191.263 91.5446 191.041C91.5259 190.926 91.502 190.835 91.474 190.767C91.446 190.699 91.4013 190.675 91.34 190.695C91.2788 190.715 91.1853 190.793 91.0617 190.93C90.7325 191.278 90.3887 191.559 90.0294 191.772C89.6701 191.985 89.2786 192.059 88.8538 191.994C88.2629 191.868 87.8381 191.534 87.5785 190.99C87.3199 190.447 87.1859 189.824 87.1766 189.122C87.1672 188.421 87.2389 187.768 87.3905 187.166C87.62 186.424 87.9617 185.776 88.4155 185.226C88.8694 184.675 89.4136 184.279 90.0471 184.039C90.6806 183.799 91.3816 183.77 92.1501 183.95C92.4772 184.048 92.7181 184.247 92.8718 184.547C93.0255 184.846 93.1159 185.192 93.1439 185.582ZM90.9516 186.15C90.5217 186.062 90.1613 186.163 89.8716 186.456C89.5818 186.749 89.3668 187.126 89.2266 187.589C89.0864 188.051 89.0241 188.492 89.0397 188.91C89.0553 189.329 89.1508 189.614 89.3253 189.765C89.5725 189.921 89.8695 189.842 90.2184 189.529C90.5674 189.217 90.8353 188.792 91.0243 188.256C91.1739 187.769 91.2424 187.314 91.2289 186.892C91.2164 186.47 91.124 186.223 90.9516 186.15Z" fill="#FFF0CC"/>
<path d="M103.569 185.582C103.614 186.545 103.653 187.54 103.685 188.563C103.701 189.057 103.718 189.545 103.738 190.026C103.745 190.268 103.763 190.496 103.79 190.712C103.855 191.145 103.849 191.492 103.772 191.753C103.696 192.014 103.422 192.138 102.953 192.122C102.57 192.08 102.316 191.945 102.191 191.716C102.065 191.489 101.991 191.263 101.968 191.041C101.95 190.926 101.926 190.835 101.898 190.767C101.87 190.699 101.825 190.675 101.764 190.695C101.703 190.715 101.609 190.793 101.486 190.93C101.156 191.278 100.813 191.559 100.453 191.772C100.094 191.985 99.7024 192.059 99.2776 191.994C98.6867 191.868 98.262 191.534 98.0023 190.99C97.7437 190.447 97.6098 189.824 97.6004 189.122C97.5911 188.421 97.6627 187.768 97.8133 187.166C98.0428 186.424 98.3845 185.776 98.8383 185.226C99.2922 184.675 99.8364 184.279 100.47 184.039C101.103 183.799 101.804 183.77 102.573 183.95C102.9 184.048 103.141 184.247 103.295 184.547C103.45 184.846 103.541 185.192 103.569 185.582ZM101.376 186.15C100.947 186.062 100.586 186.163 100.296 186.456C100.007 186.749 99.7917 187.126 99.6515 187.589C99.5113 188.051 99.449 188.492 99.4646 188.91C99.4801 189.329 99.5757 189.614 99.7502 189.765C99.9973 189.921 100.294 189.842 100.643 189.529C100.992 189.217 101.26 188.792 101.45 188.256C101.6 187.769 101.668 187.314 101.655 186.892C101.641 186.47 101.549 186.223 101.376 186.15Z" fill="#FFF0CC"/>
<path d="M62.9994 191.538C62.9994 191.538 63.341 192.444 63.9818 192.444C64.6226 192.444 64.5727 192.47 65.0037 192.048C65.4347 191.624 65.3184 183.322 65.3059 182.924C65.2841 182.202 65.3765 181.101 64.4086 181.414C63.1697 181.716 63.1271 182.32 63.1271 182.665C63.1271 183.01 62.6992 190.545 62.9994 191.538Z" fill="#FFF0CC"/>
<path d="M50.0935 191.538C50.186 192.042 50.4352 192.444 51.076 192.444C51.5257 192.444 51.8154 192.334 52.0979 192.047C52.6483 191.237 52.2371 187.341 53.1312 187.346C54.0243 187.351 53.9392 188.603 53.9392 188.603C53.9392 188.603 54.1604 191.359 54.4096 191.711C54.6236 192.013 55.4783 192.142 55.7348 191.409C55.9913 190.674 55.6922 185.97 55.4783 185.323C55.2643 184.676 54.5384 183.899 53.9828 183.942C53.4272 183.985 53.0429 184.934 52.6577 184.934C52.2734 184.934 52.316 184.287 52.4011 183.897C52.4863 183.509 52.7428 180.968 51.5039 181.27C50.2649 181.573 50.2213 182.177 50.2213 182.522C50.2213 182.867 49.9835 190.936 50.0935 191.538Z" fill="#FFF0CC"/>
<path d="M59.1532 183.941C59.1532 183.941 56.5039 183.553 56.5039 188.429C56.5039 193.305 60.1792 192.227 60.1792 192.227C60.1792 192.227 62.059 192.313 62.059 188.127C62.059 183.941 59.1532 183.941 59.1532 183.941ZM59.4616 190.003C59.4606 190.003 59.4035 190.009 59.4024 190.01C58.9486 190.044 58.4553 189.954 58.3494 188.835C58.2382 187.67 58.9766 187.01 58.9766 187.01C59.0244 186.98 59.0711 186.972 59.1127 186.971C59.1542 186.965 59.2009 186.963 59.2539 186.984C59.2539 186.984 60.1024 187.489 60.2135 188.655C60.3205 189.773 59.9103 189.951 59.4616 190.003Z" fill="#FFF0CC"/>
<path d="M71.931 185.738C71.9767 186.701 72.0152 187.695 72.0474 188.719C72.0629 189.213 72.0806 189.7 72.1003 190.182C72.1076 190.423 72.1252 190.652 72.1523 190.868C72.2177 191.3 72.2114 191.647 72.1346 191.908C72.0577 192.169 71.7846 192.293 71.3152 192.278C70.932 192.236 70.6786 192.1 70.5529 191.872C70.4273 191.644 70.3535 191.418 70.3317 191.196C70.313 191.082 70.2891 190.991 70.2611 190.922C70.2331 190.854 70.1884 190.83 70.1271 190.85C70.0659 190.87 69.9724 190.949 69.8488 191.085C69.5196 191.433 69.1758 191.714 68.8165 191.927C68.4572 192.141 68.0657 192.215 67.6409 192.15C67.05 192.024 66.6252 191.689 66.3656 191.146C66.107 190.602 65.973 189.979 65.9637 189.278C65.9544 188.576 66.026 187.924 66.1776 187.322C66.4071 186.579 66.7488 185.932 67.2027 185.381C67.6565 184.83 68.2007 184.434 68.8342 184.194C69.4677 183.954 70.1687 183.924 70.9372 184.105C71.2643 184.203 71.5053 184.401 71.659 184.701C71.8127 185.001 71.903 185.346 71.931 185.738ZM69.7387 186.304C69.3088 186.216 68.9484 186.318 68.6587 186.609C68.3689 186.902 68.1539 187.28 68.0137 187.742C67.8735 188.205 67.8112 188.645 67.8268 189.064C67.8424 189.482 67.9379 189.768 68.1124 189.919C68.3596 190.073 68.6566 189.995 69.0055 189.682C69.3545 189.369 69.6224 188.944 69.8114 188.408C69.961 187.921 70.0295 187.466 70.016 187.045C70.0035 186.625 69.9111 186.378 69.7387 186.304Z" fill="#FFF0CC"/>
<path d="M124.456 49.1184C123.931 59.6185 115.951 68.1585 105.416 68.1585C94.916 68.1585 86.376 59.6535 86.376 49.1184C86.376 38.6184 94.881 30.0783 105.416 30.0783C105.416 30.0783 117.281 29.5183 124.771 41.4884C131.421 52.0934 124.561 47.1934 124.456 49.1184Z" fill="#BECACA" stroke="black" stroke-width="0.967405" stroke-miterlimit="10"/>
<path d="M106.114 66.1634C113.604 66.1634 119.659 60.1084 119.659 52.6183C119.659 45.1283 113.604 39.0732 106.114 39.0732C98.6244 39.0732 92.5693 45.1283 92.5693 52.6183C92.6043 60.1084 98.6594 66.1634 106.114 66.1634Z" fill="#E6F1F1"/>
<path d="M25.2994 49.1181C25.2994 59.6182 33.8045 68.1582 44.3395 68.1582C54.8396 68.1582 63.3796 59.6532 63.3796 49.1181C63.3796 38.6181 54.8746 30.078 44.3395 30.078C44.3395 30.078 33.9095 29.553 26.2094 37.7781C18.2644 46.2481 27.8894 39.0731 25.3694 42.7131C22.8144 46.3531 22.5694 47.8581 24.5294 47.1581C25.6844 46.7731 25.2994 49.1181 25.2994 49.1181Z" fill="#BECACA" stroke="black" stroke-width="0.967405" stroke-miterlimit="10"/>
<path d="M43.3234 66.1634C50.8134 66.1634 56.8685 60.1084 56.8685 52.6183C56.8685 45.1283 50.8134 39.0732 43.3234 39.0732C35.8334 39.0732 29.7783 45.1283 29.7783 52.6183C29.8133 60.1084 35.8684 66.1634 43.3234 66.1634Z" fill="#E6F1F1"/>
<path d="M56.4488 42.4678C52.0388 35.6427 42.9737 33.6827 36.1487 38.0927C36.1487 38.0927 39.8937 37.4627 42.6937 39.6678C42.6937 39.6678 35.6587 40.3678 33.1036 46.9478C33.1036 46.9478 37.0237 43.3778 40.2787 43.8328C40.2787 43.8328 33.0686 47.3678 33.1036 54.4728C33.1036 54.4728 35.3087 51.8128 40.7337 51.0078C40.7337 51.0078 37.9687 57.1679 40.4887 61.9979C40.4887 61.9979 41.3637 58.3229 43.1837 58.0079" stroke="black" stroke-width="0.967405" stroke-miterlimit="10" stroke-linecap="round" stroke-linejoin="round"/>
<path d="M91.4492 49.118C91.4492 40.998 98.0293 34.418 106.149 34.418C106.149 34.418 101.039 37.638 100.654 40.263C100.654 40.263 108.774 38.233 115.354 42.713C115.354 42.713 106.814 43.203 104.749 44.113C104.749 44.113 115.074 45.478 117.034 51.1481C117.034 51.1481 112.554 48.943 108.529 49.118C108.529 49.118 112.134 54.4731 111.224 58.0081C111.224 58.0081 108.004 55.4881 104.714 54.8581" stroke="black" stroke-width="0.967405" stroke-miterlimit="10" stroke-linecap="round" stroke-linejoin="round"/>
<path d="M73.7049 120.973C69.2599 117.473 66.5299 117.683 63.0649 118.908C56.1698 121.323 53.1248 126.468 53.1248 133.363C53.1248 140.608 57.3948 147.048 61.9099 151.528C61.8399 151.528 61.8049 151.528 61.7349 151.528C56.0998 151.528 51.5498 154.608 51.5498 158.213C51.5498 161.818 71.9549 158.213 71.9549 158.213C71.9549 158.213 73.2849 154.503 71.8499 146.173C69.9949 135.498 82.805 128.183 73.7049 120.973Z" fill="#BECACA" stroke="black" stroke-width="0.967405" stroke-miterlimit="10"/>
<path d="M59.9502 155.623C56.6602 157.723 56.6602 159.823 56.6602 159.823" stroke="black" stroke-width="0.967405" stroke-miterlimit="10" stroke-linecap="round" stroke-linejoin="round"/>
<path d="M56.2744 154.469C52.9844 156.569 52.9844 158.669 52.9844 158.669" stroke="black" stroke-width="0.967405" stroke-miterlimit="10" stroke-linecap="round" stroke-linejoin="round"/>
<path d="M50.9192 156.149C51.5492 153.664 55.7492 150.234 60.1942 149.989C67.0193 149.604 72.7593 150.409 72.7593 150.409L72.8643 156.114C73.0393 157.899 71.6393 159.474 69.8543 159.509L54.1042 160.699C52.2842 160.804 50.2542 159.894 50.9192 156.149Z" fill="#8A4B34" stroke="black" stroke-width="0.967405" stroke-miterlimit="10" stroke-linecap="round" stroke-linejoin="round"/>
<path d="M56.9746 150.094C59.1446 149.674 62.2246 152.299 62.2246 152.299" stroke="black" stroke-width="1.00878" stroke-miterlimit="10" stroke-linecap="round" stroke-linejoin="round"/>
<path d="M54.6289 151.179C57.6039 150.934 60.4039 153.419 60.4039 153.419" stroke="black" stroke-width="1.00878" stroke-miterlimit="10" stroke-linecap="round" stroke-linejoin="round"/>
<path d="M58.8307 150.059L56.9757 148.449V146.314L55.0507 144.634L54.8757 142.884C54.8757 142.884 43.5356 123.948 64.6407 117.333C68.3157 116.178 72.2707 117.823 74.6858 120.693C77.1008 123.563 77.7308 127.834 75.1408 133.819C72.5157 139.839 72.4807 140.469 72.8307 141.834C73.2157 143.199 73.4258 144.634 73.4258 144.634L72.9008 145.999L73.6708 147.294L72.9008 149.079L73.4258 150.514L72.4457 151.214C72.4457 151.179 67.4057 150.199 58.8307 150.059Z" fill="#FF4044" stroke="black" stroke-width="0.967405" stroke-miterlimit="10" stroke-linecap="round" stroke-linejoin="round"/>
<path d="M65.5498 148.518C65.5498 148.518 70.0298 148.098 72.8998 149.078" stroke="black" stroke-width="0.967405" stroke-miterlimit="10" stroke-linecap="round" stroke-linejoin="round"/>
<path d="M61.1056 146.034C61.1056 146.034 59.6706 145.789 56.9756 146.279" stroke="black" stroke-width="0.967405" stroke-miterlimit="10" stroke-linecap="round" stroke-linejoin="round"/>
<path d="M67.582 143.934C67.582 143.934 71.0121 144.354 72.9021 145.999" stroke="black" stroke-width="0.967405" stroke-miterlimit="10" stroke-linecap="round" stroke-linejoin="round"/>
<path d="M65.0961 134.658H51.8311V138.123H65.0961V134.658Z" fill="#AA181F" stroke="black" stroke-width="0.967405" stroke-miterlimit="10" stroke-linecap="round" stroke-linejoin="round"/>
<path d="M52.2168 129.584C52.2168 129.584 57.1518 130.389 60.1268 127.764" stroke="black" stroke-width="0.967405" stroke-miterlimit="10" stroke-linecap="round" stroke-linejoin="round"/>
<path d="M76.7145 120.973C81.1595 117.473 83.8895 117.683 87.3546 118.908C94.2496 121.323 97.2946 126.468 97.2946 133.363C97.2946 140.608 93.0246 147.048 88.5096 151.528C88.5796 151.528 88.6146 151.528 88.6846 151.528C94.3196 151.528 98.8696 154.608 98.8696 158.213C98.8696 161.818 78.4645 158.213 78.4645 158.213C78.4645 158.213 77.1345 154.503 78.5695 146.173C80.4245 135.498 67.6145 128.183 76.7145 120.973Z" fill="#BECACA" stroke="black" stroke-width="0.967405" stroke-miterlimit="10"/>
<path d="M90.4697 155.623C93.7597 157.723 93.7598 159.823 93.7598 159.823" stroke="black" stroke-width="0.967405" stroke-miterlimit="10" stroke-linecap="round" stroke-linejoin="round"/>
<path d="M94.1436 154.468C97.4336 156.568 97.4336 158.668 97.4336 158.668" stroke="black" stroke-width="0.967405" stroke-miterlimit="10" stroke-linecap="round" stroke-linejoin="round"/>
<path d="M99.2539 156.148C98.6239 153.663 94.4238 150.233 89.9788 149.988C83.1538 149.603 77.4137 150.408 77.4137 150.408L77.3087 156.113C77.1337 157.898 78.5337 159.473 80.3187 159.508L96.0688 160.698C97.8888 160.803 99.9189 159.893 99.2539 156.148Z" fill="#8A4B34" stroke="black" stroke-width="0.967405" stroke-miterlimit="10" stroke-linecap="round" stroke-linejoin="round"/>
<path d="M93.1983 150.093C91.0283 149.673 87.9482 152.298 87.9482 152.298" stroke="black" stroke-width="1.00878" stroke-miterlimit="10" stroke-linecap="round" stroke-linejoin="round"/>
<path d="M95.5446 151.178C92.5695 150.933 89.7695 153.418 89.7695 153.418" stroke="black" stroke-width="1.00878" stroke-miterlimit="10" stroke-linecap="round" stroke-linejoin="round"/>
<path d="M91.3446 150.059L93.1996 148.449V146.314L95.1246 144.634L95.2996 142.884C95.2996 142.884 106.64 123.948 85.5346 117.333C81.8595 116.178 77.9045 117.823 75.4895 120.693C73.0745 123.563 72.4445 127.834 75.0345 133.819C77.6595 139.839 77.6945 140.469 77.3445 141.834C76.9595 143.199 76.7495 144.634 76.7495 144.634L77.2745 145.999L76.5045 147.294L77.2745 149.079L76.7495 150.514L77.7295 151.214C77.7295 151.179 82.7695 150.199 91.3446 150.059Z" fill="#FF4044" stroke="black" stroke-width="0.967405" stroke-miterlimit="10" stroke-linecap="round" stroke-linejoin="round"/>
<path d="M84.0304 147.679C84.0304 147.679 80.1804 147.679 77.2754 149.044" stroke="black" stroke-width="0.967405" stroke-miterlimit="10" stroke-linecap="round" stroke-linejoin="round"/>
<path d="M87.5996 146.803C87.5996 146.803 90.5396 145.823 93.1996 146.313" stroke="black" stroke-width="0.967405" stroke-miterlimit="10" stroke-linecap="round" stroke-linejoin="round"/>
<path d="M95.2993 142.849C95.2993 142.849 91.6593 142.044 89.2793 142.814" stroke="black" stroke-width="0.967405" stroke-miterlimit="10" stroke-linecap="round" stroke-linejoin="round"/>
<path d="M85.064 138.109L98.3291 138.109L98.3291 134.644L85.064 134.644L85.064 138.109Z" fill="#AA181F" stroke="black" stroke-width="0.967405" stroke-miterlimit="10" stroke-linecap="round" stroke-linejoin="round"/>
<path d="M97.995 129.584C97.995 129.584 93.06 130.389 90.085 127.764" stroke="black" stroke-width="0.967405" stroke-miterlimit="10" stroke-linecap="round" stroke-linejoin="round"/>
<path d="M97.9256 116.528C88.0205 109.948 83.9605 99.1677 83.0155 97.0677C83.0155 97.0327 82.9805 96.9627 82.9455 96.9277C82.9105 96.8577 82.8755 96.7877 82.8405 96.7177C82.8405 96.6827 82.8405 96.6827 82.8405 96.6827C81.8605 94.3027 83.0155 91.5727 85.3955 90.6277C87.7755 89.6827 90.5055 90.8027 91.4505 93.1827C91.4505 93.1827 91.4505 93.1827 91.4505 93.2177V93.2527C91.4505 93.2877 91.4505 93.2877 91.4855 93.3227C91.4855 93.3577 91.4855 93.3577 91.5205 93.3927C91.5205 93.3927 91.5205 93.3927 91.5205 93.4277C91.5555 93.4977 91.5905 93.5677 91.6255 93.6727V93.7077C91.6255 93.7427 91.6605 93.8127 91.6955 93.8477C91.7305 93.9177 91.7305 93.9527 91.8005 94.0227V94.0577C91.8355 94.1277 91.8355 94.1627 91.9055 94.2327V94.2677C91.9755 94.4077 92.0455 94.5827 92.1505 94.6877V94.7227C92.2555 94.8977 92.3255 95.0377 92.4305 95.2477V95.2827C92.4655 95.3877 92.5355 95.4577 92.5705 95.5627V95.5977C92.6055 95.7027 92.6755 95.8077 92.7105 95.9127C92.7455 96.0177 92.8155 96.1227 92.8855 96.1927C92.8855 96.1927 92.8855 96.2277 92.9205 96.2627C93.0605 96.4727 93.1655 96.6827 93.3055 96.9277C93.3055 96.9277 93.3055 96.9627 93.3405 96.9627C93.3755 97.0677 93.4805 97.2077 93.5155 97.2777V97.3127C93.6205 97.4527 93.6556 97.5927 93.7256 97.6627C93.8306 97.8027 93.8656 97.9077 93.9356 98.0127C93.9356 98.0477 93.9355 98.0477 93.9705 98.0827C94.1105 98.3627 94.2856 98.6077 94.4606 98.8527C94.4606 98.8877 94.4955 98.8877 94.4955 98.9227C94.6005 99.0627 94.6706 99.1677 94.7756 99.3077C94.7756 99.3077 94.7756 99.3077 94.7756 99.3427C94.8806 99.4827 94.9506 99.6227 95.0556 99.7627C95.0556 99.7627 95.0556 99.7977 95.0906 99.7977C95.1956 99.9377 95.2656 100.043 95.3706 100.183C95.3706 100.218 95.4056 100.218 95.4056 100.253C95.5806 100.533 95.7906 100.813 96.0006 101.093C96.0006 101.128 96.0356 101.128 96.0356 101.163C96.1406 101.303 96.2456 101.408 96.3506 101.583C96.3506 101.583 96.3506 101.583 96.3506 101.618C96.4906 101.793 96.5606 101.898 96.7006 102.073C96.7006 102.108 96.7356 102.108 96.7356 102.143C96.8406 102.283 96.9456 102.388 97.0506 102.528C97.0506 102.563 97.0856 102.598 97.0856 102.598C97.2256 102.773 97.2956 102.878 97.4356 103.053C98.5556 104.453 99.8156 105.853 101.286 107.253C102.371 108.303 103.876 108.828 105.416 108.653C108.741 108.268 114.166 107.253 120.116 104.278C122.216 103.228 124.071 103.018 125.716 103.683C128.026 104.628 128.971 106.973 129.216 107.638C129.321 107.918 129.391 108.198 129.426 108.478C130.056 111.628 128.096 114.043 125.751 115.058C115.496 119.538 105.171 118.698 101.181 118.068C101.251 117.998 100.061 117.893 97.9256 116.528Z" fill="#BECACA" stroke="black" stroke-width="0.967405" stroke-miterlimit="10"/>
<path d="M126.906 110.158C128.411 109.598 129.216 108.583 129.216 108.583" stroke="black" stroke-width="0.967405" stroke-miterlimit="10" stroke-linecap="round" stroke-linejoin="round"/>
<path d="M126.835 104.628C125.19 105.503 124.525 106.203 124.525 106.203" stroke="black" stroke-width="0.967405" stroke-miterlimit="10" stroke-linecap="round" stroke-linejoin="round"/>
<path d="M120.36 111.278C119.275 109.283 119.24 107.183 120.255 106.623C121.27 106.098 122.95 107.288 124.035 109.318C125.12 111.313 125.155 113.413 124.14 113.973C123.125 114.498 121.445 113.273 120.36 111.278Z" fill="#E6F1F1"/>
<path d="M119.627 114.533C117.002 113.168 116.022 109.948 117.387 107.393" stroke="black" stroke-width="0.967405" stroke-miterlimit="10" stroke-linecap="round" stroke-linejoin="round"/>
<path d="M125.225 98.0133H121.025V90.6982C125.015 92.7633 125.225 94.6533 125.225 98.0133Z" fill="#8E8E8E" stroke="black" stroke-width="0.700004" stroke-miterlimit="10" stroke-linecap="round" stroke-linejoin="round"/>
<path d="M123.721 126.678V101.513C125.156 100.568 126.171 98.9933 126.346 97.1733H119.45V90.6982C116.65 91.1532 114.48 93.6033 114.48 96.5783C114.48 98.6433 115.53 100.463 117.105 101.513V101.548V126.713C117.105 128.533 118.575 130.003 120.395 130.003C122.215 130.003 123.721 128.498 123.721 126.678ZM118.785 126.608C118.785 125.698 119.52 124.963 120.431 124.963C121.341 124.963 122.075 125.698 122.075 126.608C122.075 127.518 121.341 128.253 120.431 128.253C119.52 128.253 118.785 127.518 118.785 126.608Z" fill="#8E8E8E" stroke="black" stroke-width="0.700004" stroke-miterlimit="10" stroke-linecap="round" stroke-linejoin="round"/>
<path d="M118.646 99.7637H122.182" stroke="black" stroke-width="0.700004" stroke-miterlimit="10" stroke-linecap="round" stroke-linejoin="round"/>
<path d="M117.029 110.75C119.051 110.57 120.571 109.097 120.425 107.46C120.279 105.824 118.522 104.643 116.501 104.823C114.479 105.003 112.958 106.476 113.104 108.113C113.25 109.749 115.007 110.93 117.029 110.75Z" fill="#BECACA" stroke="black" stroke-width="0.967405" stroke-miterlimit="10.0002"/>
<path d="M87.8815 110.753L91.3815 113.553L101.462 107.218L99.0815 102.213L97.1215 100.778L96.4915 98.7132L94.7765 97.4882L94.3565 95.1082L92.0815 92.7981L91.6965 90.9431L89.0365 89.5781L84.3465 90.2431L81.2314 93.7431L82.0015 100.393L84.6265 101.548L85.9565 105.293L87.4265 106.658L87.8815 110.753Z" fill="#FF4044" stroke="black" stroke-width="0.967405" stroke-miterlimit="10" stroke-linecap="round" stroke-linejoin="round"/>
<path d="M97.2263 116.843L104.296 107.918L104.016 104.978L101.216 105.363L101.636 103.088L99.6413 103.788L90.3662 112.433L90.4712 115.163L93.6212 114.673L93.1312 117.578L97.2263 116.843Z" fill="#AA181F" stroke="black" stroke-width="0.967405" stroke-miterlimit="10" stroke-linecap="round" stroke-linejoin="round"/>
<path d="M93.4814 104.488L97.1215 100.778" stroke="black" stroke-width="0.967405" stroke-miterlimit="10" stroke-linecap="round" stroke-linejoin="round"/>
<path d="M90.2618 105.643L87.4268 106.658" stroke="black" stroke-width="0.967405" stroke-miterlimit="10" stroke-linecap="round" stroke-linejoin="round"/>
<path d="M88.792 101.548C88.792 101.548 91.347 100.568 92.257 99.3779Z" fill="white"/>
<path d="M88.792 101.548C88.792 101.548 91.347 100.568 92.257 99.3779" stroke="black" stroke-width="0.967405" stroke-miterlimit="10" stroke-linecap="round" stroke-linejoin="round"/>
<path d="M97.4371 110.648L93.6221 114.673" stroke="black" stroke-width="0.967405" stroke-miterlimit="10" stroke-linecap="round" stroke-linejoin="round"/>
<path d="M53.0916 134.202H28.5215V149.042H53.0916V134.202Z" fill="#165F68" stroke="black" stroke-width="0.967405" stroke-miterlimit="10" stroke-linecap="round" stroke-linejoin="round"/>
<path d="M47.457 134.097C46.967 134.097 46.582 133.712 46.582 133.222V129.897C46.582 128.742 45.637 127.762 44.447 127.762H37.0969C35.9419 127.762 34.9619 128.707 34.9619 129.897V133.222C34.9619 133.712 34.5769 134.097 34.0869 134.097C33.5969 134.097 33.2119 133.712 33.2119 133.222V129.897C33.2119 127.762 34.9619 126.012 37.0969 126.012H44.447C46.582 126.012 48.332 127.762 48.332 129.897V133.222C48.332 133.712 47.947 134.097 47.457 134.097Z" fill="#297E88" stroke="black" stroke-width="0.700004" stroke-miterlimit="10" stroke-linecap="round" stroke-linejoin="round"/>
<path d="M53.8621 133.223H27.752V137.283H53.8621V133.223Z" fill="#297E88" stroke="black" stroke-width="0.967405" stroke-miterlimit="10" stroke-linecap="round" stroke-linejoin="round"/>
<path d="M39.442 99.4478C48.1221 91.3278 59.5321 89.8228 61.8071 89.4028C61.8421 89.4028 61.9121 89.3678 61.9471 89.3678C62.0171 89.3328 62.0871 89.3328 62.1571 89.3328C62.1921 89.3328 62.1921 89.3328 62.1921 89.3328C64.7471 88.9128 67.1272 90.6628 67.5122 93.2178C67.8972 95.7378 66.1822 98.1528 63.6271 98.5378C63.6271 98.5378 63.6271 98.5378 63.5921 98.5378H63.5571C63.5221 98.5378 63.5221 98.5378 63.4871 98.5728C63.4521 98.5728 63.4521 98.5728 63.4171 98.6078C63.4171 98.6078 63.4171 98.6078 63.3821 98.6078C63.3121 98.6428 63.2421 98.6428 63.1371 98.6428H63.1021C63.0671 98.6428 62.9971 98.6778 62.9621 98.6778C62.8921 98.7128 62.8571 98.7128 62.7871 98.7128H62.7521C62.6821 98.7478 62.6471 98.7478 62.5771 98.7478H62.5421C62.4021 98.7828 62.2271 98.8178 62.0871 98.8878H62.0521C61.8771 98.9228 61.7021 98.9928 61.4571 99.0278H61.4221C61.3171 99.0628 61.2471 99.0628 61.1421 99.0978H61.1071C61.0021 99.1328 60.8971 99.1328 60.7921 99.1678C60.6871 99.2028 60.5821 99.2028 60.4771 99.2728C60.4771 99.2728 60.4421 99.2728 60.4071 99.3078C60.1971 99.3778 59.9521 99.4478 59.6721 99.5178C59.6721 99.5178 59.6371 99.5178 59.6371 99.5528C59.5321 99.5878 59.3921 99.6228 59.2871 99.6578H59.2521C59.1121 99.7278 58.9721 99.7278 58.8671 99.7978C58.7271 99.8678 58.6221 99.8678 58.4821 99.9378C58.4471 99.9378 58.4471 99.9378 58.4121 99.9728C58.1321 100.043 57.8171 100.148 57.5371 100.288C57.5021 100.288 57.5021 100.323 57.4671 100.323C57.3271 100.393 57.1871 100.428 57.0121 100.498C57.0121 100.498 57.0121 100.498 56.9771 100.498C56.8371 100.568 56.6621 100.603 56.4871 100.673C56.4871 100.673 56.4521 100.673 56.4521 100.708C56.3121 100.778 56.1721 100.813 55.9971 100.883C55.9621 100.883 55.9621 100.918 55.9271 100.918C55.6121 101.023 55.2971 101.163 54.9821 101.303C54.9471 101.303 54.9471 101.338 54.9121 101.338C54.7721 101.408 54.6321 101.478 54.4221 101.548C54.4221 101.548 54.4221 101.548 54.3871 101.548C54.2121 101.618 54.0721 101.688 53.8621 101.793C53.8271 101.793 53.8271 101.828 53.7921 101.828C53.6521 101.898 53.5121 101.968 53.3371 102.038C53.3021 102.038 53.2671 102.073 53.2671 102.073C53.0921 102.143 52.9521 102.213 52.7421 102.318C51.1321 103.053 49.4871 103.998 47.772 105.083C46.477 105.888 45.637 107.253 45.462 108.793C45.042 112.118 44.832 117.613 46.337 124.123C46.897 126.398 46.652 128.288 45.637 129.723C44.202 131.753 41.717 132.138 40.982 132.208C40.702 132.243 40.387 132.243 40.107 132.208C36.887 132.103 34.997 129.618 34.542 127.098C32.512 116.108 35.732 106.203 37.237 102.493C37.272 102.353 37.622 101.198 39.442 99.4478Z" fill="#BECACA" stroke="black" stroke-width="0.967405" stroke-miterlimit="10"/>
<path d="M38.9873 129.128C39.1623 130.738 40.0023 131.718 40.0023 131.718" stroke="black" stroke-width="0.967405" stroke-miterlimit="10" stroke-linecap="round" stroke-linejoin="round"/>
<path d="M44.4115 130.353C43.9215 128.533 43.3965 127.763 43.3965 127.763" stroke="black" stroke-width="0.967405" stroke-miterlimit="10" stroke-linecap="round" stroke-linejoin="round"/>
<path d="M47.1761 91.2927L43.7461 94.1627L47.9811 105.293L53.3711 103.893L55.1562 102.248L57.3262 102.073L58.8312 100.603L61.2462 100.638L63.9412 98.8528H65.8312L67.7212 96.5077L67.9662 91.7477L65.1312 88.0377L58.4812 87.5127L56.8012 89.8577L52.8811 90.4177L51.2711 91.6077L47.1761 91.2927Z" fill="#FF4044" stroke="black" stroke-width="0.967405" stroke-miterlimit="10" stroke-linecap="round" stroke-linejoin="round"/>
<path d="M39.3701 99.2375L46.7552 107.918L49.6952 108.198L49.8352 105.398L52.0052 106.238L51.7252 104.138L45.0052 93.3575L42.3101 92.9375L42.2051 96.1225L39.4401 95.1075L39.3701 99.2375Z" fill="#AA181F" stroke="black" stroke-width="0.967405" stroke-miterlimit="10" stroke-linecap="round" stroke-linejoin="round"/>
<path d="M52.2158 97.9775L55.1558 102.248" stroke="black" stroke-width="0.967405" stroke-miterlimit="10" stroke-linecap="round" stroke-linejoin="round"/>
<path d="M51.6895 94.5824L51.2695 91.6074" stroke="black" stroke-width="0.967405" stroke-miterlimit="10" stroke-linecap="round" stroke-linejoin="round"/>
<path d="M55.9961 93.9531C55.9961 93.9531 56.4511 96.6481 57.4311 97.7681Z" fill="white"/>
<path d="M55.9961 93.9531C55.9961 93.9531 56.4511 96.6481 57.4311 97.7681" stroke="black" stroke-width="0.967405" stroke-miterlimit="10" stroke-linecap="round" stroke-linejoin="round"/>
<path d="M45.3911 100.673L42.2061 96.123" stroke="black" stroke-width="0.967405" stroke-miterlimit="10" stroke-linecap="round" stroke-linejoin="round"/>
<path d="M89.2105 95.0385C93.1655 101.514 95.6505 109.599 95.6505 115.514C95.6505 126.924 86.3755 136.199 74.9654 136.199C63.5553 136.199 54.2803 126.924 54.2803 115.514C54.2803 104.104 63.5553 84.3984 74.9654 84.3984C80.4954 84.4334 85.5005 89.0185 89.2105 95.0385Z" fill="#BECACA" stroke="black" stroke-width="0.967405" stroke-miterlimit="10"/>
<path d="M74.9651 129.689C83.1551 129.689 89.8052 119.924 89.8052 107.849C89.8052 95.7738 83.1551 86.0088 74.9651 86.0088C66.775 86.0088 60.125 95.7738 60.125 107.849C60.125 119.924 66.775 129.689 74.9651 129.689Z" fill="#E6F1F1"/>
<path d="M95.7891 119.468C94.144 128.323 87.039 136.828 74.9989 136.828C62.0489 136.828 54.2788 124.263 53.8938 117.228C53.4738 109.458 55.4338 104.768 56.7288 102.108C60.1239 95.0027 64.3939 87.9326 64.3939 87.9326L73.3189 88.0026L74.8939 91.6076L76.784 87.9676H84.764C84.764 87.9676 91.309 96.6827 93.444 101.548C94.739 104.418 97.3991 110.858 95.7891 119.468Z" fill="#FF4044" stroke="black" stroke-width="0.967405" stroke-miterlimit="10" stroke-linecap="round" stroke-linejoin="round"/>
<path d="M67.8939 107.989H63.8689C62.2589 107.989 60.9639 106.694 60.9639 105.084V98.1885H70.7639V105.119C70.7989 106.694 69.5039 107.989 67.8939 107.989Z" fill="#AA181F" stroke="black" stroke-width="0.967405" stroke-miterlimit="10" stroke-linecap="round" stroke-linejoin="round"/>
<path d="M69.2231 126.399H60.4031C58.793 126.399 57.498 125.104 57.498 123.494V116.563H72.0931V123.494C72.1281 125.104 70.8331 126.399 69.2231 126.399Z" fill="#AA181F" stroke="black" stroke-width="0.967405" stroke-miterlimit="10" stroke-linecap="round" stroke-linejoin="round"/>
<path d="M90.188 126.399H81.3679C79.7579 126.399 78.4629 125.104 78.4629 123.494V116.563H93.058V123.494C93.093 125.104 91.798 126.399 90.188 126.399Z" fill="#AA181F" stroke="black" stroke-width="0.967405" stroke-miterlimit="10" stroke-linecap="round" stroke-linejoin="round"/>
<path d="M86.513 107.989H82.488C80.878 107.989 79.583 106.694 79.583 105.084V98.1885H89.3831V105.119C89.3831 106.694 88.0881 107.989 86.513 107.989Z" fill="#AA181F" stroke="black" stroke-width="0.967405" stroke-miterlimit="10" stroke-linecap="round" stroke-linejoin="round"/>
<path d="M74.8937 91.6074H71.6387V93.1124H74.8937V91.6074Z" fill="#E8B72D"/>
<path d="M74.6137 135.428C74.6137 135.428 72.3386 132.698 74.8937 91.6074" stroke="black" stroke-width="0.967405" stroke-miterlimit="10" stroke-linecap="round" stroke-linejoin="round"/>
<path d="M73.3182 88.0029C73.3182 88.0029 66.0381 89.2629 59.9131 93.1129C59.9131 93.1129 63.0981 87.6179 64.2881 86.4629L73.3182 88.0029Z" fill="#AA181F" stroke="black" stroke-width="0.967405" stroke-miterlimit="10" stroke-linecap="round" stroke-linejoin="round"/>
<path d="M76.7842 88.0029C76.7842 88.0029 83.6442 89.2979 89.8042 93.1129C89.8042 93.1129 87.0392 87.6179 85.8492 86.4629L76.7842 88.0029Z" fill="#AA181F" stroke="black" stroke-width="0.967405" stroke-miterlimit="10" stroke-linecap="round" stroke-linejoin="round"/>
<path d="M86.3757 47.508C95.5807 49.8531 102.686 56.8181 102.686 66.6881V70.4682C102.686 81.7382 93.5507 87.9333 82.2807 87.9333H67.5106C56.2405 87.9333 47.1055 82.0532 47.1055 70.7832V67.5281C47.1055 59.8631 51.3405 53.1431 57.6055 49.678C57.6055 49.678 65.6206 45.058 75.1756 43.028C81.2657 41.733 75.7006 44.708 76.5756 45.723C77.5206 46.808 81.0557 43.448 81.5807 45.338C82.0707 47.158 84.5557 47.053 86.3757 47.508Z" fill="#BECACA" stroke="black" stroke-width="0.967405" stroke-miterlimit="10"/>
<path d="M54.6657 78.273C56.9407 78.273 58.7957 77.608 58.7957 76.803C58.7957 75.998 56.9407 75.333 54.6657 75.333C52.3906 75.333 50.5356 75.998 50.5356 76.803C50.5006 77.608 52.3556 78.273 54.6657 78.273Z" fill="#FF9294"/>
<path d="M95.1266 78.273C97.4016 78.273 99.2566 77.608 99.2566 76.803C99.2566 75.998 97.4016 75.333 95.1266 75.333C92.8516 75.333 90.9966 75.998 90.9966 76.803C90.9616 77.608 92.8166 78.273 95.1266 78.273Z" fill="#FF9294"/>
<path d="M55.0508 61.9636C55.0508 61.9636 58.4108 59.0936 64.1158 60.7736" stroke="black" stroke-width="1.61232" stroke-miterlimit="10" stroke-linecap="round" stroke-linejoin="round"/>
<path d="M95.3014 62.3484C95.3014 62.3484 91.9414 59.4784 86.2363 61.1584" stroke="black" stroke-width="1.61232" stroke-miterlimit="10" stroke-linecap="round" stroke-linejoin="round"/>
<path d="M58.8995 74.5979C61.5595 74.5979 63.6945 72.4628 63.6945 69.8028C63.6945 67.1428 61.5595 65.0078 58.8995 65.0078C56.2395 65.0078 54.1045 67.1428 54.1045 69.8028C54.1045 72.4628 56.2395 74.5979 58.8995 74.5979Z" fill="white" stroke="black" stroke-width="0.967405" stroke-miterlimit="10"/>
<path d="M59.9147 72.9534C61.6647 72.9534 63.0647 71.5533 63.0647 69.8033C63.0647 68.0533 61.6647 66.6533 59.9147 66.6533C58.1647 66.6533 56.7646 68.0533 56.7646 69.8033C56.7646 71.5533 58.1647 72.9534 59.9147 72.9534Z" fill="black"/>
<path d="M90.1905 74.5979C92.8506 74.5979 94.9856 72.4628 94.9856 69.8028C94.9856 67.1428 92.8506 65.0078 90.1905 65.0078C87.5305 65.0078 85.3955 67.1428 85.3955 69.8028C85.3955 72.4628 87.5655 74.5979 90.1905 74.5979Z" fill="white" stroke="black" stroke-width="0.967405" stroke-miterlimit="10"/>
<path d="M89.2799 72.9534C91.0299 72.9534 92.4299 71.5533 92.4299 69.8033C92.4299 68.0533 91.0299 66.6533 89.2799 66.6533C87.5299 66.6533 86.1299 68.0533 86.1299 69.8033C86.1299 71.5533 87.5299 72.9534 89.2799 72.9534Z" fill="black"/>
<path d="M80.6002 70.9931C80.4252 67.9831 76.2601 60.9831 74.5101 61.0881C72.7951 61.1931 69.4351 68.6131 69.6101 71.6581C69.7851 74.6682 72.3751 77.0132 75.4201 76.8382C78.4651 76.5932 80.7752 74.0032 80.6002 70.9931Z" fill="black"/>
<path d="M82.9102 80.1279C82.9102 80.1279 75.0352 83.0679 67.1602 80.1279" stroke="black" stroke-width="1.37435" stroke-miterlimit="10" stroke-linecap="round" stroke-linejoin="round"/>
<path d="M99.57 60.7722C99.57 60.7722 93.165 48.4521 74.8949 48.4871C55.7148 48.5571 50.2197 60.7722 50.2197 60.7722L52.1097 40.9621C52.4947 36.867 55.2598 33.402 59.1448 32.107L71.5698 27.942C73.7049 27.242 76.0149 27.242 78.1499 27.942L90.575 32.107C94.46 33.402 97.225 36.867 97.61 40.9621L99.57 60.7722Z" fill="#AA181F" stroke="black" stroke-width="0.967405" stroke-miterlimit="10" stroke-linecap="round" stroke-linejoin="round"/>
<path d="M96.8414 55.6977C96.8414 55.6977 91.1364 48.4526 74.8963 48.5226C57.8162 48.5576 52.9512 55.6977 52.9512 55.6977L54.6312 38.0576C54.9812 34.4175 57.4312 31.3375 60.8962 30.1825L71.9563 26.4725C73.8463 25.8425 75.9113 25.8425 77.8363 26.4725L88.8964 30.1825C92.3614 31.3375 94.8114 34.4175 95.1614 38.0576L96.8414 55.6977Z" fill="#FBAF00" stroke="black" stroke-width="0.967405" stroke-miterlimit="10" stroke-linecap="round" stroke-linejoin="round"/>
<path d="M97.891 64.0272C96.981 64.0272 96.211 63.1522 96.211 62.0672C96.211 54.4372 86.4459 51.4972 74.8958 51.4972C63.3458 51.4972 53.5807 54.4372 53.5807 62.0672C53.5807 63.1522 52.8457 64.0272 51.9007 64.0272C50.9907 64.0272 50.2207 63.1522 50.2207 62.0672C50.2207 51.9872 61.0708 47.5771 74.8958 47.5771C88.7209 47.5771 99.571 51.9872 99.571 62.0672C99.571 63.1522 98.801 64.0272 97.891 64.0272Z" fill="#AA181F" stroke="black" stroke-width="0.967405" stroke-miterlimit="10" stroke-linecap="round" stroke-linejoin="round"/>
<path d="M75.1408 45.9318C76.3308 45.9318 76.9608 45.7918 77.3109 44.1468C77.6609 42.5368 79.1659 43.9368 79.8309 43.6918C80.4959 43.4468 82.1759 41.3818 81.7559 40.4368C81.3359 39.4918 80.4259 39.4568 80.5659 38.7568C80.7059 38.0568 81.8259 37.4968 81.8259 36.7968C81.8259 36.0968 81.0209 33.8918 79.9709 33.7168C78.9209 33.5418 77.8709 34.5218 77.4859 33.9618C77.1009 33.4018 76.6458 32.1418 76.3308 34.2068C76.0158 36.2718 77.5908 35.8518 77.9058 37.8468C78.2208 39.8418 77.8008 41.9068 74.9308 42.0118C72.0608 42.1168 71.3958 39.8068 71.5708 38.3368C71.7458 36.8668 73.5658 35.6068 73.5658 35.6068C73.5658 35.6068 73.8458 33.4018 72.7958 33.0518C72.7958 33.0518 72.3408 34.1368 70.7658 33.9268C69.1908 33.7168 69.0158 33.9618 68.1758 36.1318C67.6508 37.4268 69.6458 38.0218 69.2608 39.1068C68.8758 40.1918 67.6858 40.0518 68.0708 41.4518C68.4558 42.8518 69.0158 43.8318 70.3108 43.7968C71.6058 43.7268 71.9558 43.5518 72.7258 44.5668C73.4958 45.5468 72.3058 45.8968 75.1408 45.9318Z" fill="#AA181F"/>
<path d="M73.3919 28.4316C73.3919 28.4316 71.9219 28.9566 71.9219 31.3717C71.9219 33.0517 73.4969 32.3867 73.6719 34.4167C73.8119 36.4467 73.6719 41.8717 73.6719 41.8717C73.6719 41.8717 75.6319 42.5017 76.2619 41.7667C76.2619 41.7667 76.0519 33.8917 76.7169 33.0867C77.3819 32.2817 79.1319 30.0417 76.1919 28.4666C76.1919 28.4666 76.2269 30.0766 75.9119 30.4267C75.5969 30.7767 74.8969 30.8817 74.8969 30.8817L73.5669 30.3217L73.3919 28.4316Z" fill="#8E8E8E"/>
<path d="M76.227 27.9422C76.682 28.1872 77.137 28.4672 77.452 28.8872C78.362 29.9722 78.432 31.5122 77.592 32.6323C77.487 32.8073 77.452 32.9123 77.522 33.1223C77.662 33.5423 78.012 33.7523 78.467 33.6473C78.782 33.5773 79.097 33.5073 79.377 33.4023C79.657 33.3323 79.937 33.3673 80.182 33.4373C80.392 33.5073 80.497 33.7173 80.427 33.8923C80.357 34.0673 80.182 34.1373 79.972 34.1373C79.762 34.1023 79.552 34.1023 79.342 34.1373C79.097 34.1723 78.852 34.2773 78.607 34.3123C77.907 34.4873 77.242 34.1723 76.927 33.5073C76.892 33.4723 76.892 33.4373 76.857 33.3673C76.717 33.4723 76.682 33.6123 76.682 33.7873C76.682 34.3123 76.682 34.8723 76.682 35.3973C76.682 35.4673 76.752 35.5373 76.822 35.5723C77.732 36.1673 78.327 36.9723 78.502 38.0573C78.817 39.8773 77.767 41.6273 76.017 42.2223C73.812 42.9923 71.3969 41.4173 71.1869 39.1073C71.0469 37.5673 71.6769 36.4123 72.937 35.5723C73.042 35.5023 73.077 35.4673 73.077 35.3623C73.077 34.8723 73.077 34.3823 73.077 33.8573C73.077 33.6823 73.042 33.5073 72.902 33.3673C72.867 33.4023 72.8319 33.4723 72.8319 33.5073C72.5169 34.1723 71.8519 34.4873 71.1519 34.3123C70.8719 34.2423 70.5919 34.1723 70.3119 34.1023C69.8919 33.9973 69.6119 34.1373 69.4019 34.4873C69.0869 35.0123 68.7719 35.5723 68.4569 36.0973C68.2469 36.4473 68.2819 36.7623 68.5619 37.0773C68.7369 37.2873 68.9469 37.4623 69.1219 37.6723C69.7519 38.3023 69.7519 39.1773 69.1219 39.8073C68.9469 40.0173 68.7369 40.1923 68.5619 40.4023C68.2819 40.6823 68.2469 41.0323 68.4569 41.3823C68.7719 41.9423 69.0869 42.4673 69.4019 43.0273C69.6119 43.3773 69.9269 43.4823 70.3119 43.4123C70.5919 43.3423 70.8719 43.2723 71.1519 43.2023C71.9219 43.0273 72.657 43.4473 72.902 44.1823C73.007 44.4623 73.0769 44.7773 73.1469 45.0573C73.2519 45.4423 73.532 45.6523 73.917 45.6523C74.547 45.6523 75.177 45.6523 75.807 45.6523C76.192 45.6523 76.472 45.4423 76.577 45.0573C76.647 44.7773 76.752 44.4623 76.822 44.1823C77.067 43.4123 77.802 42.9923 78.572 43.1673C78.852 43.2373 79.132 43.3073 79.412 43.3773C79.832 43.4823 80.147 43.3423 80.357 42.9923C80.672 42.4673 80.987 41.9073 81.302 41.3823C81.512 41.0323 81.477 40.7173 81.162 40.4023C80.987 40.1923 80.777 40.0173 80.602 39.8073C80.007 39.1773 80.007 38.3373 80.602 37.7073C80.812 37.4973 80.987 37.2873 81.197 37.1123C81.372 36.9373 81.442 36.7623 81.442 36.5173C81.442 36.2723 81.582 36.0973 81.792 36.0973C82.002 36.0973 82.142 36.2723 82.142 36.5173C82.142 36.9373 82.002 37.2873 81.722 37.6023C81.512 37.8123 81.337 38.0223 81.127 38.1973C80.777 38.5473 80.777 38.9673 81.127 39.3173C81.302 39.5273 81.512 39.7023 81.687 39.9123C82.212 40.4373 82.282 41.1023 81.897 41.7673C81.582 42.2923 81.267 42.8523 80.952 43.3773C80.567 44.0073 79.972 44.2873 79.237 44.1123C78.957 44.0423 78.712 43.9723 78.432 43.9023C77.942 43.7973 77.592 44.0073 77.452 44.4623C77.382 44.7423 77.312 45.0223 77.207 45.2673C76.997 45.9323 76.472 46.3523 75.737 46.3523C75.107 46.3523 74.442 46.3523 73.812 46.3523C73.112 46.3523 72.552 45.9323 72.377 45.2673C72.307 44.9873 72.2019 44.7073 72.1319 44.3923C71.9919 43.9723 71.6419 43.7623 71.2219 43.8673C70.9069 43.9373 70.5919 44.0073 70.3119 44.0773C69.6819 44.2173 69.0519 43.9723 68.7369 43.4473C68.3869 42.8523 68.0369 42.2223 67.6869 41.6273C67.3719 41.0673 67.4769 40.4023 67.9319 39.9123C68.1419 39.7023 68.3519 39.4923 68.5619 39.2823C68.9119 38.9323 68.9119 38.5123 68.5619 38.1623C68.3519 37.9523 68.1769 37.7423 67.9669 37.5673C67.4769 37.0423 67.4069 36.3773 67.7569 35.7473C68.0719 35.1873 68.3869 34.6273 68.7019 34.0673C69.0519 33.4723 69.6819 33.1923 70.3469 33.3673C70.6619 33.4373 70.9769 33.5423 71.2569 33.5773C71.6419 33.6473 71.9919 33.4723 72.1319 33.0873C72.2019 32.8773 72.202 32.7023 72.062 32.5273C70.9769 30.9872 71.5369 28.8522 73.252 28.0122C73.322 27.9772 73.392 27.9422 73.462 27.9072C73.532 27.9072 73.602 27.9072 73.672 27.9072C73.847 28.0122 73.917 28.1872 73.917 28.3972C73.917 28.8872 73.917 29.4122 73.917 29.9022C73.917 30.0072 73.952 30.0772 74.022 30.1122C74.232 30.2172 74.442 30.3572 74.652 30.4622C74.757 30.5322 74.792 30.5322 74.897 30.4622C75.107 30.3222 75.282 30.2172 75.492 30.1122C75.597 30.0772 75.632 30.0072 75.632 29.9022C75.632 29.4122 75.632 28.8872 75.632 28.3972C75.632 28.1872 75.702 28.0122 75.877 27.9072C76.087 27.9422 76.157 27.9422 76.227 27.9422ZM76.472 28.9222C76.472 29.3772 76.472 29.7972 76.472 30.2172C76.472 30.3922 76.402 30.5322 76.262 30.6022C75.877 30.8122 75.492 31.0222 75.142 31.2672C75.002 31.3722 74.862 31.3372 74.687 31.2672C74.302 31.0572 73.917 30.8122 73.532 30.6022C73.357 30.4972 73.2869 30.3922 73.3219 30.2172C73.3219 29.8322 73.3219 29.4472 73.3219 29.0622C73.3219 29.0272 73.3219 28.9922 73.3219 28.9222C73.2519 28.9572 73.217 28.9922 73.217 29.0272C72.0619 30.0072 72.0969 31.6872 73.252 32.6673C73.672 33.0173 73.847 33.4373 73.847 33.9623C73.847 36.4123 73.847 38.8623 73.847 41.3123C73.847 41.3823 73.847 41.4523 73.847 41.5573C74.092 41.6273 74.302 41.6623 74.582 41.7323C74.582 41.6273 74.582 41.5573 74.582 41.4873C74.582 39.1423 74.582 36.7973 74.582 34.4523C74.582 34.3823 74.582 34.3473 74.582 34.2773C74.617 34.1023 74.757 33.9623 74.932 33.9623C75.107 33.9623 75.282 34.1023 75.282 34.2773C75.282 34.3473 75.282 34.4173 75.282 34.4873C75.282 36.8323 75.282 39.1773 75.282 41.5223C75.282 41.5923 75.282 41.6623 75.282 41.7323C75.492 41.6973 75.632 41.6273 75.807 41.5923C75.947 41.5573 75.982 41.4873 75.982 41.3473C75.982 38.9323 75.982 36.4823 75.982 34.0673C75.982 33.4723 76.157 33.0523 76.612 32.6673C77.312 32.0723 77.592 31.3022 77.417 30.3922C77.312 29.7972 76.997 29.3072 76.472 28.9222ZM73.077 36.4123C71.3969 37.7073 71.6419 40.1223 73.077 41.1023C73.077 39.5273 73.077 37.9873 73.077 36.4123ZM76.717 36.4123C76.717 37.9873 76.717 39.5623 76.717 41.1023C78.257 39.9123 78.257 37.6023 76.717 36.4123ZM81.092 35.3973C81.302 35.3973 81.477 35.2223 81.477 35.0473C81.477 34.8723 81.302 34.6973 81.127 34.6973C80.917 34.6973 80.777 34.8373 80.777 35.0473C80.777 35.2223 80.917 35.3623 81.092 35.3973Z" fill="black"/>
</svg>
