<svg width="832" height="634" viewBox="0 0 832 634" fill="none" xmlns="http://www.w3.org/2000/svg">
<ellipse cx="159.6" cy="494.664" rx="104.8" ry="22.8" fill="#AF654A"/>
<g filter="url(#filter0_f_4135_24468)">
<circle cx="360" cy="241.064" r="200.4" fill="#DE9175"/>
</g>
<path d="M555.878 221.675C558.676 220.059 562.123 220.059 564.921 221.675L712.455 306.854C715.253 308.469 716.977 311.454 716.977 314.685V485.043C716.977 488.274 715.253 491.259 712.455 492.875L564.921 578.054C562.123 579.669 558.676 579.669 555.878 578.054L408.344 492.875C405.546 491.259 403.822 488.274 403.822 485.043V314.685C403.822 311.454 405.546 308.469 408.344 306.854L555.878 221.675Z" fill="#2FF7EE"/>
<rect x="228.4" y="159.865" width="132" height="323.2" rx="66" fill="#FAD580"/>
<path d="M624.076 55.4419C632.408 39.2245 655.591 39.2245 663.924 55.4419L692.438 110.939C694.576 115.1 697.964 118.488 702.125 120.626L757.622 149.14C773.839 157.473 773.839 180.656 757.622 188.988L702.125 217.503C697.964 219.641 694.576 223.028 692.438 227.19L663.924 282.687C655.591 298.904 632.408 298.904 624.076 282.687L595.561 227.19C593.423 223.028 590.036 219.641 585.874 217.503L530.377 188.988C514.16 180.656 514.16 157.473 530.377 149.14L585.874 120.626C590.036 118.488 593.423 115.1 595.561 110.939L624.076 55.4419Z" fill="#FFF0CC"/>
<path d="M305.772 169.239C304.233 200.016 280.843 225.048 249.963 225.048C219.186 225.048 194.153 200.119 194.153 169.239C194.153 138.462 219.083 113.429 249.963 113.429C249.963 113.429 284.741 111.788 306.696 146.874C326.188 177.959 306.08 163.596 305.772 169.239Z" fill="#BECACA" stroke="black" stroke-width="2.83561" stroke-miterlimit="10"/>
<path d="M252.014 219.2C273.969 219.2 291.717 201.452 291.717 179.498C291.717 157.543 273.969 139.795 252.014 139.795C230.06 139.795 212.312 157.543 212.312 179.498C212.414 201.452 230.162 219.2 252.014 219.2Z" fill="#E6F1F1"/>
<path d="M15.1316 169.238C15.1316 200.015 40.0612 225.047 70.9411 225.047C101.718 225.047 126.751 200.117 126.751 169.238C126.751 138.46 101.821 113.428 70.9411 113.428C70.9411 113.428 40.369 111.889 17.799 135.998C-5.48916 160.825 22.7233 139.794 15.3368 150.463C7.84763 161.133 7.1295 165.544 12.8746 163.493C16.2601 162.364 15.1316 169.238 15.1316 169.238Z" fill="#BECACA" stroke="black" stroke-width="2.83561" stroke-miterlimit="10"/>
<path d="M67.9664 219.2C89.9208 219.2 107.669 201.452 107.669 179.498C107.669 157.543 89.9208 139.795 67.9664 139.795C46.0119 139.795 28.2637 157.543 28.2637 179.498C28.3663 201.452 46.1145 219.2 67.9664 219.2Z" fill="#E6F1F1"/>
<path d="M106.437 149.746C93.5109 129.74 66.9398 123.995 46.9346 136.922C46.9346 136.922 57.9118 135.075 66.1191 141.538C66.1191 141.538 45.4983 143.59 38.0092 162.877C38.0092 162.877 49.4993 152.413 59.0403 153.747C59.0403 153.747 37.9066 164.108 38.0092 184.934C38.0092 184.934 44.4724 177.137 60.374 174.778C60.374 174.778 52.2693 192.834 59.6559 206.991C59.6559 206.991 62.2206 196.219 67.5554 195.296" stroke="black" stroke-width="2.83561" stroke-miterlimit="10" stroke-linecap="round" stroke-linejoin="round"/>
<path d="M209.028 169.237C209.028 145.436 228.315 126.149 252.117 126.149C252.117 126.149 237.138 135.587 236.01 143.282C236.01 143.282 259.811 137.331 279.098 150.463C279.098 150.463 254.066 151.899 248.013 154.567C248.013 154.567 278.277 158.568 284.022 175.187C284.022 175.187 270.891 168.724 259.093 169.237C259.093 169.237 269.66 184.934 266.992 195.295C266.992 195.295 257.554 187.909 247.91 186.062" stroke="black" stroke-width="2.83561" stroke-miterlimit="10" stroke-linecap="round" stroke-linejoin="round"/>
<path d="M254.989 231.407C289.325 231.407 317.16 203.573 317.16 169.237C317.16 134.902 289.325 107.067 254.989 107.067C220.654 107.067 192.819 134.902 192.819 169.237C192.819 203.573 220.654 231.407 254.989 231.407Z" fill="#97AFAF" stroke="black" stroke-width="2.83561" stroke-miterlimit="10" stroke-linecap="round" stroke-linejoin="round"/>
<path d="M64.1701 231.407C98.5057 231.407 126.34 203.573 126.34 169.237C126.34 134.902 98.5057 107.067 64.1701 107.067C29.8345 107.067 2 134.902 2 169.237C2 203.573 29.8345 231.407 64.1701 231.407Z" fill="#97AFAF" stroke="black" stroke-width="2.83561" stroke-miterlimit="10" stroke-linecap="round" stroke-linejoin="round"/>
<path d="M43.7553 110.453V152.925C43.7553 157.952 39.7542 161.953 34.7273 161.953H2.41113" fill="#97AFAF"/>
<path d="M43.7553 110.453V152.925C43.7553 157.952 39.7542 161.953 34.7273 161.953H2.41113" stroke="black" stroke-width="2.83561" stroke-miterlimit="10" stroke-linecap="round" stroke-linejoin="round"/>
<path d="M34.8299 156.311C36.813 156.311 38.4206 154.703 38.4206 152.72C38.4206 150.737 36.813 149.129 34.8299 149.129C32.8469 149.129 31.2393 150.737 31.2393 152.72C31.2393 154.703 32.8469 156.311 34.8299 156.311Z" fill="#97AFAF" stroke="black" stroke-width="2.05182" stroke-miterlimit="10" stroke-linecap="round" stroke-linejoin="round"/>
<path d="M317.16 167.7H291.82C286.793 167.7 282.792 171.701 282.792 176.728V224.843" fill="#97AFAF"/>
<path d="M317.16 167.7H291.82C286.793 167.7 282.792 171.701 282.792 176.728V224.843" stroke="black" stroke-width="2.83561" stroke-miterlimit="10" stroke-linecap="round" stroke-linejoin="round"/>
<path d="M291.82 180.626C293.803 180.626 295.411 179.018 295.411 177.035C295.411 175.052 293.803 173.445 291.82 173.445C289.837 173.445 288.229 175.052 288.229 177.035C288.229 179.018 289.837 180.626 291.82 180.626Z" fill="#97AFAF" stroke="black" stroke-width="2.05182" stroke-miterlimit="10" stroke-linecap="round" stroke-linejoin="round"/>
<path d="M265.043 316.762C239.601 292.961 206.156 288.55 199.488 287.318C199.385 287.318 199.18 287.216 199.078 287.216C198.872 287.113 198.667 287.113 198.462 287.113C198.359 287.113 198.359 287.113 198.359 287.113C190.87 285.882 183.894 291.012 182.766 298.501C181.637 305.887 186.664 312.966 194.153 314.095C194.153 314.095 194.153 314.095 194.256 314.095H194.358C194.461 314.095 194.461 314.095 194.564 314.197C194.666 314.197 194.666 314.197 194.769 314.3C194.769 314.3 194.769 314.3 194.871 314.3C195.076 314.402 195.282 314.402 195.589 314.402H195.692C195.795 314.402 196 314.505 196.102 314.505C196.308 314.608 196.41 314.608 196.615 314.608H196.718C196.923 314.71 197.026 314.71 197.231 314.71H197.333C197.744 314.813 198.257 314.915 198.667 315.121H198.77C199.283 315.223 199.796 315.428 200.514 315.531H200.616C200.924 315.634 201.129 315.634 201.437 315.736H201.54C201.847 315.839 202.155 315.839 202.463 315.941C202.771 316.044 203.079 316.044 203.386 316.249C203.386 316.249 203.489 316.249 203.592 316.352C204.207 316.557 204.925 316.762 205.746 316.967C205.746 316.967 205.849 316.967 205.849 317.07C206.156 317.172 206.567 317.275 206.874 317.378H206.977C207.387 317.583 207.798 317.583 208.106 317.788C208.516 317.993 208.824 317.993 209.234 318.198C209.337 318.198 209.337 318.198 209.439 318.301C210.26 318.506 211.183 318.814 212.004 319.224C212.107 319.224 212.107 319.327 212.209 319.327C212.62 319.532 213.03 319.635 213.543 319.84C213.543 319.84 213.543 319.84 213.645 319.84C214.056 320.045 214.569 320.148 215.082 320.353C215.082 320.353 215.184 320.353 215.184 320.455C215.595 320.661 216.005 320.763 216.518 320.968C216.621 320.968 216.621 321.071 216.723 321.071C217.646 321.379 218.57 321.789 219.493 322.199C219.596 322.199 219.596 322.302 219.698 322.302C220.109 322.507 220.519 322.712 221.135 322.918C221.135 322.918 221.135 322.918 221.237 322.918C221.75 323.123 222.16 323.328 222.776 323.636C222.879 323.636 222.879 323.738 222.981 323.738C223.392 323.943 223.802 324.149 224.315 324.354C224.417 324.354 224.52 324.456 224.52 324.456C225.033 324.662 225.443 324.867 226.059 325.175C230.778 327.329 235.6 330.099 240.627 333.279C244.423 335.639 246.885 339.64 247.398 344.154C248.629 353.9 249.244 370.007 244.833 389.089C243.192 395.757 243.91 401.297 246.885 405.503C251.091 411.453 258.375 412.582 260.529 412.787C261.35 412.89 262.274 412.89 263.094 412.787C272.533 412.479 278.073 405.195 279.406 397.809C285.356 365.595 275.918 336.562 271.507 325.687C271.507 325.277 270.378 321.892 265.043 316.762Z" fill="#BECACA" stroke="black" stroke-width="2.83561" stroke-miterlimit="10"/>
<path d="M266.376 403.759C265.864 408.478 263.401 411.351 263.401 411.351" stroke="black" stroke-width="2.83561" stroke-miterlimit="10" stroke-linecap="round" stroke-linejoin="round"/>
<path d="M250.578 407.35C252.014 402.015 253.553 399.758 253.553 399.758" stroke="black" stroke-width="2.83561" stroke-miterlimit="10" stroke-linecap="round" stroke-linejoin="round"/>
<path d="M281.356 368.879C281.356 368.879 263.915 361.39 248.834 365.801C248.834 365.801 244.32 364.467 244.32 359.235C244.32 356.465 245.654 348.976 245.346 346.104C244.833 341.384 243.397 335.947 241.55 334.716C222.366 321.79 206.875 317.994 189.434 315.429C171.994 312.864 175.687 286.601 192.512 284.959C209.337 283.318 232.215 286.909 263.915 311.223C274.687 319.533 279.817 335.947 281.356 349.694C281.766 353.593 283.51 358.62 283.613 361.492C283.818 366.006 281.356 368.879 281.356 368.879Z" fill="#353838" stroke="black" stroke-width="2.83561" stroke-miterlimit="10" stroke-linecap="round" stroke-linejoin="round"/>
<path d="M240.535 315.58L249.236 299.176L227.032 287.398L218.331 303.802L240.535 315.58Z" fill="#556161" stroke="black" stroke-width="2.83561" stroke-miterlimit="10" stroke-linecap="round" stroke-linejoin="round"/>
<path d="M240.481 315.593L249.183 299.189L233.504 290.872L224.802 307.276L240.481 315.593Z" fill="#556161" stroke="black" stroke-width="2.83561" stroke-miterlimit="10" stroke-linecap="round" stroke-linejoin="round"/>
<path d="M242.474 318.814C242.474 318.814 238.678 327.534 241.55 334.716" stroke="black" stroke-width="2.83561" stroke-miterlimit="10" stroke-linecap="round" stroke-linejoin="round"/>
<path d="M281.355 349.899C281.355 349.899 274.584 343.334 266.787 343.436" stroke="black" stroke-width="2.83561" stroke-miterlimit="10" stroke-linecap="round" stroke-linejoin="round"/>
<path d="M245.757 350.516C245.757 350.516 247.911 346.617 253.451 345.078" stroke="black" stroke-width="2.83561" stroke-miterlimit="10" stroke-linecap="round" stroke-linejoin="round"/>
<path d="M248.219 375.034L248.732 365.801C248.732 365.801 273.866 363.544 281.561 372.469L281.766 380.574C281.869 380.574 275.405 377.393 248.219 375.034Z" fill="#5B5B5B" stroke="black" stroke-width="2.83561" stroke-miterlimit="10" stroke-linecap="round" stroke-linejoin="round"/>
<path d="M267.3 381.497C272.853 381.497 277.354 376.996 277.354 371.444C277.354 365.891 272.853 361.39 267.3 361.39C261.747 361.39 257.246 365.891 257.246 371.444C257.246 376.996 261.747 381.497 267.3 381.497Z" fill="#2D2D2D" stroke="black" stroke-width="2.83561" stroke-miterlimit="10" stroke-linecap="round" stroke-linejoin="round"/>
<path d="M265.044 366.827L270.994 367.546" stroke="#ADADAD" stroke-width="2.83561" stroke-miterlimit="10" stroke-linecap="round" stroke-linejoin="round"/>
<path d="M264.325 371.445L270.275 372.163" stroke="#ADADAD" stroke-width="2.83561" stroke-miterlimit="10" stroke-linecap="round" stroke-linejoin="round"/>
<path d="M215.929 293.345C217.491 288.969 216.291 284.542 213.25 283.456C210.208 282.37 206.476 285.037 204.914 289.413C203.352 293.789 204.552 298.216 207.593 299.302C210.635 300.387 214.367 297.72 215.929 293.345Z" fill="#556161" stroke="black" stroke-width="2.05182" stroke-miterlimit="10" stroke-linecap="round" stroke-linejoin="round"/>
<path d="M56.5785 316.763C82.0211 292.962 115.466 288.551 122.134 287.32C122.237 287.32 122.442 287.217 122.544 287.217C122.75 287.115 122.955 287.115 123.16 287.115C123.263 287.115 123.263 287.115 123.263 287.115C130.752 285.884 137.728 291.013 138.856 298.502C139.985 305.889 134.958 312.968 127.469 314.096C127.469 314.096 127.469 314.096 127.366 314.096H127.264C127.161 314.096 127.161 314.096 127.058 314.199C126.956 314.199 126.956 314.199 126.853 314.301C126.853 314.301 126.853 314.301 126.751 314.301C126.546 314.404 126.34 314.404 126.033 314.404H125.93C125.827 314.404 125.622 314.506 125.52 314.506C125.314 314.609 125.212 314.609 125.007 314.609H124.904C124.699 314.712 124.596 314.712 124.391 314.712H124.289C123.878 314.814 123.365 314.917 122.955 315.122H122.852C122.339 315.225 121.826 315.43 121.108 315.532H121.006C120.698 315.635 120.493 315.635 120.185 315.737H120.082C119.775 315.84 119.467 315.84 119.159 315.943C118.851 316.045 118.543 316.045 118.236 316.25C118.236 316.25 118.133 316.25 118.03 316.353C117.415 316.558 116.697 316.763 115.876 316.969C115.876 316.969 115.773 316.969 115.773 317.071C115.466 317.174 115.055 317.276 114.748 317.379H114.645C114.235 317.584 113.824 317.584 113.516 317.789C113.106 317.994 112.798 317.994 112.388 318.2C112.285 318.2 112.285 318.2 112.183 318.302C111.362 318.507 110.439 318.815 109.618 319.226C109.515 319.226 109.515 319.328 109.413 319.328C109.002 319.533 108.592 319.636 108.079 319.841C108.079 319.841 108.079 319.841 107.977 319.841C107.566 320.046 107.053 320.149 106.54 320.354C106.54 320.354 106.438 320.354 106.438 320.457C106.027 320.662 105.617 320.764 105.104 320.97C105.001 320.97 105.001 321.072 104.899 321.072C103.976 321.38 103.052 321.79 102.129 322.201C102.026 322.201 102.026 322.303 101.924 322.303C101.513 322.508 101.103 322.714 100.487 322.919C100.487 322.919 100.487 322.919 100.385 322.919C99.8719 323.124 99.4615 323.329 98.846 323.637C98.7434 323.637 98.7434 323.74 98.6408 323.74C98.2304 323.945 97.8201 324.15 97.3071 324.355C97.2045 324.355 97.1019 324.458 97.1019 324.458C96.589 324.663 96.1786 324.868 95.5631 325.176C90.8439 327.33 86.0221 330.1 80.9951 333.281C77.1993 335.64 74.7371 339.641 74.2242 344.155C72.9931 353.901 72.3775 370.008 76.7889 389.09C78.4304 395.758 77.7123 401.298 74.7371 405.505C70.5309 411.455 63.2469 412.583 61.0925 412.789C60.2718 412.891 59.3485 412.891 58.5277 412.789C49.0894 412.481 43.5495 405.197 42.2158 397.81C36.2655 365.597 45.7039 336.563 50.1153 325.689C50.2179 325.278 51.2438 321.893 56.5785 316.763Z" fill="#BECACA" stroke="black" stroke-width="2.83561" stroke-miterlimit="10"/>
<path d="M55.2461 403.761C55.759 408.48 58.2212 411.352 58.2212 411.352" stroke="black" stroke-width="2.83561" stroke-miterlimit="10" stroke-linecap="round" stroke-linejoin="round"/>
<path d="M71.147 407.351C69.7108 402.016 68.1719 399.759 68.1719 399.759" stroke="black" stroke-width="2.83561" stroke-miterlimit="10" stroke-linecap="round" stroke-linejoin="round"/>
<path d="M40.2662 368.88C40.2662 368.88 57.7067 361.391 72.7875 365.802C72.7875 365.802 77.3016 364.469 77.3016 359.237C77.3016 356.467 75.9679 348.977 76.2757 346.105C76.7886 341.386 78.2249 335.948 80.0715 334.717C99.256 321.791 114.747 317.995 132.188 315.43C149.628 312.865 145.935 286.602 129.11 284.961C112.285 283.422 89.4073 286.91 57.7067 311.224C46.9346 319.534 41.8051 335.948 40.2662 349.696C39.8559 353.594 38.1118 358.621 38.0092 361.494C37.804 366.008 40.2662 368.88 40.2662 368.88Z" fill="#353838" stroke="black" stroke-width="2.83561" stroke-miterlimit="10" stroke-linecap="round" stroke-linejoin="round"/>
<path d="M114.449 300.561L107.33 283.411L72.7452 297.768L79.8646 314.918L114.449 300.561Z" fill="#556161" stroke="black" stroke-width="2.83561" stroke-miterlimit="10" stroke-linecap="round" stroke-linejoin="round"/>
<path d="M104.33 304.795L97.2109 287.644L72.7647 297.792L79.884 314.943L104.33 304.795Z" fill="#556161" stroke="black" stroke-width="2.83561" stroke-miterlimit="10" stroke-linecap="round" stroke-linejoin="round"/>
<path d="M77.4033 321.277C77.4033 321.277 81.1992 329.997 78.3267 337.179" stroke="black" stroke-width="2.83561" stroke-miterlimit="10" stroke-linecap="round" stroke-linejoin="round"/>
<path d="M61.4004 353.184C61.4004 353.184 70.8387 351.953 76.9942 356.775" stroke="black" stroke-width="2.83561" stroke-miterlimit="10" stroke-linecap="round" stroke-linejoin="round"/>
<path d="M50.833 351.748C50.833 351.748 44.062 351.953 39.2402 355.236" stroke="black" stroke-width="2.83561" stroke-miterlimit="10" stroke-linecap="round" stroke-linejoin="round"/>
<path d="M157.015 379.855C143.986 369.596 135.984 370.212 125.828 373.802C105.617 380.881 96.6918 395.962 96.6918 416.172C96.6918 437.409 109.208 456.286 122.442 469.417C122.237 469.417 122.134 469.417 121.929 469.417C105.412 469.417 92.0752 478.445 92.0752 489.012C92.0752 499.579 151.886 489.012 151.886 489.012C151.886 489.012 155.784 478.137 151.578 453.721C146.141 422.43 183.689 400.989 157.015 379.855Z" fill="#BECACA" stroke="black" stroke-width="2.83561" stroke-miterlimit="10"/>
<path d="M116.697 481.421C107.054 487.577 107.054 493.732 107.054 493.732" stroke="black" stroke-width="2.83561" stroke-miterlimit="10" stroke-linecap="round" stroke-linejoin="round"/>
<path d="M105.925 478.034C96.2812 484.189 96.2812 490.345 96.2812 490.345" stroke="black" stroke-width="2.83561" stroke-miterlimit="10" stroke-linecap="round" stroke-linejoin="round"/>
<path d="M118.442 467.57C118.442 467.57 66.5311 409.709 112.287 377.393C128.393 366.005 138.755 366.005 158.042 377.495C165.429 381.907 168.609 396.372 162.248 414.428C157.324 428.483 151.271 436.28 152.4 468.186C150.553 468.083 128.701 471.571 118.442 467.57Z" fill="#353838" stroke="black" stroke-width="2.83561" stroke-miterlimit="10" stroke-linecap="round" stroke-linejoin="round"/>
<path d="M153.22 466.134C153.22 464.082 153.323 462.133 153.323 460.081C153.323 459.158 154.041 448.488 154.246 448.488C146.347 446.847 104.9 452.284 104.9 452.284C109.004 457.004 114.338 463.569 117.519 467.468C105.618 469.007 92.7943 473.828 90.1269 482.651C88.1777 493.628 92.2813 495.475 97.6161 495.27L144.91 492.603C150.143 492.5 154.246 487.883 153.733 482.651C153.118 477.317 153.118 471.777 153.22 466.134Z" fill="#8A4B34" stroke="black" stroke-width="2.83561" stroke-miterlimit="10" stroke-linecap="round" stroke-linejoin="round"/>
<path d="M118.443 467.571C125.009 466.34 131.985 469.212 131.985 469.212C131.985 469.212 129.523 461.21 123.162 454.029L109.312 455.465" fill="#97AFAF"/>
<path d="M118.443 467.571C125.009 466.34 131.985 469.212 131.985 469.212C131.985 469.212 129.523 461.21 123.162 454.029L109.312 455.465" stroke="black" stroke-width="2.83561" stroke-miterlimit="10" stroke-linecap="round" stroke-linejoin="round"/>
<path d="M112.697 461.722C112.697 461.722 123.264 459.362 128.291 461.106Z" fill="#815E2E"/>
<path d="M112.697 461.722C112.697 461.722 123.264 459.362 128.291 461.106" stroke="black" stroke-width="2.83561" stroke-miterlimit="10" stroke-linecap="round" stroke-linejoin="round"/>
<path d="M148.912 479.983C148.912 479.983 146.86 465.415 148.912 448.283" stroke="black" stroke-width="1.02591" stroke-miterlimit="10" stroke-linecap="round" stroke-linejoin="round"/>
<path d="M126.649 422.327H91.8711L95.9747 443.974H126.649V422.327Z" fill="#606060" stroke="black" stroke-width="2.83561" stroke-miterlimit="10" stroke-linecap="round" stroke-linejoin="round"/>
<path d="M126.65 430.74H93.4102L95.9749 443.974H126.65V430.74Z" fill="#606060" stroke="black" stroke-width="2.83561" stroke-miterlimit="10" stroke-linecap="round" stroke-linejoin="round"/>
<path d="M124.495 407.349H89.7168V416.275H124.495V407.349Z" fill="#606060" stroke="black" stroke-width="2.83561" stroke-miterlimit="10" stroke-linecap="round" stroke-linejoin="round"/>
<path d="M165.838 379.855C178.867 369.596 186.869 370.212 197.026 373.802C217.236 380.881 226.162 395.962 226.162 416.172C226.162 437.409 213.646 456.286 200.411 469.417C200.617 469.417 200.719 469.417 200.924 469.417C217.441 469.417 230.778 478.445 230.778 489.012C230.778 499.579 170.968 489.012 170.968 489.012C170.968 489.012 167.069 478.137 171.276 453.721C176.713 422.43 139.165 400.989 165.838 379.855Z" fill="#BECACA" stroke="black" stroke-width="2.83561" stroke-miterlimit="10"/>
<path d="M206.157 481.421C215.801 487.577 215.801 493.732 215.801 493.732" stroke="black" stroke-width="2.83561" stroke-miterlimit="10" stroke-linecap="round" stroke-linejoin="round"/>
<path d="M216.929 478.034C226.572 484.189 226.572 490.345 226.572 490.345" stroke="black" stroke-width="2.83561" stroke-miterlimit="10" stroke-linecap="round" stroke-linejoin="round"/>
<path d="M204.105 467.57C204.105 467.57 256.016 409.709 210.261 377.393C194.154 366.005 183.792 366.005 164.505 377.495C157.119 381.907 153.938 396.372 160.299 414.428C165.223 428.483 171.276 436.28 170.148 468.186C171.994 468.083 193.949 471.571 204.105 467.57Z" fill="#353838" stroke="black" stroke-width="2.83561" stroke-miterlimit="10" stroke-linecap="round" stroke-linejoin="round"/>
<path d="M169.327 466.134C169.327 464.082 169.224 462.133 169.224 460.081C169.224 459.158 168.506 448.488 168.301 448.488C176.2 446.847 217.647 452.284 217.647 452.284C213.543 457.004 208.209 463.569 205.028 467.468C216.929 469.007 229.753 473.828 232.42 482.651C234.369 493.628 230.266 495.475 224.931 495.27L177.637 492.603C172.404 492.5 168.301 487.883 168.814 482.651C169.429 477.317 169.429 471.777 169.327 466.134Z" fill="#8A4B34" stroke="black" stroke-width="2.83561" stroke-miterlimit="10" stroke-linecap="round" stroke-linejoin="round"/>
<path d="M204.104 467.571C197.539 466.34 190.562 469.212 190.562 469.212C190.562 469.212 193.025 461.21 199.385 454.029L213.235 455.465" fill="#97AFAF"/>
<path d="M204.104 467.571C197.539 466.34 190.562 469.212 190.562 469.212C190.562 469.212 193.025 461.21 199.385 454.029L213.235 455.465" stroke="black" stroke-width="2.83561" stroke-miterlimit="10" stroke-linecap="round" stroke-linejoin="round"/>
<path d="M209.952 461.722C209.952 461.722 199.385 459.362 194.358 461.106Z" fill="#815E2E"/>
<path d="M209.952 461.722C209.952 461.722 199.385 459.362 194.358 461.106" stroke="black" stroke-width="2.83561" stroke-miterlimit="10" stroke-linecap="round" stroke-linejoin="round"/>
<path d="M173.635 479.983C173.635 479.983 175.687 465.415 173.635 448.283" stroke="black" stroke-width="1.02591" stroke-miterlimit="10" stroke-linecap="round" stroke-linejoin="round"/>
<path d="M195.897 422.327H230.676L226.572 443.974H195.897V422.327Z" fill="#606060" stroke="black" stroke-width="2.83561" stroke-miterlimit="10" stroke-linecap="round" stroke-linejoin="round"/>
<path d="M195.897 430.74H229.137L226.572 443.974H195.897V430.74Z" fill="#606060" stroke="black" stroke-width="2.83561" stroke-miterlimit="10" stroke-linecap="round" stroke-linejoin="round"/>
<path d="M198.112 416.18L232.891 416.18L232.891 407.255L198.112 407.255L198.112 416.18Z" fill="#606060" stroke="black" stroke-width="2.83561" stroke-miterlimit="10" stroke-linecap="round" stroke-linejoin="round"/>
<path d="M202.464 303.835C214.057 322.814 221.341 346.512 221.341 363.85C221.341 397.295 194.154 424.481 160.709 424.481C127.265 424.481 100.078 397.295 100.078 363.85C100.078 330.406 127.265 272.647 160.709 272.647C176.919 272.75 191.589 286.189 202.464 303.835Z" fill="#BECACA" stroke="black" stroke-width="2.83561" stroke-miterlimit="10"/>
<path d="M160.71 405.4C184.717 405.4 204.209 376.777 204.209 341.383C204.209 305.989 184.717 277.366 160.71 277.366C136.704 277.366 117.212 305.989 117.212 341.383C117.212 376.777 136.704 405.4 160.71 405.4Z" fill="#E6F1F1"/>
<path d="M221.647 368.88C218.672 396.169 196.102 426.331 160.811 426.331C122.852 426.331 100.282 392.989 100.282 368.88C120.903 378.523 135.984 383.345 160.503 383.55C189.331 383.756 209.439 377.395 221.647 368.88Z" fill="#353838" stroke="black" stroke-width="2.83561" stroke-miterlimit="10" stroke-linecap="round" stroke-linejoin="round"/>
<path d="M170.557 412.893H147.269C139.472 412.893 133.111 406.532 133.111 398.735V375.447H184.612V398.735C184.612 406.635 178.354 412.893 170.557 412.893Z" fill="#556161" stroke="black" stroke-width="2.83561" stroke-miterlimit="10" stroke-linecap="round" stroke-linejoin="round"/>
<path d="M219.391 382.215C196.411 391.346 132.394 390.115 101.206 380.471C88.4849 334.408 133.83 280.855 133.83 280.855L158.349 295.116L187.075 280.855C187.075 280.855 233.754 337.178 219.391 382.215Z" fill="#353838" stroke="black" stroke-width="2.83561" stroke-miterlimit="10" stroke-linecap="round" stroke-linejoin="round"/>
<path d="M107.053 363.851L105.925 358.311C105.925 358.311 133.624 363.646 149.116 359.645V365.39" stroke="black" stroke-width="2.83561" stroke-miterlimit="10" stroke-linecap="round" stroke-linejoin="round"/>
<path d="M213.85 364.878L214.979 359.338C214.979 359.338 187.279 364.672 171.788 360.671V366.417" stroke="black" stroke-width="2.83561" stroke-miterlimit="10" stroke-linecap="round" stroke-linejoin="round"/>
<path d="M160.4 388.165C160.4 388.165 154.039 354.208 158.246 295.115" stroke="black" stroke-width="2.83561" stroke-miterlimit="10" stroke-linecap="round" stroke-linejoin="round"/>
<path d="M133.83 280.855C133.83 280.855 122.032 289.985 117.518 295.115C117.518 295.115 137.01 286.908 158.349 293.781C158.246 293.781 150.86 284.446 133.83 280.855Z" fill="#97AFAF" stroke="black" stroke-width="2.83561" stroke-miterlimit="10" stroke-linecap="round" stroke-linejoin="round"/>
<path d="M188.306 280.855C188.306 280.855 199.693 289.37 204.207 294.397C204.207 294.397 182.56 286.087 159.478 293.781C159.478 293.781 171.276 284.446 188.306 280.855Z" fill="#97AFAF" stroke="black" stroke-width="2.83561" stroke-miterlimit="10" stroke-linecap="round" stroke-linejoin="round"/>
<path d="M142.448 319.635L133.933 323.738L125.418 319.635V311.838L133.933 315.941L142.448 311.838V319.635Z" fill="#FFCA51" stroke="black" stroke-width="2.05182" stroke-miterlimit="10" stroke-linecap="round" stroke-linejoin="round"/>
<path d="M142.448 308.042L133.933 312.145L125.418 308.042V301.271L133.933 304.348L142.448 301.271V308.042Z" fill="#FFCA51" stroke="black" stroke-width="2.05182" stroke-miterlimit="10" stroke-linecap="round" stroke-linejoin="round"/>
<path d="M145.115 326.919H122.75V333.587H145.115V326.919Z" fill="#FFCA51" stroke="black" stroke-width="2.05182" stroke-miterlimit="10" stroke-linecap="round" stroke-linejoin="round"/>
<path d="M194.154 164.518C221.135 171.392 241.961 191.807 241.961 220.738V231.818C241.961 264.852 215.185 283.011 182.151 283.011H138.857C105.823 283.011 79.0469 265.775 79.0469 232.741V223.2C79.0469 200.733 91.4604 181.035 109.824 170.879C109.824 170.879 133.317 157.337 161.325 151.386C179.176 147.591 162.864 156.311 165.428 159.286C168.198 162.466 178.56 152.617 180.099 158.157C181.535 163.492 188.819 163.184 194.154 164.518Z" fill="#BECACA" stroke="black" stroke-width="2.83561" stroke-miterlimit="10"/>
<path d="M101.207 254.696C107.875 254.696 113.312 252.746 113.312 250.387C113.312 248.027 107.875 246.078 101.207 246.078C94.5383 246.078 89.101 248.027 89.101 250.387C88.9984 252.746 94.4358 254.696 101.207 254.696Z" fill="#FF9294"/>
<path d="M219.802 254.696C226.47 254.696 231.907 252.746 231.907 250.387C231.907 248.027 226.47 246.078 219.802 246.078C213.133 246.078 207.696 248.027 207.696 250.387C207.593 252.746 213.031 254.696 219.802 254.696Z" fill="#FF9294"/>
<path d="M102.336 206.889C102.336 206.889 112.185 198.476 128.907 203.401" stroke="black" stroke-width="4.72595" stroke-miterlimit="10" stroke-linecap="round" stroke-linejoin="round"/>
<path d="M220.315 208.016C220.315 208.016 210.466 199.603 193.744 204.528" stroke="black" stroke-width="4.72595" stroke-miterlimit="10" stroke-linecap="round" stroke-linejoin="round"/>
<path d="M113.62 243.923C121.417 243.923 127.675 237.665 127.675 229.868C127.675 222.071 121.417 215.813 113.62 215.813C105.823 215.813 99.5654 222.071 99.5654 229.868C99.5654 237.665 105.823 243.923 113.62 243.923Z" fill="white" stroke="black" stroke-width="2.83561" stroke-miterlimit="10"/>
<path d="M116.595 239.101C121.725 239.101 125.829 234.998 125.829 229.868C125.829 224.739 121.725 220.635 116.595 220.635C111.466 220.635 107.362 224.739 107.362 229.868C107.362 234.998 111.466 239.101 116.595 239.101Z" fill="black"/>
<path d="M205.336 243.923C213.133 243.923 219.391 237.665 219.391 229.868C219.391 222.071 213.133 215.813 205.336 215.813C197.539 215.813 191.281 222.071 191.281 229.868C191.281 237.665 197.642 243.923 205.336 243.923Z" fill="white" stroke="black" stroke-width="2.83561" stroke-miterlimit="10"/>
<path d="M202.67 239.101C207.799 239.101 211.903 234.998 211.903 229.868C211.903 224.739 207.799 220.635 202.67 220.635C197.54 220.635 193.437 224.739 193.437 229.868C193.437 234.998 197.54 239.101 202.67 239.101Z" fill="black"/>
<path d="M177.227 233.357C176.714 224.534 164.506 204.016 159.376 204.323C154.349 204.631 144.5 226.381 145.013 235.306C145.526 244.129 153.118 251.002 162.043 250.489C170.969 249.771 177.74 242.18 177.227 233.357Z" fill="black"/>
<path d="M183.998 260.132C183.998 260.132 160.915 268.749 137.832 260.132" stroke="black" stroke-width="4.02844" stroke-miterlimit="10" stroke-linecap="round" stroke-linejoin="round"/>
<path d="M136.496 289.37L111.977 276.136C105.616 269.775 106.54 249.052 111.977 247.103C134.649 239.1 145.627 219.711 149.217 211.811C151.167 207.502 155.373 204.425 160.092 204.117C160.502 204.117 160.81 204.117 161.221 204.117C166.35 204.117 170.967 207.4 173.018 212.119C176.609 220.326 187.484 240.126 210.875 247.821C216.004 249.462 216.825 269.57 210.875 275.52L185.74 289.37C170.659 301.271 151.372 301.271 136.496 289.37Z" fill="#353838" stroke="black" stroke-width="2.83561" stroke-miterlimit="10" stroke-linecap="round" stroke-linejoin="round"/>
<path d="M136.497 243.204L131.778 260.337C130.547 264.851 125.93 267.416 121.416 266.185" stroke="black" stroke-width="2.83561" stroke-miterlimit="10" stroke-linecap="round" stroke-linejoin="round"/>
<path d="M184.1 243.204L188.819 260.337C190.05 264.851 194.666 267.416 199.18 266.185" stroke="black" stroke-width="2.83561" stroke-miterlimit="10" stroke-linecap="round" stroke-linejoin="round"/>
<path d="M220.519 357.284C154.553 357.284 147.475 321.89 147.475 306.707V281.982C147.475 274.288 153.63 268.133 161.324 268.133C169.019 268.133 175.174 274.288 175.174 281.982V306.707C175.174 312.452 176.918 316.658 180.611 319.941C185.536 324.353 196.41 329.482 220.519 329.482C228.214 329.482 234.369 335.638 234.369 343.332C234.369 351.026 228.214 357.284 220.519 357.284Z" fill="#556161"/>
<path d="M175.688 281.982C175.688 283.316 174.765 283.316 174.765 284.752C174.765 286.086 175.688 286.086 175.688 287.522C175.688 288.856 174.765 288.856 174.765 290.292C174.765 291.625 175.688 291.625 175.688 293.062C175.688 294.395 174.765 294.395 174.765 295.832C174.765 297.165 175.688 297.165 175.688 298.602C175.688 299.935 174.765 299.935 174.765 301.372C174.765 302.705 175.688 302.705 175.688 304.142C175.688 305.475 174.765 305.475 174.765 306.912C174.765 307.527 175.688 308.04 175.791 308.553C175.791 309.066 174.97 309.784 174.97 310.297C175.072 310.81 176.098 311.22 176.201 311.733C176.304 312.246 175.585 313.067 175.688 313.58C175.893 314.093 176.919 314.298 177.124 314.811C177.329 315.324 176.714 316.247 177.022 316.76C177.329 317.273 178.355 317.171 178.766 317.581C179.073 317.991 178.663 319.017 179.073 319.428C179.484 319.838 180.51 319.53 180.92 319.941C181.946 320.864 182.562 322.505 184.1 323.429C185.331 324.147 187.076 323.942 188.717 324.66C190.051 325.173 191.179 326.609 192.821 327.122C194.154 327.532 195.898 327.019 197.54 327.327C198.976 327.635 200.31 328.866 201.951 329.071C203.388 329.276 205.029 328.558 206.67 328.763C208.107 328.969 209.646 329.994 211.184 330.097C212.621 330.2 214.262 329.276 215.904 329.379C217.442 329.379 218.981 330.405 220.52 330.405" stroke="black" stroke-width="2.83561" stroke-miterlimit="10" stroke-linecap="round" stroke-linejoin="round"/>
<path d="M220.52 358.001C217.647 357.898 214.877 356.257 212.21 356.154C209.337 356.052 206.465 357.385 203.797 357.283C200.925 357.078 198.258 355.436 195.59 355.128C192.718 354.821 189.742 355.846 187.178 355.334C184.408 354.718 182.253 352.564 179.689 351.538C177.124 350.512 174.046 350.717 171.584 349.178C169.327 347.742 167.993 344.972 165.839 343.023C163.89 341.279 160.914 340.458 158.965 338.201C157.221 336.252 156.708 333.174 154.964 330.712C154.041 329.378 151.886 328.455 151.168 326.403C150.553 324.761 151.476 322.504 151.066 320.658C150.655 318.914 148.809 317.375 148.501 315.426C148.193 313.579 149.424 311.527 149.219 309.681C149.014 307.834 147.372 306.09 147.27 304.243C147.167 302.294 148.501 300.345 148.398 298.601C148.296 296.651 146.757 294.805 146.654 293.061C146.654 291.009 148.091 289.06 148.091 287.418C148.091 284.033 146.654 284.648 146.654 281.878" stroke="black" stroke-width="2.83561" stroke-miterlimit="10" stroke-linecap="round" stroke-linejoin="round"/>
<path d="M220.622 330.096C228.009 330.096 233.959 336.046 233.959 343.433C233.959 350.819 228.419 357.693 221.032 357.693" fill="#556161"/>
<path d="M220.622 330.096C228.009 330.096 233.959 336.046 233.959 343.433C233.959 350.819 228.419 357.693 221.032 357.693" stroke="black" stroke-width="2.83561" stroke-miterlimit="10" stroke-linecap="round" stroke-linejoin="round"/>
<path d="M142.448 281.983C146.552 279.829 150.861 278.084 161.325 278.084C171.789 278.084 180.304 280.341 180.304 283.009C180.304 283.009 175.277 265.774 161.325 266.492C147.373 267.21 142.859 273.673 142.448 281.983Z" fill="#353838"/>
<path d="M142.345 283.01C142.345 280.24 150.86 278.085 161.324 278.085C171.788 278.085 180.303 280.342 180.303 283.01" stroke="black" stroke-width="2.83561" stroke-miterlimit="10" stroke-linecap="round" stroke-linejoin="round"/>
<path d="M156.194 287.625C156.194 287.625 166.043 283.317 175.174 284.65Z" fill="#353838"/>
<path d="M156.194 287.625C156.194 287.625 166.043 283.317 175.174 284.65" stroke="black" stroke-width="2.83561" stroke-miterlimit="10" stroke-linecap="round" stroke-linejoin="round"/>
<path d="M159.477 305.784C159.477 305.784 153.322 306.399 148.397 309.067Z" fill="#353838"/>
<path d="M159.477 305.784C159.477 305.784 153.322 306.399 148.397 309.067" stroke="black" stroke-width="2.83561" stroke-miterlimit="10" stroke-linecap="round" stroke-linejoin="round"/>
<path d="M165.735 321.274C165.735 321.274 171.891 316.247 177.944 316.965Z" fill="#353838"/>
<path d="M165.735 321.274C165.735 321.274 171.891 316.247 177.944 316.965" stroke="black" stroke-width="2.83561" stroke-miterlimit="10" stroke-linecap="round" stroke-linejoin="round"/>
<path d="M189.127 347.847C189.127 347.847 184.51 346.616 173.841 349.591Z" fill="#353838"/>
<path d="M189.127 347.847C189.127 347.847 184.51 346.616 173.841 349.591" stroke="black" stroke-width="2.83561" stroke-miterlimit="10" stroke-linecap="round" stroke-linejoin="round"/>
<path d="M206.67 338.921C206.67 338.921 207.593 330.714 213.133 329.38Z" fill="#353838"/>
<path d="M206.67 338.921C206.67 338.921 207.593 330.714 213.133 329.38" stroke="black" stroke-width="2.83561" stroke-miterlimit="10" stroke-linecap="round" stroke-linejoin="round"/>
<path d="M115.363 275.11C115.363 275.11 110.644 268.749 113.311 250.386C113.311 250.386 80.2766 238.075 76.9937 220.634C76.9937 220.634 72.2745 239.203 82.5336 251.719C92.7927 264.235 102.847 269.98 115.363 275.11Z" fill="#556161" stroke="black" stroke-width="2.83561" stroke-miterlimit="10" stroke-linecap="round" stroke-linejoin="round"/>
<path d="M206.669 275.11C206.669 275.11 211.388 268.749 208.721 250.386C208.721 250.386 241.755 238.075 245.038 220.634C245.038 220.634 249.757 239.203 239.498 251.719C229.239 264.235 219.185 269.98 206.669 275.11Z" fill="#556161" stroke="black" stroke-width="2.83561" stroke-miterlimit="10" stroke-linecap="round" stroke-linejoin="round"/>
<path d="M254.784 213.455L272.327 206.992C274.276 205.453 275.405 203.196 275.405 200.734L268.223 152.619C268.223 149.233 266.171 146.258 262.991 145.13L240.934 134.46C234.779 132.203 228.623 138.051 230.675 144.309L254.784 213.455Z" fill="#97AFAF" stroke="black" stroke-width="2.83561" stroke-miterlimit="10" stroke-linecap="round" stroke-linejoin="round"/>
<path d="M252.835 200.016H265.248V183.806L264.222 167.494L257.041 151.182H242.062L252.835 200.016Z" fill="#7D9392"/>
<path d="M243.909 151.182H257.041" stroke="black" stroke-width="2.83561" stroke-miterlimit="10" stroke-linecap="round" stroke-linejoin="round"/>
<path d="M249.757 167.493H264.222" stroke="black" stroke-width="2.83561" stroke-miterlimit="10" stroke-linecap="round" stroke-linejoin="round"/>
<path d="M252.834 183.806H265.247" stroke="black" stroke-width="2.83561" stroke-miterlimit="10" stroke-linecap="round" stroke-linejoin="round"/>
<path d="M253.759 200.014H265.249" stroke="black" stroke-width="2.83561" stroke-miterlimit="10" stroke-linecap="round" stroke-linejoin="round"/>
<path d="M64.3757 213.455L46.8326 206.992C44.8834 205.453 43.7549 203.196 43.7549 200.734L50.9362 152.619C50.9362 149.233 52.9881 146.258 56.1684 145.13L78.2254 134.46C84.3809 132.203 90.5364 138.051 88.4845 144.309L64.3757 213.455Z" fill="#97AFAF" stroke="black" stroke-width="2.83561" stroke-miterlimit="10" stroke-linecap="round" stroke-linejoin="round"/>
<path d="M66.3246 200.016H53.9111V183.806L54.937 167.494L62.1184 151.182H77.1993L66.3246 200.016Z" fill="#7D9392"/>
<path d="M75.2498 151.182H62.1182" stroke="black" stroke-width="2.83561" stroke-miterlimit="10" stroke-linecap="round" stroke-linejoin="round"/>
<path d="M69.4018 167.493H54.9365" stroke="black" stroke-width="2.83561" stroke-miterlimit="10" stroke-linecap="round" stroke-linejoin="round"/>
<path d="M66.3246 183.806H53.9111" stroke="black" stroke-width="2.83561" stroke-miterlimit="10" stroke-linecap="round" stroke-linejoin="round"/>
<path d="M65.4013 200.014H53.9111" stroke="black" stroke-width="2.83561" stroke-miterlimit="10" stroke-linecap="round" stroke-linejoin="round"/>
<path d="M238.165 251.72C240.935 245.154 242.166 238.076 242.166 230.792C242.166 193.962 228.213 163.595 160.503 163.595C93.4088 163.595 79.8669 193.962 79.8669 230.792C79.8669 238.076 79.7643 245.154 82.5342 251.72C71.2492 237.152 63.1445 219.404 63.1445 200.22C63.1445 150.976 85.8171 103.066 160.503 103.066C233.753 103.066 257.862 150.976 257.862 200.22C257.862 219.404 249.45 237.152 238.165 251.72Z" fill="#97AFAF" stroke="black" stroke-width="2.83561" stroke-miterlimit="10" stroke-linecap="round" stroke-linejoin="round"/>
<path d="M205.233 130.252C198.564 128.098 191.691 126.764 185.022 125.738C169.121 123.481 153.116 123.994 137.215 125.841C122.749 127.585 108.182 131.073 95.3576 139.998C81.2001 149.847 70.1203 165.544 66.94 185.344C66.94 185.549 66.8374 185.754 66.8374 185.959C66.2218 189.96 65.9141 193.961 65.9141 197.962C65.9141 233.459 81.9182 257.875 109.31 255.003C125.622 253.259 139.882 246.898 150.244 236.536C153.116 233.664 156.81 231.92 160.503 232.022H160.605C164.196 232.125 167.684 233.766 170.557 236.536C181.021 246.898 195.179 253.361 211.593 255.003C238.882 257.875 254.989 233.459 254.989 197.962C254.989 178.778 247.603 161.03 235.805 148.616C227.084 139.383 216.415 133.74 205.233 130.252Z" fill="url(#paint0_linear_4135_24468)" stroke="black" stroke-width="2.83561" stroke-miterlimit="10" stroke-linecap="round" stroke-linejoin="round"/>
<path d="M122 573.163C221.812 681.847 318.381 623.099 406.385 535.095" stroke="black" stroke-width="2.4" stroke-linecap="round"/>
<path d="M386.231 541.813C410.554 527.576 410.863 527.924 410.863 550.77" stroke="black" stroke-width="2.4" stroke-linecap="round"/>
<path d="M646.449 169.243C654.751 106.52 678.254 80.1541 741.617 67.4814C769.272 61.9504 830.068 67.2084 830.068 106.544C830.068 161.305 742.404 102.065 792 102.065" stroke="black" stroke-width="2.4" stroke-linecap="round"/>
<path d="M785.457 97.9724C787.419 98.1874 802.856 100.473 802.547 100.645C800.719 101.66 792.055 107.284 792.42 107.467" stroke="black" stroke-width="2.4" stroke-linecap="round"/>
<defs>
<filter id="filter0_f_4135_24468" x="119.6" y="0.664307" width="480.8" height="480.8" filterUnits="userSpaceOnUse" color-interpolation-filters="sRGB">
<feFlood flood-opacity="0" result="BackgroundImageFix"/>
<feBlend mode="normal" in="SourceGraphic" in2="BackgroundImageFix" result="shape"/>
<feGaussianBlur stdDeviation="20" result="effect1_foregroundBlur_4135_24468"/>
</filter>
<linearGradient id="paint0_linear_4135_24468" x1="160.503" y1="255.242" x2="160.503" y2="124.213" gradientUnits="userSpaceOnUse">
<stop stop-color="#FF7B15"/>
<stop offset="1" stop-color="#FF7B15" stop-opacity="0.3"/>
</linearGradient>
</defs>
</svg>
