<svg width="885" height="659" viewBox="0 0 885 659" fill="none" xmlns="http://www.w3.org/2000/svg">
<g filter="url(#filter0_f_4135_24649)">
<rect x="442.5" y="306.349" width="309.924" height="305.298" rx="22.4" transform="rotate(-45 442.5 306.349)" fill="#FFE8E8"/>
</g>
<rect x="140.1" y="79.2" width="465.6" height="468.8" rx="232.8" fill="#C6F5F2"/>
<path d="M270.47 7.92774C272.146 4.63125 276.855 4.63124 278.531 7.92773L306.77 63.4715C307.693 65.2872 309.716 66.2616 311.711 65.8512L372.744 53.2983C376.366 52.5533 379.302 56.235 377.77 59.6006L351.95 116.31C351.106 118.163 351.606 120.353 353.171 121.657L401.038 161.547C403.879 163.915 402.831 168.506 399.245 169.406L338.81 184.577C336.834 185.073 335.434 186.829 335.39 188.865L334.047 251.161C333.967 254.858 329.725 256.902 326.784 254.659L277.242 216.868C275.623 215.632 273.377 215.632 271.758 216.868L222.216 254.659C219.276 256.902 215.033 254.858 214.953 251.161L213.61 188.865C213.567 186.829 212.166 185.073 210.191 184.577L149.756 169.406C146.169 168.506 145.121 163.915 147.962 161.547L195.83 121.657C197.394 120.353 197.894 118.163 197.05 116.31L171.231 59.6007C169.698 56.235 172.635 52.5533 176.257 53.2983L237.289 65.8512C239.284 66.2616 241.308 65.2872 242.231 63.4715L270.47 7.92774Z" fill="#FF9294"/>
<ellipse cx="163.3" cy="496.4" rx="104.8" ry="22.8" fill="#297E88"/>
<path d="M228.139 157.126C236.405 141.324 236.123 124.862 227.509 120.356C218.896 115.851 205.212 125.008 196.947 140.81C188.681 156.612 188.963 173.074 197.577 177.58C206.19 182.086 219.874 172.928 228.139 157.126Z" fill="white" stroke="black" stroke-width="2.71341" stroke-miterlimit="10" stroke-linecap="round" stroke-linejoin="round"/>
<path d="M198.021 175.58C213.198 162.777 217.702 137.913 217.702 137.913" stroke="black" stroke-width="3.61788" stroke-miterlimit="10" stroke-linecap="round" stroke-linejoin="round"/>
<path d="M184.894 151.947L195.304 132.289C197.471 128.196 195.318 123.149 190.864 121.887C172.625 116.723 129.436 109.89 107.494 151.947C79.2248 206.134 122.522 319.704 122.522 319.704L184.894 151.947Z" fill="#727F7F" stroke="black" stroke-width="2.71341" stroke-miterlimit="10"/>
<path d="M114.35 280.495L122.521 279.292" stroke="black" stroke-width="2.71341" stroke-miterlimit="10" stroke-linecap="round" stroke-linejoin="round"/>
<path d="M110.678 262.175L122.522 260.113" stroke="black" stroke-width="2.71341" stroke-miterlimit="10" stroke-linecap="round" stroke-linejoin="round"/>
<path d="M106.182 245.273L122.521 243.546" stroke="black" stroke-width="2.71341" stroke-miterlimit="10" stroke-linecap="round" stroke-linejoin="round"/>
<path d="M104.4 229.508H122.521" stroke="black" stroke-width="2.71341" stroke-miterlimit="10" stroke-linecap="round" stroke-linejoin="round"/>
<path d="M102.723 209.853L122.522 211.707" stroke="black" stroke-width="2.71341" stroke-miterlimit="10" stroke-linecap="round" stroke-linejoin="round"/>
<path d="M103.559 189.821L123.837 192.856" stroke="black" stroke-width="2.71341" stroke-miterlimit="10" stroke-linecap="round" stroke-linejoin="round"/>
<path d="M133.984 129.868L143.753 151.987" stroke="black" stroke-width="2.71341" stroke-miterlimit="10" stroke-linecap="round" stroke-linejoin="round"/>
<path d="M151.197 124.157L155.557 146.565" stroke="black" stroke-width="2.71341" stroke-miterlimit="10" stroke-linecap="round" stroke-linejoin="round"/>
<path d="M168.836 123.588L167.569 146.688" stroke="black" stroke-width="2.71341" stroke-miterlimit="10" stroke-linecap="round" stroke-linejoin="round"/>
<path d="M184.894 127.015L179.508 149.397" stroke="black" stroke-width="2.71341" stroke-miterlimit="10" stroke-linecap="round" stroke-linejoin="round"/>
<path d="M124.348 181.65C134.051 176.575 134.368 158.031 125.057 140.23C115.746 122.43 100.333 112.114 90.6303 117.189C80.9279 122.264 80.6105 140.809 89.9215 158.609C99.2325 176.409 114.646 186.725 124.348 181.65Z" fill="white" stroke="black" stroke-width="2.71341" stroke-miterlimit="10" stroke-linecap="round" stroke-linejoin="round"/>
<path d="M123.836 179.414C106.742 164.992 101.663 136.981 101.663 136.981" stroke="black" stroke-width="3.61788" stroke-miterlimit="10" stroke-linecap="round" stroke-linejoin="round"/>
<path d="M263.365 323.878C239.795 300.299 207.871 295.139 201.544 293.778C201.54 293.778 201.535 293.778 201.531 293.773C201.386 293.741 201.255 293.714 201.133 293.687C201.119 293.683 201.101 293.683 201.088 293.678C200.839 293.628 200.654 293.588 200.527 293.565C200.522 293.565 200.518 293.565 200.518 293.565C200.459 293.551 200.405 293.542 200.378 293.538C193.291 292.208 186.449 296.889 185.119 303.971C183.79 311.053 188.47 317.9 195.552 319.229C195.557 319.229 195.579 319.234 195.602 319.238C195.607 319.238 195.616 319.243 195.625 319.243C195.647 319.247 195.684 319.256 195.72 319.261C195.733 319.265 195.747 319.265 195.76 319.27C195.815 319.279 195.878 319.293 195.95 319.311C195.964 319.315 195.977 319.315 195.991 319.32C196.059 319.333 196.131 319.351 196.208 319.365C196.231 319.369 196.249 319.374 196.271 319.379C196.47 319.424 196.715 319.478 196.99 319.541C197.022 319.55 197.049 319.555 197.081 319.564C197.217 319.596 197.357 319.627 197.511 319.663C197.52 319.663 197.529 319.668 197.538 319.668C197.705 319.709 197.881 319.749 198.067 319.795C198.094 319.799 198.121 319.808 198.148 319.813C198.311 319.853 198.483 319.899 198.664 319.944C198.695 319.953 198.723 319.957 198.754 319.966C199.166 320.07 199.618 320.188 200.097 320.319C200.133 320.328 200.17 320.337 200.21 320.351C200.699 320.482 201.223 320.627 201.775 320.785C201.811 320.794 201.847 320.808 201.884 320.817C202.137 320.889 202.395 320.966 202.662 321.043C202.693 321.052 202.725 321.061 202.756 321.07C203.059 321.16 203.367 321.251 203.684 321.346C203.688 321.346 203.688 321.346 203.693 321.35C203.996 321.441 204.303 321.536 204.615 321.635C204.665 321.649 204.715 321.667 204.764 321.68C205.416 321.884 206.098 322.105 206.804 322.336C206.849 322.35 206.89 322.363 206.935 322.381C207.265 322.49 207.6 322.603 207.944 322.721C207.975 322.73 208.002 322.739 208.034 322.752C208.409 322.879 208.794 323.014 209.183 323.15C209.196 323.155 209.21 323.159 209.223 323.164C209.585 323.29 209.952 323.421 210.322 323.557C210.381 323.58 210.435 323.598 210.494 323.62C211.277 323.905 212.077 324.204 212.9 324.52C212.959 324.543 213.018 324.566 213.072 324.588C213.461 324.738 213.854 324.891 214.252 325.05C214.275 325.059 214.297 325.068 214.325 325.077C214.754 325.249 215.188 325.425 215.627 325.601C215.668 325.619 215.708 325.633 215.749 325.651C216.143 325.814 216.536 325.977 216.939 326.144C217.002 326.171 217.065 326.198 217.133 326.225C218.006 326.596 218.897 326.985 219.801 327.388C219.874 327.419 219.95 327.455 220.023 327.487C220.448 327.677 220.873 327.871 221.303 328.075C221.33 328.089 221.352 328.098 221.379 328.111C221.841 328.328 222.307 328.545 222.777 328.771C222.84 328.799 222.899 328.83 222.962 328.862C223.369 329.056 223.781 329.26 224.192 329.463C224.269 329.5 224.346 329.54 224.423 329.576C224.898 329.812 225.368 330.051 225.848 330.295C230.289 332.575 234.906 335.275 239.455 338.454C242.951 340.896 245.19 344.776 245.597 349.023C246.488 358.406 246.659 373.891 241.757 391.872C240.025 398.217 240.527 403.508 243.254 407.596C247.112 413.385 254.072 414.701 256.111 414.967C256.948 415.076 257.757 415.126 258.54 415.126C267.557 415.126 273.165 408.256 274.648 401.346C281.228 370.648 273.084 342.741 269.276 332.168C269.253 332.177 268.407 328.925 263.365 323.878Z" fill="white" stroke="black" stroke-width="2.71341" stroke-miterlimit="10"/>
<path d="M262.043 407.12C261.356 411.566 258.973 414.347 258.973 414.347Z" fill="#BECACA"/>
<path d="M262.043 407.12C261.356 411.566 258.973 414.347 258.973 414.347" stroke="black" stroke-width="2.71341" stroke-miterlimit="10" stroke-linecap="round" stroke-linejoin="round"/>
<path d="M246.794 410.076C248.327 405.092 249.865 402.849 249.865 402.849Z" fill="#BECACA"/>
<path d="M246.794 410.076C248.327 405.092 249.865 402.849 249.865 402.849" stroke="black" stroke-width="2.71341" stroke-miterlimit="10" stroke-linecap="round" stroke-linejoin="round"/>
<path d="M75.7463 346.649C108.674 341.43 131.606 318.629 136.427 314.31C136.432 314.305 136.432 314.305 136.436 314.301C136.549 314.201 136.649 314.111 136.739 314.029C136.753 314.02 136.762 314.007 136.771 313.998C136.956 313.826 137.097 313.699 137.191 313.609C137.196 313.604 137.196 313.604 137.201 313.6C137.246 313.559 137.282 313.523 137.305 313.5C142.546 308.548 142.777 300.263 137.825 295.022C132.873 289.785 124.583 289.55 119.351 294.502C119.346 294.506 119.333 294.52 119.315 294.538C119.31 294.543 119.306 294.547 119.301 294.552C119.283 294.57 119.256 294.592 119.229 294.615C119.22 294.624 119.211 294.633 119.197 294.642C119.156 294.678 119.111 294.723 119.057 294.773C119.048 294.782 119.034 294.791 119.025 294.8C118.975 294.846 118.921 294.895 118.858 294.95C118.84 294.963 118.826 294.977 118.808 294.99C118.654 295.126 118.469 295.289 118.252 295.479C118.229 295.497 118.207 295.519 118.184 295.537C118.08 295.628 117.967 295.723 117.849 295.827C117.84 295.831 117.836 295.84 117.827 295.845C117.696 295.954 117.56 296.076 117.415 296.198C117.393 296.216 117.37 296.234 117.352 296.252C117.221 296.361 117.085 296.474 116.945 296.591C116.922 296.609 116.9 296.632 116.873 296.65C116.547 296.921 116.185 297.215 115.796 297.532C115.765 297.554 115.737 297.582 115.706 297.604C115.312 297.921 114.887 298.26 114.435 298.617C114.403 298.64 114.376 298.662 114.345 298.69C114.137 298.852 113.924 299.02 113.702 299.187C113.675 299.21 113.648 299.228 113.621 299.25C113.372 299.44 113.115 299.639 112.852 299.838L112.848 299.843C112.599 300.033 112.337 300.227 112.074 300.422C112.034 300.453 111.988 300.485 111.948 300.517C111.401 300.924 110.822 301.349 110.22 301.783C110.184 301.81 110.143 301.837 110.107 301.864C109.822 302.068 109.537 302.271 109.243 302.479C109.216 302.497 109.194 302.515 109.166 302.534C108.841 302.764 108.511 302.995 108.172 303.23C108.158 303.239 108.149 303.248 108.135 303.253C107.819 303.47 107.498 303.691 107.172 303.913C107.122 303.945 107.073 303.981 107.023 304.012C106.336 304.478 105.621 304.953 104.879 305.432C104.83 305.464 104.775 305.5 104.721 305.532C104.373 305.758 104.016 305.984 103.654 306.215C103.631 306.228 103.613 306.242 103.59 306.255C103.202 306.504 102.804 306.753 102.401 307.002C102.365 307.024 102.329 307.047 102.293 307.069C101.931 307.291 101.564 307.517 101.194 307.739C101.135 307.775 101.076 307.811 101.013 307.847C100.199 308.336 99.362 308.829 98.5028 309.322C98.4304 309.362 98.3626 309.403 98.2902 309.444C97.8878 309.674 97.4762 309.905 97.0647 310.136C97.0375 310.149 97.0149 310.163 96.9923 310.176C96.5446 310.425 96.0969 310.669 95.6401 310.918C95.5814 310.95 95.518 310.981 95.4593 311.013C95.0613 311.226 94.6588 311.443 94.2518 311.655C94.1749 311.696 94.1025 311.737 94.0257 311.773C93.5599 312.017 93.085 312.261 92.6057 312.501C88.1511 314.757 83.2534 316.906 78.0075 318.719C73.9736 320.112 69.5191 319.646 65.8469 317.475C57.7338 312.686 45.0984 303.727 33.4307 289.193C29.3108 284.064 24.7342 281.36 19.8275 281.161C12.8766 280.881 7.72567 285.738 6.31017 287.234C5.73131 287.85 5.21125 288.474 4.75449 289.107C-0.541181 296.401 1.71999 304.98 6.44132 310.235C27.4115 333.598 54.7807 343.402 65.5756 346.536C65.5756 346.541 68.705 347.766 75.7463 346.649Z" fill="white" stroke="black" stroke-width="2.71341" stroke-miterlimit="10"/>
<path d="M9.1631 296.668C5.97032 293.497 5.12012 289.938 5.12012 289.938Z" fill="#BECACA"/>
<path d="M9.1631 296.668C5.97032 293.497 5.12012 289.938 5.12012 289.938" stroke="black" stroke-width="2.71341" stroke-miterlimit="10" stroke-linecap="round" stroke-linejoin="round"/>
<path d="M15.7344 282.599C18.8638 286.768 19.7773 289.328 19.7773 289.328Z" fill="#BECACA"/>
<path d="M15.7344 282.599C18.8638 286.768 19.7773 289.328 19.7773 289.328" stroke="black" stroke-width="2.71341" stroke-miterlimit="10" stroke-linecap="round" stroke-linejoin="round"/>
<path d="M24.5991 307.137C29.6893 303.222 32.2211 297.975 30.254 295.417C28.2869 292.859 22.5657 293.959 17.4755 297.873C12.3852 301.788 9.85346 307.035 11.8206 309.593C13.7877 312.151 19.5089 311.051 24.5991 307.137Z" fill="#BECACA"/>
<path d="M22.6445 316.342C30.8662 315.903 37.1748 308.884 36.7362 300.667" stroke="black" stroke-width="2.71341" stroke-miterlimit="10" stroke-linecap="round" stroke-linejoin="round"/>
<path d="M126.81 462.724C105.363 469.589 82.5279 467.691 62.5103 457.381C57.923 455.018 56.1155 449.382 58.4803 444.79C60.8431 440.203 66.4794 438.396 71.0707 440.76C86.6498 448.785 104.421 450.261 121.111 444.919C137.8 439.577 151.411 428.056 159.435 412.477C161.798 407.889 167.434 406.082 172.025 408.447C176.613 410.809 178.42 416.446 176.055 421.037C165.739 441.057 148.25 455.861 126.81 462.724Z" fill="white" stroke="black" stroke-width="2.71341" stroke-miterlimit="10"/>
<path d="M65.2119 429.003C74.3543 433.712 77.9495 444.944 73.2406 454.087C68.5317 463.229 57.2997 466.824 48.1573 462.115C39.0148 457.407 26.6632 441.664 31.3721 432.522C36.087 423.378 56.0695 424.294 65.2119 429.003Z" fill="#727F7F" stroke="black" stroke-width="2.71341" stroke-miterlimit="10"/>
<path d="M39.0605 429.959L72.2208 447.217" stroke="black" stroke-width="2.71341" stroke-miterlimit="10" stroke-linecap="round" stroke-linejoin="round"/>
<path d="M33.7773 435.945L64.2029 459.292" stroke="black" stroke-width="2.71341" stroke-miterlimit="10" stroke-linecap="round" stroke-linejoin="round"/>
<path d="M168.903 388.582C181.331 378.746 189.069 379.366 198.71 382.758C218.084 389.573 226.595 404.008 226.595 423.337C226.595 443.656 214.615 461.695 201.917 474.331C202.079 474.331 202.238 474.322 202.396 474.322C218.193 474.322 231 482.919 231 493.026C231 503.134 173.797 493.026 173.797 493.026C173.797 493.026 170.07 482.598 174.122 459.298C179.341 429.288 143.343 408.811 168.903 388.582Z" fill="white" stroke="black" stroke-width="2.71341" stroke-miterlimit="10"/>
<path d="M160.4 388.582C147.973 378.746 140.235 379.366 130.593 382.758C111.22 389.573 102.708 404.008 102.708 423.337C102.708 443.656 114.688 461.695 127.387 474.331C127.224 474.331 127.066 474.322 126.908 474.322C111.111 474.322 98.3037 482.919 98.3037 493.026C98.3037 503.134 155.507 493.026 155.507 493.026C155.507 493.026 159.233 482.598 155.181 459.298C149.963 429.288 185.96 408.811 160.4 388.582Z" fill="white" stroke="black" stroke-width="2.71341" stroke-miterlimit="10"/>
<path d="M121.829 485.777C112.64 491.647 112.64 497.517 112.64 497.517" stroke="black" stroke-width="2.71341" stroke-miterlimit="10" stroke-linecap="round" stroke-linejoin="round"/>
<path d="M112.916 482.467C103.727 488.337 103.727 494.207 103.727 494.207" stroke="black" stroke-width="2.71341" stroke-miterlimit="10" stroke-linecap="round" stroke-linejoin="round"/>
<path d="M207.474 485.777C216.663 491.647 216.663 497.517 216.663 497.517" stroke="black" stroke-width="2.71341" stroke-miterlimit="10" stroke-linecap="round" stroke-linejoin="round"/>
<path d="M215.935 482.809C225.124 488.679 225.124 494.549 225.124 494.549" stroke="black" stroke-width="2.71341" stroke-miterlimit="10" stroke-linecap="round" stroke-linejoin="round"/>
<path d="M206.203 318.066V188.41C206.203 165.301 187.472 146.569 164.363 146.569C141.253 146.569 122.522 165.301 122.522 188.41V319.703C113.188 336.68 107.494 356.669 107.494 371.583C107.494 403.244 133.163 428.913 164.824 428.913C196.485 428.913 222.154 403.244 222.154 371.583C222.149 356.189 216.08 335.382 206.203 318.066Z" fill="white" stroke="black" stroke-width="2.71341" stroke-miterlimit="10" stroke-linecap="round" stroke-linejoin="round"/>
<path d="M195.815 161.05L234.029 199.264C244.372 209.606 244.657 227.28 234.314 237.618C234.314 237.618 222.434 252.564 188.833 242.389C183.885 240.892 180.421 236.415 180.222 231.25C179.788 220.044 181.407 201.168 196.471 196.722C218.242 190.296 184.894 164.6 184.894 164.6C184.894 164.6 176.74 159.087 183.284 156.709C190.04 154.253 195.815 161.05 195.815 161.05Z" fill="black"/>
<path d="M214.981 213.902C212.534 213.902 210.549 211.917 210.549 209.47V201.335C210.549 198.888 212.534 196.903 214.981 196.903C217.427 196.903 219.413 198.888 219.413 201.335V209.47C219.417 211.917 217.432 213.902 214.981 213.902Z" fill="white" stroke="black" stroke-width="2.71341" stroke-miterlimit="10"/>
<path d="M235.607 213.902C233.16 213.902 231.175 211.917 231.175 209.47V201.335C231.175 198.888 233.16 196.903 235.607 196.903C238.053 196.903 240.039 198.888 240.039 201.335V209.47C240.043 211.917 238.058 213.902 235.607 213.902Z" fill="white" stroke="black" stroke-width="2.71341" stroke-miterlimit="10"/>
<path d="M236.356 228.108C234.896 229.157 212.343 242.796 191.377 225.842" stroke="white" stroke-width="3.61788" stroke-miterlimit="10" stroke-linecap="round" stroke-linejoin="round"/>
<path d="M140.501 175.653C140.501 175.653 149.048 168.363 163.493 172.636" stroke="black" stroke-width="4.52235" stroke-miterlimit="10" stroke-linecap="round" stroke-linejoin="round"/>
<path d="M148.356 216.949C154.156 216.949 158.857 215.299 158.857 213.264C158.857 211.228 154.156 209.578 148.356 209.578C142.557 209.578 137.855 211.228 137.855 213.264C137.855 215.299 142.557 216.949 148.356 216.949Z" fill="#BECACA"/>
<path d="M157.181 207.998C164.596 207.998 170.608 201.986 170.608 194.571C170.608 187.155 164.596 181.144 157.181 181.144C149.765 181.144 143.754 187.155 143.754 194.571C143.754 201.986 149.765 207.998 157.181 207.998Z" fill="white" stroke="black" stroke-width="2.71341" stroke-miterlimit="10"/>
<path d="M160.016 203.393C164.886 203.393 168.834 199.445 168.834 194.575C168.834 189.704 164.886 185.756 160.016 185.756C155.145 185.756 151.197 189.704 151.197 194.575C151.197 199.445 155.145 203.393 160.016 203.393Z" fill="black"/>
<path d="M175.128 157.363C173.717 157.608 173.74 159.869 173.902 161.293C174.364 165.391 177.611 168.629 181.088 170.845C184.566 173.061 188.469 174.639 191.598 177.321C194.728 180.002 197.007 184.294 195.745 188.219C194.429 192.308 190.016 194.347 186.633 196.988C181.437 201.045 178.267 207.109 175.517 213.101C172.912 218.772 170.497 224.841 171.058 231.06C171.958 241.041 180.772 249.081 190.527 251.388C191.883 251.709 193.335 251.971 194.393 252.88C195.451 253.789 195.886 255.607 194.859 256.557C193.968 257.38 192.566 257.127 191.395 256.824C183.888 254.888 175.915 252.681 170.768 246.883C164.27 239.566 164.161 228.26 167.793 219.175C171.424 210.09 178.144 202.65 184.521 195.229C187.836 191.372 191.309 186.46 189.717 181.63C188.139 176.846 182.558 174.978 178.352 172.206C175.797 170.523 173.572 168.294 172.053 165.639C170.343 162.659 169.597 158.82 171.275 155.821C172.953 152.823 177.651 151.625 179.935 154.184C179.931 154.184 181.192 156.31 175.128 157.363Z" fill="black"/>
<path d="M122.719 224.135C127.992 224.311 133.319 224.497 138.425 225.835C143.531 227.174 148.469 229.779 151.653 233.989C153.891 236.947 155.139 240.515 156.876 243.793C160.792 251.201 167.332 257.184 175.056 260.431C182.78 263.678 191.63 264.167 199.667 261.783C200.738 263.059 199.146 264.859 197.663 265.618C189.821 269.634 180.153 269.254 172.103 265.673C164.053 262.091 157.55 255.57 152.892 248.094C150.337 243.997 148.256 239.552 145.046 235.938C140.514 230.841 133.812 227.739 126.992 227.585C125.391 227.549 123.42 227.459 122.723 226.016" fill="black"/>
<path d="M123.412 242.355C123.805 238.068 131.683 239.497 135.527 241.433C139.371 243.368 142.198 246.85 144.549 250.459C146.901 254.064 148.927 257.917 151.776 261.146C156.904 266.957 164.244 270.254 171.439 273.139C171.973 273.351 172.534 273.587 172.859 274.061C173.678 275.255 172.434 276.779 171.24 277.602C162.942 283.328 152.151 284.25 143.505 289.437C140.239 291.396 137.345 293.928 134.076 295.886C130.81 297.844 126.971 299.233 123.222 298.564C123 297.695 122.783 296.813 122.819 295.922C122.91 293.702 124.588 291.83 126.487 290.681C128.386 289.528 130.557 288.904 132.542 287.9C136.852 285.725 140.221 281.826 144.789 280.271C149.727 278.584 155.715 279.764 159.817 276.531C159.062 272.994 154.331 272.442 151.292 270.484C145.73 266.903 146.177 258.658 142.849 252.942C139.312 246.869 130.833 244.277 124.502 247.339C124.497 247.33 122.765 249.446 123.412 242.355Z" fill="black"/>
<path d="M122.963 256.532C125.143 255.55 127.503 254.7 129.878 255.008C132.65 255.369 135.006 257.287 136.675 259.535C138.343 261.782 139.46 264.378 140.822 266.82C141.803 268.579 142.911 270.262 144.141 271.858C144.928 272.88 143.87 274.318 142.662 273.852C140.799 273.129 139.076 272.152 137.733 270.691C135.716 268.493 134.784 265.418 132.559 263.437C130.172 261.316 126.432 260.891 123.628 262.415C123.361 260.43 123.338 258.408 123.56 256.419" fill="black"/>
<path d="M122.963 271.813C125.541 270.642 132.039 271.985 133.794 274.206C134.242 274.771 134.59 275.413 135.069 275.951C135.499 276.44 136.019 276.819 136.584 277.109C137.746 277.697 137.665 279.393 136.476 279.922L133.066 281.45C132.541 281.685 131.971 281.925 131.415 281.803C130.981 281.708 130.624 281.41 130.303 281.107C127.956 278.868 122.958 281.491 122.963 278.253V271.813Z" fill="black"/>
<path d="M205.732 280.594C205.592 281.264 205.148 281.811 204.466 281.775C200.138 281.553 195.737 282.878 192.269 285.483C189.501 287.559 187.362 290.363 184.735 292.615C178.476 297.983 169.965 299.828 161.77 300.746C155.176 301.488 148.443 301.763 142.025 303.315C140.818 303.604 140.009 302.103 140.922 301.27C142.681 299.665 144.549 298.204 146.652 297.101C155.308 292.569 166.166 295.016 175.22 291.339C180.958 289.01 185.436 284.443 190.089 280.355C194.743 276.262 200.12 272.395 206.306 271.997C206.302 271.997 206.089 278.867 205.732 280.594Z" fill="black"/>
<path d="M122.901 309.106C130.657 309.259 138.409 309.409 146.164 309.562C157.841 309.793 170.11 309.888 180.399 304.371C184.546 302.15 188.191 299.098 192.288 296.782C196.385 294.467 201.219 292.906 205.782 294.046C205.597 295.235 205.407 296.429 205.222 297.619C201.165 297.415 197.222 299.107 193.825 301.332C190.425 303.557 187.422 306.333 184.102 308.68C174.804 315.256 163.042 318.25 151.736 316.92C142.135 315.794 132.529 311.692 123.118 313.895C123.109 313.298 123.1 312.701 123.096 312.104" fill="black"/>
<path d="M151.268 328.415C158.59 330.78 158.45 331.441 166.07 332.503C169.398 332.969 172.84 333.042 176.078 332.133C187.574 328.899 193.303 314.536 204.881 311.597C204.912 313.894 204.948 316.191 204.98 318.493C201.331 319.371 198.631 322.346 196.107 325.123C190.531 331.269 184.132 337.478 175.965 338.952C165.31 340.879 155.234 334.299 144.982 330.808C138.696 328.664 132.089 327.665 125.509 326.783C125.509 326.783 121.222 325.878 129.769 324.585C136.059 323.622 151.268 328.415 151.268 328.415Z" fill="black"/>
<path d="M116.914 332.488C126.153 332.207 134.754 336.757 142.994 340.949C151.234 345.141 160.224 349.207 169.373 347.868C169.952 348.592 169.613 349.74 168.898 350.333C168.188 350.925 167.229 351.111 166.316 351.278C161.251 352.196 155.978 353.109 151.012 351.744C146.757 350.572 143.13 347.836 139.132 345.978C131.774 342.559 123.412 342.202 115.548 340.194C115.136 340.09 114.684 339.945 114.49 339.57C114.304 339.208 114.426 338.774 114.567 338.389C115.249 336.526 116.226 334.771 117.447 333.207" fill="black"/>
<path d="M221.134 361.308C223.743 373.365 206.188 361.553 198.635 360.992C182.866 359.825 166.359 378.864 150.626 377.317C136.485 375.925 124.591 355.664 110.544 353.516C110.042 352.331 110.178 349.858 111.304 349.234C112.43 348.61 114.429 349.654 115.713 349.758C123.352 350.391 130.257 354.308 137.375 357.152C144.385 359.952 151.883 361.756 159.431 361.557C166.979 361.358 174.59 359.052 180.469 354.317C185.769 350.048 189.396 344.11 193.344 338.57C197.292 333.03 201.941 327.572 208.263 325.062C208.263 325.062 211.746 324.542 211.031 327.463C210.316 330.385 203.397 328.386 196.148 340.383C188.894 352.381 180.044 356.379 183.467 356.664C186.895 356.949 195.75 356.664 203.461 358.093C211.171 359.522 221.102 357.442 221.455 361.236" fill="black"/>
<path d="M221.461 361.319C221.57 361.319 221.57 361.147 221.461 361.147C221.353 361.147 221.353 361.319 221.461 361.319Z" fill="black"/>
<path d="M221.461 361.97C222.416 361.97 222.416 360.487 221.461 360.487C220.507 360.487 220.503 361.97 221.461 361.97Z" fill="black"/>
<path d="M218.122 349.92C218.081 350.273 216.846 350.495 216.521 350.63C214.915 351.318 213.296 352.005 211.596 352.412C209.475 352.919 207.277 352.973 205.093 353.023L198.445 353.181C196.975 353.217 196.157 351.503 197.102 350.373C198.924 348.193 200.272 345.421 202.018 343.132C205.115 339.067 209.719 336.308 212.636 332.107L213.844 333.423C215.078 334.721 215.024 336.874 214.128 338.425C213.233 339.976 211.682 341.03 210.099 341.871C208.516 342.712 206.838 343.404 205.414 344.489C203.686 345.81 202.425 347.632 201.195 349.428C201.027 349.667 200.883 350.043 201.122 350.21C201.24 350.291 201.398 350.273 201.538 350.251C206.309 349.473 210.945 347.89 215.191 345.584C215.589 345.366 216.051 345.276 216.485 345.394C216.494 345.398 218.515 346.456 218.122 349.92Z" fill="black"/>
<path d="M108.64 360.913C116.871 362.581 123.723 367.968 130.095 373.431C136.471 378.894 143.512 384.501 151.883 385.189C155.967 385.528 160.051 384.646 164.026 383.642C171.144 381.847 178.154 379.644 185.018 377.044C188.175 375.85 191.363 374.557 194.732 374.344C196.383 374.24 198.102 374.444 199.657 375C201.493 375.656 201.308 378.288 199.395 378.645C194.588 379.549 189.848 380.802 185.222 382.398C177.33 385.116 169.688 388.843 161.425 390.032C149.188 391.796 136.222 387.491 127.472 378.753C124.803 376.09 122.515 373.051 119.734 370.5C116.953 367.949 112.408 365.693 108.64 365.512C108.64 365.512 106.397 360.456 108.64 360.913Z" fill="black"/>
<path d="M220.412 381.791C219.353 385.056 214.51 378.231 212.032 375.853C209.793 373.709 208.427 372.777 205.75 371.222C203.778 370.078 199.776 368.463 197.022 368.377C195.656 368.337 195.353 366.419 196.642 365.967C197.402 365.7 198.198 365.6 198.419 365.605C199.98 365.623 201.535 366.243 203.055 366.835C205.547 367.812 209.431 369.797 211.715 371.199C214.284 372.777 218.44 373.456 221.461 373.031C221.461 373.031 221.461 378.553 220.412 381.791Z" fill="black"/>
<path d="M219.728 386.945C211.638 384.444 202.837 385.968 194.788 388.6C186.738 391.232 179.041 394.954 170.815 396.962C156.85 400.367 141.673 398.536 128.92 391.901L125.768 390.264C124.863 389.794 123.9 390.821 124.443 391.684C127.201 396.098 131.76 399.219 136.657 401.037C141.826 402.954 147.384 403.546 152.884 403.863C166.708 404.663 179.181 408.005 192.029 402.841C197.166 400.774 203.86 393.787 209.345 393.037C211.263 392.774 213.248 392.756 215.052 392.051C216.857 391.345 218.489 389.704 218.417 387.768" fill="black"/>
<path d="M107.855 380.291C110.297 379.273 113.101 379.431 115.633 380.205C117.406 380.743 124.036 384.881 128.644 387.771C129.553 388.34 130.53 387.133 129.779 386.364C124.031 380.494 112.947 373.399 107.647 372.987C107.647 372.987 106.977 377.066 107.855 380.291Z" fill="black"/>
<path d="M193.372 411.237C180.61 415.457 167.092 418.089 153.761 416.402C140.424 414.715 127.422 408.881 118.251 399.05C116.184 396.834 114.289 394.401 111.884 392.574C111.495 392.28 111.223 391.855 111.097 391.384C110.672 389.842 110.084 386.446 109.907 385.673C108.614 380.02 118.228 398.448 124.284 401.93C128.34 404.259 133.509 406.683 138.095 407.601C145.846 409.153 153.666 410.392 161.516 411.314C170.715 412.4 180.271 413.015 189.026 409.994C195.031 407.923 200.011 403.07 206.034 401.501C207.92 401.008 210.344 400.605 209.498 402.355C209.498 402.36 208.418 406.263 193.372 411.237Z" fill="black"/>
<path d="M182.314 425.598C175.391 426.805 173.636 426.651 166.622 426.208C165.125 426.113 159.467 425.236 155.497 424.042C154.366 423.703 154.606 422.048 155.786 422.043C167.884 422.025 179.235 420.813 189.754 417.969C189.754 417.969 203.036 413.211 197.464 418.715C195.533 420.628 182.314 425.598 182.314 425.598Z" fill="black"/>
<path d="M116.302 297.459C116.614 297.187 117.107 297.386 117.134 297.798C117.577 303.944 117.41 310.144 116.641 316.245C116.28 319.103 115.773 321.983 114.611 324.557C113.553 326.89 111.884 328.961 109.763 329.979C109.442 330.133 109.066 329.907 109.039 329.554C108.885 327.216 109.455 324.869 109.957 322.576C111.21 316.864 112.065 311.039 112.508 305.178C112.625 303.641 112.815 301.57 113.349 300.127C113.381 300.046 113.426 299.978 113.494 299.923L116.302 297.459Z" fill="black"/>
<path d="M105.92 304.817C105.201 313.215 104.396 321.898 100.064 329.306C99.2182 330.749 97.7167 332.331 96.0254 331.856C96.2425 324.485 100.132 317.561 100.661 310.203C100.697 309.715 100.724 309.2 101 308.779C101.199 308.48 101.574 307.793 101.877 307.581C101.882 307.581 105.938 304.587 105.92 304.817Z" fill="black"/>
<path d="M91.9903 313.402C92.2797 313.371 92.533 313.61 92.5058 313.9C92.2978 316.184 91.6827 318.915 90.9501 320.995C89.8557 324.116 89.8829 327.621 91.0225 330.723C91.5109 332.048 91.036 333.667 89.9145 334.522C87.183 329.398 86.4911 323.216 88.0151 317.613C88.2186 316.862 88.7342 315.704 89.1774 315.062C89.6251 314.411 89.9778 313.488 90.7376 313.529L91.9903 313.402Z" fill="black"/>
<path d="M63.5587 318.06C61.7678 318.915 61.1166 321.09 60.7367 323.035C60.4247 324.631 60.1669 326.241 60.1217 327.865C60.1126 328.267 60.1171 328.692 60.3207 329.041C60.5242 329.389 60.9854 329.615 61.3427 329.43C61.6864 329.249 61.7678 328.801 61.8266 328.412C62.3648 324.731 64.2415 321.262 67.0318 318.807C67.3484 317.843 65.7837 317.522 64.9561 317.613L63.5587 318.06Z" fill="black"/>
<path d="M207.623 466.63C205.683 463.79 201.644 463.035 199.591 460.267C199.46 460.086 199.32 459.896 199.297 459.675C199.256 459.272 199.632 458.924 200.03 458.861C200.428 458.797 200.826 458.938 201.201 459.091C203.204 459.915 205.086 461.149 207.216 461.488C207.826 461.583 210.829 462.348 211.381 462.641C211.381 462.641 208.839 468.412 207.623 466.63Z" fill="black"/>
<path d="M79.0149 318.049C77.8753 316.756 76.3105 318.483 75.7588 320.016C75.2071 321.55 75.4106 323.648 75.8266 325.584C76.2427 327.519 76.8623 329.428 77.1381 331.372C77.3235 332.679 77.4728 334.257 78.3637 334.927C78.9109 335.338 79.4897 335.13 79.8018 334.547C80.3445 333.534 80.1274 332.01 79.7385 330.662C79.4129 329.536 78.9742 328.451 78.7209 327.307C78.0652 324.331 79.4762 319.695 81.0093 318.339L79.0149 318.049Z" fill="black"/>
<path d="M58.6618 313.012C55.6861 313.632 53.2169 315.581 50.7387 317.336C50.196 317.72 49.3006 318.023 48.9885 317.435C48.8031 317.083 49.0021 316.657 49.2146 316.318C50.0196 315.002 50.9784 313.777 52.0592 312.673C52.8416 311.877 53.8274 311.095 54.9399 311.208C54.9354 311.208 60.914 312.542 58.6618 313.012Z" fill="black"/>
<path d="M213.718 296.491C214.654 296.572 215.586 296.672 216.504 296.884C216.848 296.966 217.201 297.061 217.494 297.278C218.322 297.902 218.381 299.218 218.34 300.339C218.214 304.002 217.978 307.715 218.657 311.306C218.987 313.052 219.53 314.752 219.71 316.525C219.891 318.298 219.652 320.233 218.602 321.572C218.408 321.821 218.159 322.06 217.865 322.074C217.282 322.101 216.983 321.309 216.852 320.667C215.138 312.296 214.32 308.109 213.442 299.575C213.442 299.571 212.592 296.391 213.718 296.491Z" fill="black"/>
<path d="M226.548 301.314C224.662 305.104 225.558 309.626 226.494 313.755C227.209 316.907 227.923 320.06 228.638 323.212C228.809 323.976 229.415 324.966 230.107 324.6C230.338 324.478 230.474 324.229 230.573 323.989C231.401 322.049 231.071 319.847 230.903 317.744C230.655 314.687 230.768 311.603 231.242 308.573C231.383 307.691 231.55 306.795 231.46 305.905C231.46 305.905 232.35 303.065 231.003 302.499C229.655 301.934 226.548 301.314 226.548 301.314Z" fill="black"/>
<path d="M243.033 309.47C240.293 313.762 240.361 319.225 240.383 324.317C240.392 326.519 240.401 328.722 240.41 330.929C240.41 331.39 240.456 331.928 240.84 332.186C241.22 332.434 241.758 332.258 242.052 331.91C242.346 331.562 242.459 331.105 242.558 330.662C242.898 329.178 243.241 327.677 243.192 326.157C243.151 324.864 242.825 323.58 242.902 322.291C242.979 321.006 243.445 319.781 243.906 318.583C244.34 317.452 244.774 316.321 245.209 315.191C245.629 314.096 246.054 312.925 245.815 311.781C245.81 311.776 244.897 306.553 243.033 309.47Z" fill="black"/>
<path d="M261.435 322.367C262.009 323.258 263 323.723 263.66 324.556C264.23 325.275 264.248 326.315 263.927 327.179C263.606 328.038 263.004 328.761 262.403 329.458C259.848 332.434 257.184 335.314 254.421 338.1C253.833 338.692 253.01 339.326 252.254 338.982C251.567 338.67 251.431 337.734 251.626 337.006C252.065 335.391 253.539 334.324 254.584 333.017C255.465 331.913 256.053 330.611 256.632 329.327C257.745 326.853 258.88 324.212 258.495 321.526C258.491 321.526 259.513 319.405 261.435 322.367Z" fill="black"/>
<path d="M270.691 337.009C269.257 339.971 267.073 342.056 264.101 343.471C261.13 344.887 257.928 345.746 254.885 346.994C254.767 347.044 254.636 347.098 254.568 347.207C254.419 347.446 254.645 347.749 254.885 347.903C255.722 348.428 256.793 348.306 257.77 348.161C261.75 347.578 265.748 346.99 269.623 345.909C270.383 345.696 271.211 345.407 271.577 344.71C271.817 344.249 271.799 343.702 271.749 343.186C271.568 341.323 272.192 339.46 271.301 337.809L270.691 337.009Z" fill="black"/>
<path d="M273.978 349.941C272.432 352.166 269.872 353.469 267.303 354.323C264.735 355.183 262.044 355.694 259.566 356.788C259.371 356.874 259.172 356.969 259.059 357.15C258.86 357.466 259.041 357.91 259.348 358.122C259.656 358.335 260.049 358.371 260.42 358.398C264.196 358.656 267.982 358.353 271.753 358.045C272.902 357.95 274.25 357.729 274.756 356.693C274.928 356.345 274.973 355.952 274.996 355.563C275.064 354.473 274.978 353.378 274.743 352.311L273.978 349.941Z" fill="black"/>
<path d="M277.524 365.605C275.851 367.215 274.589 367.653 272.274 367.803C270.207 367.934 268.077 367.907 266.119 368.54C265.748 368.657 265.631 369.141 265.915 369.404C266.938 370.344 268.606 370.503 270.067 370.548C272.125 370.611 274.182 370.67 276.24 370.733C276.742 370.747 277.334 370.715 277.601 370.29C277.723 370.096 277.741 369.86 277.759 369.634C277.823 368.734 277.85 367.83 277.841 366.925L277.524 365.605Z" fill="black"/>
<path d="M219.833 401.916C213.596 416.826 199.636 428.245 183.826 431.528C182.831 431.736 182.881 433.179 183.889 433.301C183.898 433.301 183.912 433.305 183.921 433.305C196.737 434.82 207.401 427.006 216.504 417.857C217.974 416.383 222.428 410.309 223.378 408.455C225.079 405.149 222.659 402.667 221.203 401.554C220.742 401.192 220.059 401.373 219.833 401.916Z" fill="black"/>
<path d="M225.047 424.688C217.087 431.639 207.663 437.748 197.117 438.418C195.308 438.531 193.449 438.49 191.631 438.599C189.637 438.712 189.429 441.592 191.391 441.959C196.434 442.89 202.014 441.724 207.011 440.077C209.526 439.245 212.013 438.309 214.369 437.093C216.829 435.822 219.127 434.257 221.415 432.697C222.695 431.824 224.002 430.929 224.888 429.662C225.775 428.396 226.164 426.66 225.458 425.285" fill="black"/>
<path d="M223.383 442.663C224.211 439.358 217.368 445.874 214.361 447.484C211.932 448.782 209.481 450.089 206.84 450.881C203.548 451.866 200.102 452.016 196.647 451.889C195.928 451.862 195.846 452.916 196.561 453.011C198.537 453.268 200.586 453.237 202.58 453.191C206.438 453.101 210.295 453.015 214.153 452.925C215.356 452.898 218.413 452.748 219.019 451.713C219.023 451.708 222.27 447.127 223.383 442.663Z" fill="black"/>
<path d="M106.199 404.314C106.936 413.051 113.611 420.536 120.635 425.777C122.823 427.41 125.22 428.753 127.676 429.956C133.424 432.778 139.936 434.889 146.19 434.315C146.846 434.256 146.828 433.298 146.172 433.252C137.996 432.692 129.996 429.585 123.633 424.416C116.013 418.225 110.817 409.13 109.351 399.421L106.199 404.314Z" fill="black"/>
<path d="M114.593 458.563C116.28 461.303 120.915 459.775 124.077 460.381C126.478 460.842 128.988 461.299 131.344 460.639C132.529 460.308 133.614 459.707 134.69 459.115L142.347 454.886C143.102 454.47 142.632 453.303 141.8 453.543C141.7 453.57 141.605 453.602 141.515 453.638C136.07 455.7 134.27 457.699 128.576 457.572C128.4 457.568 128.219 457.545 128.047 457.505C126.035 457.043 117.234 459.002 111.4 452.34C111.4 452.336 112.775 455.605 114.593 458.563Z" fill="black"/>
<path d="M102.708 423.337C103.645 429.709 107.977 436.081 113.974 438.442C116.692 439.513 122.625 440.119 123.837 442.779C118.663 443.326 113.39 442.905 108.37 441.535C107.891 441.404 106.62 440.644 106.204 440.92C105.49 441.395 107.036 444.823 107.29 445.365C108.569 448.115 111.5 446.736 114.53 446.885C123.977 447.355 133.682 447.106 142.645 444.266C143.505 443.995 143.306 442.729 142.406 442.72C136.757 442.666 131.1 442.322 125.736 440.631C115.023 437.257 106.684 428.312 103.5 417.539C103.5 417.53 102.31 420.633 102.708 423.337Z" fill="black"/>
<path d="M191 561.3C191 533.017 215.731 527.7 228.478 547.528C241.048 567.082 233.25 590.255 233.67 612.098C235.423 703.231 302.269 637.455 325.107 591.779" stroke="black" stroke-width="2.4" stroke-linecap="round"/>
<path d="M308.852 591.779C327.455 582.477 329.171 577.516 329.171 599.907" stroke="black" stroke-width="2.4" stroke-linecap="round"/>
<path d="M426.705 150.431C406.202 148.152 429.551 94.1922 462.264 116.001C481.393 128.754 463.176 160.677 449.056 141.851C424.986 109.757 491.14 101.664 510.24 101.664C563.179 101.664 544.949 157.873 532.817 147.947C454.497 83.8675 678.422 100.302 622.222 150.882C604.737 166.618 583.576 122.929 627.64 118.033C669.643 113.366 680.696 132.035 680.696 166.686" stroke="black" stroke-width="2.4" stroke-linecap="round"/>
<path d="M672 159.664C675.498 191.146 692.05 160.521 690.287 161.696" stroke="black" stroke-width="2.4" stroke-linecap="round"/>
<defs>
<filter id="filter0_f_4135_24649" x="435.778" y="80.4784" width="448.471" height="448.471" filterUnits="userSpaceOnUse" color-interpolation-filters="sRGB">
<feFlood flood-opacity="0" result="BackgroundImageFix"/>
<feBlend mode="normal" in="SourceGraphic" in2="BackgroundImageFix" result="shape"/>
<feGaussianBlur stdDeviation="8" result="effect1_foregroundBlur_4135_24649"/>
</filter>
</defs>
</svg>
