<svg width="251" height="250" viewBox="0 0 251 250" fill="none" xmlns="http://www.w3.org/2000/svg">
<g filter="url(#filter0_ddd_6071_9352)">
<rect x="80.5" y="70" width="90" height="90" rx="32" fill="white" shape-rendering="crispEdges"/>
<rect x="81.5" y="71" width="88" height="88" rx="31" stroke="#FF9294" stroke-width="2" shape-rendering="crispEdges"/>
<path d="M147.511 107.032C147.517 107.032 148.966 105.59 148.97 105.586L152.176 102.38C154.155 100.401 154.28 97.1721 152.352 95.1412C150.358 93.0419 148.86 93.5486 145.004 95.0438L136.852 98.2132C136.852 98.2132 144.568 107.412 147.511 107.032Z" fill="#FF6669" stroke="black" stroke-width="0.789707" stroke-miterlimit="10"/>
<path d="M142.429 102.433C142.429 97.9537 145.817 94.2684 150.168 93.7933C148.903 93.5616 147.415 94.1091 145.006 95.0436L136.854 98.213C136.854 98.213 139.71 101.618 142.609 104.199C142.491 103.628 142.429 103.037 142.429 102.433Z" fill="black"/>
<path d="M149.541 98.9688C145.165 100.326 144.461 103.985 144.461 103.985" stroke="black" stroke-width="0.789707" stroke-miterlimit="10" stroke-linecap="round" stroke-linejoin="round"/>
<path d="M103.49 107.032C103.485 107.032 102.035 105.59 102.031 105.586L98.8253 102.38C96.8458 100.401 96.7207 97.1721 98.6489 95.1412C100.643 93.0419 102.141 93.5486 105.997 95.0438L114.15 98.2132C114.15 98.2132 106.433 107.412 103.49 107.032Z" fill="#FF6669" stroke="black" stroke-width="0.789707" stroke-miterlimit="10"/>
<path d="M108.575 102.433C108.575 97.9537 105.187 94.2684 100.836 93.7933C102.101 93.5616 103.589 94.1091 105.998 95.0436L114.15 98.213C114.15 98.213 111.294 101.618 108.395 104.199C108.512 103.628 108.575 103.037 108.575 102.433Z" fill="black"/>
<path d="M101.461 98.9688C105.837 100.326 106.541 103.985 106.541 103.985" stroke="black" stroke-width="0.789707" stroke-miterlimit="10" stroke-linecap="round" stroke-linejoin="round"/>
<path d="M135.751 97.6115C144.166 100.132 150.298 107.42 150.298 116.655V120.317C150.298 131.591 141.158 137.584 129.885 137.584H121.931C110.657 137.584 101.518 131.423 101.518 120.148L101.519 116.934C101.519 107.125 108.437 99.1659 117.662 97.2035C117.662 97.2035 121.622 96.9745 121.964 94.5553C122.341 91.898 124.139 91.7177 124.971 94.0065C125.802 96.294 127.05 92.5508 128.298 92.5508C129.546 92.5508 129.43 93.8328 129.962 94.6304C130.921 96.0676 135.751 97.6115 135.751 97.6115Z" fill="#FF6669" stroke="black" stroke-width="0.789707" stroke-miterlimit="10"/>
<path d="M114.006 124.067C117.625 123.188 119.445 117.884 118.07 112.22C116.695 106.556 112.646 102.677 109.027 103.556C105.407 104.434 103.587 109.738 104.962 115.402C106.337 121.066 110.386 124.945 114.006 124.067Z" fill="#FFE8E8"/>
<path d="M146.527 115.401C147.902 109.737 146.082 104.433 142.463 103.555C138.843 102.676 134.794 106.555 133.419 112.219C132.044 117.883 133.864 123.187 137.484 124.066C141.103 124.944 145.152 121.065 146.527 115.401Z" fill="#FFE8E8"/>
<path d="M144.072 127.376C141.364 128.126 139.349 126.906 138.427 126.157C138.262 125.977 138.075 125.804 137.871 125.641C136.66 124.681 134.79 124.065 132.691 124.065C129.883 124.065 127.486 125.167 126.527 126.719L125.741 126.794C124.813 125.201 122.382 124.065 119.53 124.065C117.311 124.065 115.349 124.754 114.15 125.809C114.15 125.809 111.183 128.227 108.349 127.376C104.409 126.192 103.568 127.626 104.613 129.1C108.253 134.238 114.467 137.297 121.991 137.297H129.665C137.126 137.297 143.619 134.576 146.961 129.356C146.959 129.358 147.842 126.332 144.072 127.376Z" fill="#FFE8E8"/>
<path d="M115.451 127.375H98.1328" stroke="black" stroke-width="0.789707" stroke-miterlimit="10" stroke-linecap="round" stroke-linejoin="round"/>
<path d="M115.455 129.358L98.1719 131.035" stroke="black" stroke-width="0.789707" stroke-miterlimit="10" stroke-linecap="round" stroke-linejoin="round"/>
<path d="M135.955 127.375H153.273" stroke="black" stroke-width="0.789707" stroke-miterlimit="10" stroke-linecap="round" stroke-linejoin="round"/>
<path d="M135.953 129.358L153.236 131.035" stroke="black" stroke-width="0.789707" stroke-miterlimit="10" stroke-linecap="round" stroke-linejoin="round"/>
<path d="M129.851 123.748C129.851 122.038 127.031 125.868 125.909 125.642C124.525 125.651 121.967 122.04 121.967 123.748C121.967 125.458 123.732 126.842 125.909 126.842C128.086 126.842 129.851 125.458 129.851 123.748Z" fill="black"/>
<path d="M112.918 125.651V126.682C112.918 129.833 115.828 132.389 119.417 132.389C122.895 132.389 125.735 129.991 125.909 126.975C126.082 129.991 128.923 132.389 132.4 132.389C135.989 132.389 138.899 129.834 138.899 126.682V125.651" stroke="black" stroke-width="1.05294" stroke-miterlimit="10" stroke-linecap="round" stroke-linejoin="round"/>
<path d="M130.616 132.231C130.616 133.698 129.261 134.887 127.59 134.887H124.065C122.393 134.887 121.039 133.697 121.039 132.231" stroke="black" stroke-width="1.05294" stroke-miterlimit="10" stroke-linecap="round" stroke-linejoin="round"/>
<path d="M106.781 112.333C106.781 112.333 109.536 109.982 114.193 111.36" stroke="black" stroke-width="1.31618" stroke-miterlimit="10" stroke-linecap="round" stroke-linejoin="round"/>
<path d="M143.056 112.641C143.056 112.641 140.301 110.29 135.645 111.668" stroke="black" stroke-width="1.31618" stroke-miterlimit="10" stroke-linecap="round" stroke-linejoin="round"/>
<path d="M107.997 125.642C109.866 125.642 111.381 125.11 111.381 124.454C111.381 123.797 109.866 123.265 107.997 123.265C106.128 123.265 104.613 123.797 104.613 124.454C104.613 125.11 106.128 125.642 107.997 125.642Z" fill="#FFC2C4"/>
<path d="M143.618 125.642C145.487 125.642 147.002 125.11 147.002 124.454C147.002 123.797 145.487 123.265 143.618 123.265C141.749 123.265 140.234 123.797 140.234 124.454C140.234 125.11 141.749 125.642 143.618 125.642Z" fill="#FFC2C4"/>
<path d="M112.925 123.186C115.083 123.186 116.833 121.437 116.833 119.278C116.833 117.12 115.083 115.371 112.925 115.371C110.767 115.371 109.018 117.12 109.018 119.278C109.018 121.437 110.767 123.186 112.925 123.186Z" fill="white" stroke="black" stroke-width="0.789707" stroke-miterlimit="10"/>
<path d="M113.75 121.845C115.168 121.845 116.317 120.696 116.317 119.278C116.317 117.861 115.168 116.712 113.75 116.712C112.333 116.712 111.184 117.861 111.184 119.278C111.184 120.696 112.333 121.845 113.75 121.845Z" fill="black"/>
<path d="M138.732 123.186C140.89 123.186 142.64 121.437 142.64 119.278C142.64 117.12 140.89 115.371 138.732 115.371C136.574 115.371 134.824 117.12 134.824 119.278C134.824 121.437 136.574 123.186 138.732 123.186Z" fill="white" stroke="black" stroke-width="0.789707" stroke-miterlimit="10"/>
<path d="M137.977 121.845C139.394 121.845 140.543 120.696 140.543 119.278C140.543 117.861 139.394 116.712 137.977 116.712C136.559 116.712 135.41 117.861 135.41 119.278C135.41 120.696 136.559 121.845 137.977 121.845Z" fill="black"/>
<path d="M124.045 116.135C123.319 115.173 121.992 114.445 120.923 115.001C120.747 115.093 120.577 115.228 120.517 115.418C120.365 115.897 120.944 116.26 121.417 116.43C122.357 116.767 123.295 117.103 124.235 117.44C124.46 116.66 123.994 115.746 123.231 115.471" fill="black"/>
<path d="M127.121 117.279C127.39 116.308 128.32 115.696 129.181 115.172C129.711 114.85 130.521 114.583 130.849 115.11C131.041 115.42 130.905 115.847 130.639 116.096C130.373 116.345 130.011 116.459 129.663 116.565C128.841 116.815 128.02 117.065 127.199 117.314" fill="black"/>
<path d="M120.102 111.481C121.475 111.713 122.848 111.943 124.221 112.175C124.355 112.197 124.496 112.22 124.623 112.174C124.984 112.045 124.97 111.519 124.801 111.175C124.418 110.39 123.607 109.862 122.749 109.706C121.891 109.549 120.995 109.732 120.201 110.095C120.058 110.161 119.906 110.241 119.833 110.381C119.705 110.618 119.863 110.927 120.097 111.06C120.331 111.193 120.041 111.517 120.309 111.515" fill="black"/>
<path d="M128.218 111.95C127.963 111.983 127.707 112.016 127.452 112.05C126.953 111.85 126.956 111.074 127.333 110.692C127.712 110.31 128.286 110.219 128.819 110.147C129.53 110.052 130.241 109.956 130.952 109.861C131.483 110.219 131.302 111.117 130.778 111.488C130.255 111.859 129.566 111.862 128.925 111.87C128.284 111.879 128.693 111.518 128.218 111.95Z" fill="black"/>
<path d="M118.221 105.548C120.1 105.324 121.583 106.096 123.398 106.627C123.538 106.668 123.683 106.713 123.831 106.708C124.464 106.683 124.678 105.736 124.29 105.236C123.9 104.736 123.219 104.59 122.595 104.477C122.001 104.37 121.409 104.264 120.815 104.156C119.924 103.995 118.983 103.837 118.13 104.14C117.675 104.302 117.222 104.672 117.229 105.155C117.235 105.638 117.987 105.971 118.221 105.548Z" fill="black"/>
<path d="M127.901 106.802C129.675 105.848 131.776 105.514 133.759 105.868C133.938 105.899 134.161 105.92 134.262 105.769C134.302 105.711 134.312 105.64 134.317 105.57C134.382 104.648 133.521 103.869 132.614 103.686C131.707 103.503 130.776 103.765 129.887 104.023C129.498 104.136 129.107 104.249 128.717 104.362C128.221 104.507 127.708 104.66 127.314 104.995C126.92 105.331 126.68 105.905 126.886 106.38C127.093 106.855 127.847 107.029 128.143 106.604" fill="black"/>
<path d="M122.391 101.671C120.701 101.182 118.986 100.69 117.228 100.668C115.469 100.645 113.63 101.151 112.396 102.403C111.519 103.292 111.007 104.486 110.149 105.393C109.245 106.348 107.48 106.444 106.914 107.633C106.274 108.976 104.879 108.978 104.613 110.267C104.957 109.46 105.158 108.986 105.5 108.179C105.772 107.544 106.051 106.893 106.523 106.389C107.151 105.721 108.283 104.752 109.015 104.196C110.601 102.995 110.843 101.338 112.592 100.389C113.746 99.7623 115.518 99.4595 116.83 99.499C118.532 99.549 120.222 100.09 121.592 101.102" fill="black"/>
<path d="M128.372 100.936C130.44 99.6782 132.483 98.8806 134.823 99.4978C136.814 100.024 138.228 101.427 140.19 102.05C140.925 102.283 142.344 102.587 143.056 102.882C144.184 103.346 144.559 104.673 145.216 105.701C145.626 106.345 145.903 107.207 145.487 107.848C144.047 107.488 143.502 105.733 142.346 104.802C140.979 103.703 138.96 103.904 137.421 103.061C136.921 102.786 136.485 102.408 136.005 102.101C135.224 101.602 134.332 101.298 133.421 101.129C131.485 100.768 129.44 101.019 127.65 101.838C127.535 101.469 127.833 101.033 128.218 101.006" fill="black"/>
<path d="M101.853 114.282C102.283 116.081 103.108 117.785 104.253 119.236C104.67 119.765 105.146 120.295 105.268 120.958C105.296 121.107 105.296 121.279 105.188 121.384C104.978 121.587 104.645 121.345 104.462 121.118C103.666 120.135 102.861 119.135 102.37 117.969C101.878 116.801 101.304 115.422 101.853 114.282Z" fill="black"/>
<path d="M149.815 113.521C148.76 116.383 147.386 119.126 145.727 121.683C147.309 121.909 148.622 120.443 149.283 118.989C149.994 117.42 150.335 115.685 150.27 113.965" fill="black"/>
</g>
<defs>
<filter id="filter0_ddd_6071_9352" x="0.5" y="0" width="250" height="250" filterUnits="userSpaceOnUse" color-interpolation-filters="sRGB">
<feFlood flood-opacity="0" result="BackgroundImageFix"/>
<feColorMatrix in="SourceAlpha" type="matrix" values="0 0 0 0 0 0 0 0 0 0 0 0 0 0 0 0 0 0 127 0" result="hardAlpha"/>
<feOffset dy="10"/>
<feGaussianBlur stdDeviation="40"/>
<feComposite in2="hardAlpha" operator="out"/>
<feColorMatrix type="matrix" values="0 0 0 0 0.290196 0 0 0 0 0.290196 0 0 0 0 0.290196 0 0 0 0.02 0"/>
<feBlend mode="normal" in2="BackgroundImageFix" result="effect1_dropShadow_6071_9352"/>
<feColorMatrix in="SourceAlpha" type="matrix" values="0 0 0 0 0 0 0 0 0 0 0 0 0 0 0 0 0 0 127 0" result="hardAlpha"/>
<feOffset dy="5"/>
<feGaussianBlur stdDeviation="10"/>
<feComposite in2="hardAlpha" operator="out"/>
<feColorMatrix type="matrix" values="0 0 0 0 0.291667 0 0 0 0 0.291667 0 0 0 0 0.291667 0 0 0 0.08 0"/>
<feBlend mode="normal" in2="effect1_dropShadow_6071_9352" result="effect2_dropShadow_6071_9352"/>
<feColorMatrix in="SourceAlpha" type="matrix" values="0 0 0 0 0 0 0 0 0 0 0 0 0 0 0 0 0 0 127 0" result="hardAlpha"/>
<feOffset dy="2"/>
<feGaussianBlur stdDeviation="5"/>
<feComposite in2="hardAlpha" operator="out"/>
<feColorMatrix type="matrix" values="0 0 0 0 0.2625 0 0 0 0 0.2625 0 0 0 0 0.2625 0 0 0 0.15 0"/>
<feBlend mode="normal" in2="effect2_dropShadow_6071_9352" result="effect3_dropShadow_6071_9352"/>
<feBlend mode="normal" in="SourceGraphic" in2="effect3_dropShadow_6071_9352" result="shape"/>
</filter>
</defs>
</svg>
