<svg width="49" height="49" viewBox="0 0 49 49" fill="none" xmlns="http://www.w3.org/2000/svg">
<rect x="0.666992" y="0.950195" width="48" height="48" rx="24" fill="#E6F1F1"/>
<path d="M29.667 22.2002C31.707 23.6649 34.1556 24.452 36.667 24.4502V19.4502C34.8105 19.4502 33.03 18.7127 31.7172 17.3999C30.4045 16.0872 29.667 14.3067 29.667 12.4502H24.667V28.4502C24.667 29.0765 24.4988 29.6914 24.1802 30.2306C23.8615 30.7698 23.404 31.2137 22.8554 31.5158C22.3067 31.818 21.687 31.9673 21.061 31.9484C20.4349 31.9294 19.8254 31.7428 19.2961 31.408C18.7667 31.0731 18.3369 30.6024 18.0515 30.0449C17.7661 29.4873 17.6355 28.8634 17.6734 28.2382C17.7113 27.613 17.9163 27.0095 18.2669 26.4905C18.6176 25.9715 19.1011 25.5561 19.667 25.2877V20.0877C18.0752 20.3731 16.5979 21.1066 15.4084 22.2022C14.2189 23.2978 13.3667 24.71 12.9516 26.273C12.5366 27.836 12.5761 29.4849 13.0655 31.0263C13.5548 32.5676 14.4737 33.9374 15.7142 34.9748C16.9548 36.0122 18.4655 36.6742 20.0691 36.8831C21.6727 37.092 23.3027 36.8391 24.7676 36.154C26.2325 35.469 27.4715 34.3803 28.3394 33.0157C29.2072 31.6512 29.6678 30.0674 29.667 28.4502V22.2002Z" stroke="black" stroke-width="2" stroke-linecap="round" stroke-linejoin="round"/>
</svg>
